<?xml version="1.0" encoding="UTF-8" standalone="no"?><!DOCTYPE svg PUBLIC "-//W3C//DTD SVG 1.1//EN" "http://www.w3.org/Graphics/SVG/1.1/DTD/svg11.dtd"><svg width="100%" height="100%" viewBox="0 0 500 349" version="1.1" xmlns="http://www.w3.org/2000/svg" xmlns:xlink="http://www.w3.org/1999/xlink" xml:space="preserve" xmlns:serif="http://www.serif.com/" style="fill-rule:evenodd;clip-rule:evenodd;stroke-linejoin:round;stroke-miterlimit:2;"><path d="M53.627,329.017c-0,0 -56.895,-55.223 -20.699,-120.192c36.196,-64.971 84.811,-32.298 82.458,-107.918c-2.353,-75.62 111.804,-82.116 148.14,-60.19c36.336,21.927 36.118,48.335 111.13,39.597c75.013,-8.737 89.344,64.099 69.829,101.22c-27.69,52.669 76.848,43.982 10.978,147.483l-401.836,0Z" style="fill:#ebf3fa;fill-rule:nonzero;"/><path d="M303.475,199.074c0,-0 12.089,-51.239 52.871,-56.872c-0,-0 0.264,-0.033 0.713,-0.033c2.006,0 7.704,0.652 9.865,7.796c2.642,8.737 -13.135,8.8 -22.886,12.314c-9.753,3.515 -32.487,18.414 -40.563,36.795Z" style="fill:#d9e5fc;fill-rule:nonzero;"/><path d="M302.549,189.485c-0,0 -4.24,-42.442 25.52,-57.505c0,-0 1.377,-0.671 3.288,-0.671c2.021,0 4.64,0.749 6.862,3.831c4.326,5.998 -7.743,10.204 -14.29,15.466c-6.545,5.263 -20.038,22.668 -21.38,38.879Z" style="fill:#d9e5fc;fill-rule:nonzero;"/><path d="M483.119,329.556l-467.715,0c-0.297,0 -0.54,-0.244 -0.54,-0.541l-0,-0.206c-0,-0.297 0.243,-0.541 0.54,-0.541l467.715,-0c0.297,-0 0.541,0.244 0.541,0.541l-0,0.206c-0,0.297 -0.244,0.541 -0.541,0.541Z" style="fill:#2e3552;fill-rule:nonzero;"/><path d="M82.507,290.481c-6.296,-14.347 16.543,-26.673 16.543,-26.673c-0,-0 30.096,9.74 34.417,7.069c4.321,-2.672 -24.105,-13.354 -24.105,-13.354c7.013,-6.861 33.907,-13.151 33.907,-13.151c-0,0 18.141,25.034 21.671,21.381c3.531,-3.652 -17.193,-21.347 -17.193,-21.347c9.139,-3.72 22.926,-0.665 22.926,-0.665c19.853,7.067 9.751,32.195 9.751,32.195c0,0 6.474,8.541 19.334,13.959c0,-0 2.586,0.83 6.187,2.882l-2.007,1.616c-0.597,-0.405 -1.196,-0.78 -1.799,-1.118l-0.01,-0.008l-0.028,-0.014c-0.387,-0.199 -0.939,-0.481 -1.619,-0.82l-0.002,-0.002l-0.003,-0.001c-1.58,-0.706 -2.709,-1.26 -3.487,-1.689l-0.006,-0.003c-4.873,-2.289 -11.472,-5.067 -14.067,-4.674c0,-0 -0.028,-0.49 -0.311,-1.267c0.1,0.406 0.203,0.825 0.311,1.267c2.494,10.128 -13.694,25.19 -24.843,30.933c-11.15,5.745 -9.153,-0.313 -7.529,-8.845c1.625,-8.53 13.351,-16.072 15.157,-20.358c1.806,-4.287 -4.239,-2.249 -10.223,3.38c-5.984,5.629 -4.036,14.577 -13.55,23.86c-9.515,9.282 -32.979,-3.779 -32.979,-3.779c8.894,-3.523 18.491,-17.725 17.005,-20.573c-1.485,-2.85 -20.181,12.614 -23.718,14.249c-3.537,1.634 -13.433,-0.103 -19.73,-14.45Z" style="fill:#cde0fb;fill-rule:nonzero;"/><path d="M370.053,307.731c9.186,-10.839 -7.472,-27.463 -7.472,-27.463c0,0 -28.674,0.675 -31.738,-2.765c-3.063,-3.439 24.404,-5.365 24.404,-5.365c-4.319,-7.779 -26.061,-20.206 -26.061,-20.206c-0,-0 -22.246,17.06 -24.368,12.972c-2.123,-4.088 20.467,-14.101 20.467,-14.101c-6.98,-5.599 -19.751,-6.512 -19.751,-6.512c-19.082,1.004 -16.808,25.455 -16.808,25.455c0,0 -7.837,5.745 -20.414,7.126l-0.002,-0c-0,-0 -2.461,0.051 -6.122,0.901l1.327,1.925c0.622,-0.199 1.241,-0.369 1.853,-0.506l0.011,-0.004l0.027,-0.005c0.387,-0.073 0.941,-0.176 1.619,-0.294l0.002,-0.001l0.004,-0c1.556,-0.205 2.679,-0.393 3.467,-0.565l0.005,-0.002c4.826,-0.727 11.282,-1.433 13.433,-0.42c0,0 0.154,-0.419 0.599,-1.02c-0.19,0.326 -0.389,0.664 -0.599,1.02c-4.787,8.156 5.382,25.434 13.584,33.313c8.202,7.878 8.036,2.095 8.832,-5.738c0.796,-7.833 -7.442,-17.422 -7.902,-21.616c-0.459,-4.192 4.267,-0.858 8.009,5.584c3.744,6.44 -0.266,13.712 5.6,24.241c5.866,10.53 29.637,5.255 29.637,5.255c-6.816,-5.365 -11.481,-20.19 -9.452,-22.282c2.028,-2.091 14.273,16.186 16.924,18.522c2.651,2.338 11.7,3.387 20.885,-7.449Z" style="fill:#cde0fb;fill-rule:nonzero;"/><path d="M223.965,217.965l-2.927,-0.82c-0.02,-0.852 -0.071,-1.685 -0.16,-2.495l-0.002,-0.017l-0.003,-0.034c-0.074,-0.508 -0.183,-1.234 -0.322,-2.119l-0,-0.003l-0.002,-0.004c-0.404,-2.003 -0.646,-3.465 -0.767,-4.507l-0,-0.009c-1.142,-6.25 -2.999,-14.496 -5.155,-16.72c-3.111,3.623 -8.86,5.054 -15.5,5.054c-10.486,-0 -23.194,-3.566 -31.253,-7.716c-13.165,-6.774 -5.975,-9.009 3.334,-13.297c2.49,-1.146 5.407,-1.55 8.445,-1.55c3.637,-0 7.448,0.579 10.919,1.157c3.468,0.579 6.593,1.158 8.851,1.158c0.657,0 1.24,-0.048 1.739,-0.16c5.356,-1.204 -0.745,-5.615 -10.258,-7.505c-1.022,-0.204 -2.019,-0.293 -3.003,-0.293c-3.395,0 -6.632,1.056 -10.249,2.112c-3.615,1.056 -7.609,2.112 -12.511,2.112c-1.988,-0 -4.127,-0.174 -6.451,-0.592c-15.441,-2.778 -18.981,-34.276 -18.981,-34.276c5.177,3.346 13.556,4.712 20.377,4.712c5.674,0 10.27,-0.945 11.05,-2.48c1.719,-3.38 -25.956,-10.741 -29.953,-13.019c-3.996,-2.277 -9.11,-12.977 0.357,-28.863c3.508,-5.886 9.494,-7.739 15.637,-7.739c10.438,-0 21.333,5.345 21.333,5.345c-0,-0 11.276,35.595 16.804,37.915c0.179,0.075 0.344,0.111 0.492,0.111c4.452,0 -4.189,-32.426 -4.189,-32.426c11.402,2.033 35.884,23.561 35.884,23.561c-0,-0 -11.615,34.593 -5.685,35.481c0.081,0.012 0.162,0.018 0.242,0.018c5.765,0 8.479,-31.173 8.479,-31.173c9.842,6.23 16.36,21.571 16.36,21.571c6.82,23.921 -24.249,31.443 -24.249,31.443c-0,-0 -3.766,12.075 -0.156,28.147c0,-0 0.976,3.054 1.473,7.92Zm-8.334,-27.895c-0.32,0.373 -0.653,0.76 -1.004,1.167c-0,0 0.452,-0.365 1.004,-1.167Z" style="fill:#dce9fb;fill-rule:nonzero;"/><path d="M260.681,113.588l-11.474,0l-1.625,-39.203l14.724,0l-1.625,39.203Zm-13.433,13.279c-0,-1.027 0.182,-1.976 0.55,-2.847c0.365,-0.87 0.885,-1.625 1.554,-2.263c0.67,-0.637 1.473,-1.135 2.414,-1.493c0.939,-0.358 1.999,-0.537 3.179,-0.537c1.178,0 2.247,0.179 3.203,0.537c0.955,0.358 1.768,0.856 2.437,1.493c0.67,0.638 1.187,1.393 1.555,2.263c0.365,0.871 0.55,1.82 0.55,2.847c-0,1.026 -0.185,1.967 -0.55,2.822c-0.368,0.857 -0.885,1.603 -1.555,2.24c-0.669,0.638 -1.482,1.136 -2.437,1.494c-0.956,0.357 -2.025,0.536 -3.203,0.536c-1.18,0 -2.24,-0.179 -3.179,-0.536c-0.941,-0.358 -1.744,-0.856 -2.414,-1.494c-0.669,-0.637 -1.189,-1.383 -1.554,-2.24c-0.368,-0.855 -0.55,-1.796 -0.55,-2.822Z" style="fill:#dd3030;fill-rule:nonzero;"/><path d="M222.916,78.352l-8.807,0l-1.247,-30.088l11.3,0l-1.246,30.088Zm-10.311,10.191c0,-0.788 0.14,-1.516 0.422,-2.185c0.281,-0.668 0.679,-1.247 1.192,-1.736c0.514,-0.489 1.131,-0.872 1.853,-1.146c0.722,-0.275 1.535,-0.412 2.44,-0.412c0.904,-0 1.724,0.137 2.459,0.412c0.734,0.274 1.357,0.657 1.871,1.146c0.513,0.489 0.912,1.068 1.192,1.736c0.28,0.669 0.422,1.397 0.422,2.185c-0,0.788 -0.142,1.51 -0.422,2.167c-0.28,0.657 -0.679,1.23 -1.192,1.719c-0.514,0.489 -1.137,0.872 -1.871,1.146c-0.735,0.274 -1.555,0.412 -2.459,0.412c-0.905,-0 -1.718,-0.138 -2.44,-0.412c-0.722,-0.274 -1.339,-0.657 -1.853,-1.146c-0.513,-0.489 -0.911,-1.062 -1.192,-1.719c-0.282,-0.657 -0.422,-1.379 -0.422,-2.167Z" style="fill:#aec3ff;fill-rule:nonzero;"/><path d="M393.977,129.191l-8.805,-0l-1.248,-30.088l11.3,-0l-1.247,30.088Zm-10.31,10.191c-0,-0.788 0.141,-1.516 0.422,-2.185c0.282,-0.668 0.678,-1.247 1.192,-1.737c0.514,-0.489 1.131,-0.871 1.853,-1.146c0.722,-0.274 1.536,-0.412 2.441,-0.412c0.905,0 1.724,0.138 2.457,0.412c0.735,0.275 1.359,0.657 1.873,1.146c0.512,0.49 0.91,1.069 1.191,1.737c0.282,0.669 0.423,1.397 0.423,2.185c0,0.788 -0.141,1.51 -0.423,2.166c-0.281,0.657 -0.679,1.23 -1.191,1.719c-0.514,0.49 -1.138,0.872 -1.873,1.146c-0.733,0.274 -1.552,0.412 -2.457,0.412c-0.905,0 -1.719,-0.138 -2.441,-0.412c-0.722,-0.274 -1.339,-0.656 -1.853,-1.146c-0.514,-0.489 -0.91,-1.062 -1.192,-1.719c-0.281,-0.656 -0.422,-1.378 -0.422,-2.166Z" style="fill:#aec3ff;fill-rule:nonzero;"/><path d="M364.298,215.951c-1.84,3.414 -4.133,6.863 -6.483,9.668l-0,0.002c-2.461,2.938 -4.98,5.171 -7.106,5.927l-0.016,0.006c-0.112,0.038 -0.221,0.074 -0.331,0.103l-0.016,0.004l-0.002,0.001c-0.431,0.123 -0.843,0.178 -1.234,0.16c-6.978,-0.313 -14.331,-15.281 -14.331,-15.281c-0,-0 0.192,-1.774 1.549,-3.028c1.183,-1.093 2.093,-1.378 2.093,-1.378c0,-0 7.515,7.717 9.352,8.272c1.154,0.348 2.672,-5.041 4.847,-11.808c2.177,-6.768 9.818,-8.436 9.818,-8.436c0,0 7.734,4.895 1.86,15.788Z" style="fill:#aec3ff;fill-rule:nonzero;"/><path d="M357.815,225.619l-0,0.002c-2.461,2.938 -4.98,5.171 -7.106,5.927l-0.016,0.006l-0.331,0.103l-0.018,0.005l0.002,-0.001c0.077,-0.051 2.352,-1.231 2.708,-3.422c0.366,-2.237 -2.003,-4.068 3.949,-7.529c3.467,-2.018 0.812,4.909 0.812,4.909Z" style="fill:#94b0ed;fill-rule:nonzero;"/><path d="M352.369,328.268l16.352,-0c1.17,-0.794 -0.317,-8.562 -0.317,-8.562c0,-0 -4.462,-1.694 -5.233,1.749c-0.774,3.442 -5.685,4.537 -8.284,4.956c-1.778,0.29 -2.341,1.267 -2.518,1.857Z" style="fill:#24406d;fill-rule:nonzero;"/><path d="M377.305,247.75c-0,0 -0.516,9.54 -1.162,20.594c-0.463,7.925 -0.991,16.631 -1.446,23.15c-0.059,0.865 -0.119,1.692 -0.177,2.474c-0.016,0.242 -0.034,0.483 -0.052,0.724c-1.171,14.618 -5.087,27.426 -5.087,27.426c-4.596,0.968 -6.673,-0.804 -6.673,-0.804c-0,0 -3.168,-37.126 -4.341,-52.1c-0.863,-11.021 -1.6,-27.069 -1.6,-27.069l20.538,5.605Z" style="fill:#ff9e55;fill-rule:nonzero;"/><path d="M376.143,268.344c-0.463,7.925 -0.991,16.631 -1.446,23.15c-3.005,-7.089 -9.146,-34.723 -9.146,-34.723l10.592,11.573Z" style="fill:#ed7d2b;fill-rule:nonzero;"/><path d="M376.619,328.268l16.354,-0c1.171,-0.794 -0.317,-8.562 -0.317,-8.562c0,-0 -4.464,-1.694 -5.234,1.749c-0.773,3.442 -5.684,4.537 -8.284,4.956c-1.779,0.29 -2.34,1.267 -2.519,1.857Z" style="fill:#24406d;fill-rule:nonzero;"/><path d="M361.21,245.854c-0,-0 11.676,29.067 15.409,40.085c2.66,7.848 10.158,35.381 10.158,35.381c0,-0 3.263,0.993 6.002,-0.925c0,-0 2.791,-28.13 -2.844,-36.061c-2.991,-4.209 -0.744,-43.746 -12.867,-44.084c-12.124,-0.338 -15.858,5.604 -15.858,5.604Z" style="fill:#ff9e55;fill-rule:nonzero;"/><path d="M385.12,236.504c-0.049,4.133 -0.094,7.168 -0.083,7.935c0.032,2.501 -1.567,3.065 -3.216,3.447c0,0 -1.521,0.328 -3.443,0.653c-1.882,0.315 -4.153,0.626 -5.756,0.615c-8.199,-0.065 -15.06,-2.479 -15.06,-2.479c-1.544,0 -2.246,-2.384 -2.499,-5.717c-0.172,-2.255 0.525,-24.745 0.612,-30.36c0.059,-4.028 2.27,-7.75 2.889,-8.294c5.725,-5.063 22.62,-4.424 25.66,-0.932c0.753,0.863 0.972,9.188 0.997,18.31c0.017,5.872 -0.043,12.071 -0.101,16.822Z" style="fill:#aec3ff;fill-rule:nonzero;"/><path d="M374.976,199.367c-2.157,2.338 -9.402,1.99 -9.187,-0.049c0.029,-0.251 0.076,-1.744 0.102,-1.976c0.018,-0.186 0.036,-0.369 0.05,-0.539c0.049,-0.503 0.089,-0.948 0.122,-1.332c0.097,-1.118 0.128,-1.724 0.128,-1.724l0.007,-0c0.207,-0.06 4.866,-1.382 7.182,-1.931c0.778,-0.183 1.294,-0.28 1.285,-0.212c-0.711,5.204 1.019,6.996 0.311,7.763Z" style="fill:#ffb27d;fill-rule:nonzero;"/><path d="M373.626,193.352c0,0 -1.945,1.976 -7.563,2.119c0.097,-1.118 0.128,-1.724 0.128,-1.724l0.007,-0c0.207,-0.06 4.866,-1.382 7.182,-1.931c0.409,0.168 -0.132,1.256 0.246,1.536Z" style="fill:#ed975d;fill-rule:nonzero;"/><path d="M364.767,193.47c0,-0 1.422,0.51 3.235,0.753c2.651,0.358 6.14,0.148 7.235,-3.062c1.845,-5.399 4.201,-8.638 -1.229,-10.843c-2.906,-1.18 -4.766,-1.243 -6.029,-0.793c-1.097,0.389 -1.744,1.166 -2.233,1.934c-1.055,1.653 -3.176,11.065 -0.979,12.011Z" style="fill:#ffb27d;fill-rule:nonzero;"/><path d="M366.155,177.28c-1.94,1.274 -1.306,4.259 0.979,4.661c1.37,0.241 2.519,0.289 3.183,0.584c1.35,0.6 2.511,1.237 2.191,3.331c-0.107,0.713 -0.454,1.581 1.379,1.151c0.3,-0.071 0.517,-0.051 0.666,0.039c0.76,0.451 -0.212,2.639 -0.505,3.113c-0,-0 -0.422,1.567 0.516,2.328c0.112,0.093 1.952,0.896 6.385,-5.888c0.697,-1.064 1.361,-3.463 0.286,-5.773c-1.075,-2.31 -4.073,-5.231 -9.72,-5.231c-1.471,-0 -3.681,0.582 -5.36,1.685Z" style="fill:#233862;fill-rule:nonzero;"/><path d="M385.12,236.504c-0.825,3.835 -0.615,3.875 -1.88,2.868c-5.157,-4.098 -3.65,-6.246 -2.504,-9.798c1.145,-3.552 -2.876,-9.107 -0,-11.475c2.813,-2.315 4.415,1.416 4.485,1.583c0.017,5.872 -0.043,12.071 -0.101,16.822Z" style="fill:#94b0ed;fill-rule:nonzero;"/><path d="M384.993,236.011c0,-0 -1.943,3.179 -3.217,3.067c-1.274,-0.113 -2.995,-0.589 -3.986,0.36c-0.994,0.946 -2.593,3.391 -2.146,4.042c0.447,0.65 2.245,0.074 3.536,-0.639c1.293,-0.713 3.327,0.351 4.411,-0.459c1.084,-0.809 3.68,-4.023 3.68,-4.023l-2.278,-2.348Z" style="fill:#ffb27d;fill-rule:nonzero;"/><path d="M384.224,201.372c0,-0 16.132,15.178 14.038,25.276c-0.955,4.602 -3.917,8.483 -11.81,14.767c-0,0 -3.735,-2.58 -4.555,-4.675c0,-0 7.166,-10.092 6.889,-11.811c-0.34,-2.102 -5.231,-7.377 -6.985,-8.197c-1.755,-0.819 -1.594,-13.6 2.423,-15.36Z" style="fill:#aec3ff;fill-rule:nonzero;"/><path d="M381.776,239.078c0,-0 -1.701,-0.744 -2.247,-1.063c-0.547,-0.318 -0.425,0.198 -0.257,0.455c0.166,0.258 0.622,0.836 1.29,0.895c0.668,0.062 1.214,-0.287 1.214,-0.287Z" style="fill:#ffb27d;fill-rule:nonzero;"/><path d="M98.125,206.093c-0.583,-1.126 12.724,-5.175 12.935,5.926c-0,-0 24.928,-0.614 13.025,-14.509c-4.12,-4.809 -3.696,-8.786 -3.573,-12.488c0.125,-3.703 -2.566,-14.464 -11.793,-13.381c-0,0 -2.417,-0.983 -5.433,0.582c-6.857,3.558 -22.22,37.963 -5.161,33.87Z" style="fill:#163560;fill-rule:nonzero;"/><path d="M138.879,216.282c0,-0 1.623,-2.47 2.931,-2.519c1.308,-0.049 3.729,-0.725 3.536,-0.242c-0.194,0.485 -1.696,0.533 -1.841,0.823c-0.145,0.291 2.228,0.727 2.906,0.776c0.678,0.047 2.277,0 2.228,0.339c-0.048,0.338 -2.881,1.744 -4.879,1.55c-1.999,-0.195 -4.469,0.581 -4.469,0.581l-0.412,-1.308Z" style="fill:#ffb27d;fill-rule:nonzero;"/><path d="M115.412,217.082c0,-0 0.882,1.746 2.482,3.753c1.928,2.415 4.901,5.204 8.634,5.755c1.783,0.263 3.527,-0.121 5.13,-0.832l0.005,-0.002c4.534,-2.012 7.943,-6.64 7.943,-6.64c0.799,-2.181 -0.509,-3.657 -0.509,-3.657c0,-0 -9.154,2.059 -10.026,1.623c-0.872,-0.436 -6.232,-12.328 -7.197,-14.31c-2.053,-4.208 -5.309,-5.417 -5.309,-5.417l-1.153,19.727Z" style="fill:#aec3ff;fill-rule:nonzero;"/><path d="M117.894,220.835c1.928,2.415 4.901,5.204 8.634,5.755c1.783,0.263 3.527,-0.121 5.13,-0.832c-0.177,0.022 -4.705,0.583 -6.51,-2.647c-1.841,-3.293 -3.832,-8.525 -6.566,-6.78c-1.18,0.752 -1.128,2.622 -0.688,4.504Z" style="fill:#94b0ed;fill-rule:nonzero;"/><path d="M81.259,315.897c0,-0 -2.793,2.549 -2.248,4.36c0.545,1.812 3.066,3.02 3.406,5.233c0.341,2.215 1.704,3.422 2.93,3.422l5.847,0c-0,0 0.902,-1.558 -1.278,-2.028c-2.18,-0.469 -3.002,-3.071 -2.866,-5.485c0.136,-2.415 -0.204,-5.636 -0.204,-5.636l-4.633,-1.073l-0.954,1.207Z" style="fill:#1d3356;fill-rule:nonzero;"/><path d="M104.902,316.981c-0,-0 -1.005,10.798 0.221,11.401l15.695,-0.031c-0,0 -0,-1.811 -2.521,-2.215c-2.521,-0.401 -6.949,-1.878 -7.699,-5.166c-0.749,-3.286 -5.696,-3.989 -5.696,-3.989Z" style="fill:#1d3356;fill-rule:nonzero;"/><path d="M92.829,209.797c-0,-0 -0.234,3.297 -0,7.254c0.155,2.624 2.809,6.136 3.185,7.004c0.944,2.181 2.009,2.535 2.009,2.535l8.241,2.02l2.897,0.709l9.137,-2.729c0,0 4.162,-11.616 2.491,-18.154c-1.671,-6.539 -4.224,-11.081 -4.224,-11.081c-0,-0 -6.194,-2.443 -17.164,-0.619l-6.572,13.061Z" style="fill:#aec3ff;fill-rule:nonzero;"/><path d="M95.241,218.122c0.155,2.622 0.397,5.065 0.773,5.933c0.944,2.181 2.009,2.535 2.009,2.535l8.241,2.02l3.579,-1.052c-0,0 -11.947,-1.811 -10.624,-12.09l-3.978,2.654Z" style="fill:#f2ccaa;fill-rule:nonzero;"/><path d="M117.717,228.353c-0,-0 4.525,14.085 4.816,18.88c0.29,4.795 -8.65,68.119 -9.01,70.328c-0.339,2.083 -2.925,3.409 -2.925,3.409c0,0 -1.189,0.702 -2.887,0.223c-2.355,-0.664 -3.1,-1.46 -3.1,-1.46c0,-0 -3.522,-45.163 -1.342,-61.296c2.179,-16.133 2.205,-30.084 2.205,-30.084l12.243,-0Z" style="fill:#233862;fill-rule:nonzero;"/><path d="M98.546,227.933c0,0 -6.902,9.261 -7.545,15.522c-0.644,6.26 -1.01,28.249 -2.38,34.352c-1.371,6.104 -6.408,17.847 -6.408,36.883c-0,-0 0.523,1.091 2.14,1.672c0.517,0.186 1.21,0.367 1.882,0.521c1.333,0.306 2.701,-0.346 3.309,-1.571c3.405,-6.856 14.252,-28.969 14.808,-33.558c0.394,-3.248 3.819,-24.748 11.289,-37.362c1.794,-3.029 -1.1,-15.073 -1.1,-15.073l-15.995,-1.386Z" style="fill:#2b478b;fill-rule:nonzero;"/><path d="M118.44,226.18c-0,-0 -1.817,1.436 -5.425,1.509c-4.31,0.087 -14.991,-1.099 -14.991,-1.099c0,0 -0.475,1.325 -0.455,2.725c-0,0 13.044,3.292 20.602,0.482c0,-0 0.975,-1.835 0.269,-3.617Z" style="fill:#233862;fill-rule:nonzero;"/><path d="M112.734,229.176c0,0.869 0.59,1.574 1.315,1.574c0.725,0 1.315,-0.705 1.315,-1.574c-0,-0.867 -0.59,-1.574 -1.315,-1.574c-0.725,-0 -1.315,0.707 -1.315,1.574Zm-0.652,0c0,-1.227 0.882,-2.226 1.967,-2.226c1.084,0 1.967,0.999 1.967,2.226c-0,1.229 -0.883,2.228 -1.967,2.228c-1.085,-0 -1.967,-0.999 -1.967,-2.228Z" style="fill:#fff;fill-rule:nonzero;"/><path d="M85.367,229.934l10.593,9.223c0.765,0.666 1.926,0.586 2.592,-0.179l13.516,-15.522c0.667,-0.765 0.587,-1.927 -0.179,-2.593l-10.592,-9.222c-0.766,-0.668 -1.927,-0.587 -2.593,0.179l-13.516,15.521c-0.666,0.766 -0.586,1.926 0.179,2.593Z" style="fill:#dd3030;fill-rule:nonzero;"/><path d="M101.038,228.769c0.151,0.04 5.627,0.684 5.628,1.815c0.001,1.308 -1.605,3.062 -3.118,2.978c-0.613,-0.032 -3.438,-2.631 -3.438,-2.631l0.928,-2.162Z" style="fill:#ffb27d;fill-rule:nonzero;"/><path d="M103.85,196.137c0.623,-1.511 0.987,-3.812 0.977,-6.661l0.414,0.082l6.955,1.377c0,-0 -0.158,2.189 -0.162,4.252c-0,0.016 -0,0.035 -0.001,0.051c-0.008,1.791 1.211,3.588 -1.662,4.299c-0.888,0.219 -7.829,-0.226 -6.521,-3.4Z" style="fill:#ffb27d;fill-rule:nonzero;"/><path d="M112.197,190.935c-0,-0 -0.159,2.189 -0.163,4.252c-3.893,-0.11 -5.95,-3.66 -6.793,-5.629l6.956,1.377Z" style="fill:#e8945b;fill-rule:nonzero;"/><path d="M113.497,192.887c-0,0 -9.21,0.152 -9.217,-5.584c-0.006,-5.737 -1.199,-9.581 4.681,-9.92c5.88,-0.34 7.025,1.848 7.493,3.762c0.468,1.915 -0.562,11.556 -2.957,11.742Z" style="fill:#ffb27d;fill-rule:nonzero;"/><path d="M113.156,177.242c-0,0 -2.522,6.731 -6.392,7.725c-3.87,0.995 -5.548,-0.041 -5.548,-0.041c-0,-0 2.968,-2.358 3.584,-6.474c0,-0 6.454,-4.413 8.356,-1.21Z" style="fill:#163560;fill-rule:nonzero;"/><path d="M112.531,177.789c-0,-0 1.87,0.699 2.639,2.062c0.753,1.334 1.394,3.1 1.245,5.266c0,0 1.9,-4.574 -0.235,-7.161c-2.264,-2.744 -3.649,-0.167 -3.649,-0.167Z" style="fill:#163560;fill-rule:nonzero;"/><path d="M101.038,228.769c0,0 1.313,-0.422 2.19,-0.299c0.877,0.123 1.526,-0.018 1.526,0.228c-0,0.247 -1.133,0.361 -1.373,0.478c-0.241,0.12 -2.343,-0.407 -2.343,-0.407Z" style="fill:#ffb27d;fill-rule:nonzero;"/><path d="M99.401,196.736c0,0 -6.538,0.46 -9.044,6.55c-2.506,6.093 -7.26,16.322 -7.26,18.042c-0,1.721 2.656,7.025 16.92,10.076c-0,-0 1.475,-1.553 1.386,-2.78c-0,0 -8.905,-7.648 -8.88,-8.542c0.045,-1.69 1.459,-3.923 9.277,-11.744c2.125,-2.126 -2.399,-11.602 -2.399,-11.602Z" style="fill:#aec3ff;fill-rule:nonzero;"/><path d="M282.105,144.825l-70.649,0c-1.708,0 -3.345,0.679 -4.554,1.887l-49.956,49.955c-1.208,1.209 -1.887,2.847 -1.887,4.557l0,70.647c0,1.708 0.679,3.347 1.887,4.556l49.956,49.954c1.209,1.208 2.846,1.887 4.554,1.887l70.649,-0c1.708,-0 3.348,-0.679 4.555,-1.887l49.955,-49.954c1.209,-1.209 1.888,-2.848 1.888,-4.556l-0,-70.647c-0,-1.71 -0.679,-3.348 -1.888,-4.557l-49.955,-49.955c-1.207,-1.208 -2.847,-1.887 -4.555,-1.887Z" style="fill:#dd3030;fill-rule:nonzero;"/><path d="M216.427,160.303c-0.791,0 -1.534,0.308 -2.095,0.868l-42.926,42.928c-0.559,0.559 -0.869,1.303 -0.869,2.093l-0,60.708c-0,0.792 0.31,1.536 0.869,2.095l42.926,42.928c0.559,0.559 1.304,0.867 2.095,0.867l60.708,-0c0.79,-0 1.536,-0.308 2.095,-0.867l42.926,-42.928c0.561,-0.559 0.869,-1.303 0.869,-2.095l-0,-60.708c-0,-0.79 -0.308,-1.534 -0.869,-2.093l-42.926,-42.928c-0.559,-0.56 -1.305,-0.868 -2.095,-0.868l-60.708,0Zm60.708,158.782l-60.708,-0c-2.472,-0 -4.797,-0.963 -6.547,-2.711l-42.926,-42.927c-1.748,-1.748 -2.712,-4.074 -2.712,-6.547l-0,-60.708c-0,-2.471 0.964,-4.797 2.712,-6.546l42.926,-42.926c1.75,-1.749 4.075,-2.712 6.547,-2.712l60.708,0c2.473,0 4.798,0.963 6.546,2.712l42.926,42.927c1.75,1.748 2.713,4.074 2.713,6.545l-0,60.708c-0,2.473 -0.963,4.799 -2.713,6.547l-42.926,42.926c-1.748,1.749 -4.073,2.712 -6.546,2.712Z" style="fill:#ffe5d4;fill-rule:nonzero;"/><path d="M295.743,238.857l-1.236,-1.071c-3.107,-2.689 -7.851,-2.349 -10.54,0.758l-6.986,8.068c-0.999,1.153 -2.892,0.447 -2.892,-1.078c0,-0.639 -0.036,-1.271 -0.101,-1.893l-0,-50.794c-0,-3.336 -2.731,-6.065 -6.065,-6.065l-0.449,0c-3.337,0 -6.065,2.729 -6.065,6.065l-0,33.058c-0,0.803 -0.65,1.453 -1.453,1.453c-0.885,-0 -1.604,-0.719 -1.604,-1.604l0,-39.312c0,-3.224 -2.638,-5.862 -5.862,-5.862l-0.853,0c-3.224,0 -5.862,2.638 -5.862,5.862l-0,39.571c-0,0.742 -0.603,1.345 -1.345,1.345c-0.946,-0 -1.711,-0.766 -1.711,-1.712l-0,-31.545c-0,-3.336 -2.729,-6.065 -6.066,-6.065l-0.449,0c-3.334,0 -6.065,2.729 -6.065,6.065l0,31.802c0,0.803 -0.651,1.455 -1.455,1.455c-0.883,-0 -1.599,-0.717 -1.599,-1.602l-0,-24.88c-0,-3.335 -2.731,-6.065 -6.066,-6.065l-0.448,-0c-3.337,-0 -6.066,2.73 -6.066,6.065l0,43.686c0,0.121 0.006,0.241 0.013,0.36c-0.007,0.203 -0.013,0.407 -0.013,0.612l0,24.046c0,9.773 7.996,17.769 17.769,17.769l24.046,-0c6.25,-0 11.773,-3.272 14.943,-8.186c0.957,-1.484 1.994,-2.917 3.15,-4.253l22.088,-25.513c2.691,-3.107 2.351,-7.85 -0.758,-10.54Z" style="fill:#ffe5d4;fill-rule:nonzero;"/></svg>