<svg id="Group_65022" data-name="Group 65022" xmlns="http://www.w3.org/2000/svg" xmlns:xlink="http://www.w3.org/1999/xlink" width="35.368" height="60" viewBox="0 0 35.368 60">
  <defs>
    <clipPath id="clip-path">
      <rect id="Rectangle_8496" data-name="Rectangle 8496" width="35.368" height="60" transform="translate(0 0)" fill="none"/>
    </clipPath>
  </defs>
  <g id="Group_64610" data-name="Group 64610" transform="translate(0 0)" clip-path="url(#clip-path)">
    <path id="Path_45313" data-name="Path 45313" d="M5.109,14.179a1.279,1.279,0,0,1-1.35,1.015.468.468,0,0,1-.441-.252,1.453,1.453,0,0,0-.332-.458A5.312,5.312,0,0,1,1.792,12.8a.781.781,0,0,0-.294-.27c-.4-.213-.782-.432-.813-.963,0-.06-.111-.154-.179-.163-.3-.039-.41-.237-.468-.5a1.948,1.948,0,0,1,.53-1.649A1.373,1.373,0,0,1,.8,9.01a1.676,1.676,0,0,0,.608-1.3,1.243,1.243,0,0,1,.9-1.052,2.748,2.748,0,0,0,1.58-1.268,5.865,5.865,0,0,1,.7-.961A1.5,1.5,0,0,1,5.758,3.92a.657.657,0,0,0,.371-.176,1.637,1.637,0,0,1,2.343.143,1.237,1.237,0,0,0,.7.436,4.274,4.274,0,0,1,1.557.494c.361.148.5.075.678-.262.188-.36.419-.7.591-1.067a1.219,1.219,0,0,0,.093-.59c-.036-.453-.143-.9-.158-1.355a.788.788,0,0,1,.24-.549,1.238,1.238,0,0,1,1.266-.4.86.86,0,0,0,.825-.139.534.534,0,0,1,.644,0c.179.114.281.068.393-.1.268-.4.317-.409.791-.262a.432.432,0,0,0,.247-.017,1.011,1.011,0,0,1,.952.112.258.258,0,0,0,.4-.057.25.25,0,0,1,.433,0c.153.175.279.171.455.021a.376.376,0,0,1,.542.02.378.378,0,0,0,.538.012.723.723,0,0,1,1.036.143c.133.164.274.145.453.134a4.64,4.64,0,0,1,1,.021c.622.1.765.6.865,1.131a1.029,1.029,0,0,0,.176.423,1.605,1.605,0,0,1,.3.992,2.738,2.738,0,0,1-.036.54.567.567,0,0,0,.195.589,1.439,1.439,0,0,1,.556,1.021.314.314,0,0,0,.422.3c.452-.106.9-.26,1.353-.328a1.02,1.02,0,0,0,.678-.507,2.968,2.968,0,0,1,1.458-.95,2.128,2.128,0,0,1,1.879.429,2.965,2.965,0,0,1,1.373,1.82c.082.3.268.38.544.444a9.426,9.426,0,0,1,1.515.45,1.07,1.07,0,0,1,.671,1.073,1.654,1.654,0,0,0,.623,1.548,1.449,1.449,0,0,1,.259.338,1.32,1.32,0,0,1-.1,1.984,10.931,10.931,0,0,1-1.36,1.2,1.982,1.982,0,0,0-.672.824,1.224,1.224,0,0,1-.237.35c-.275.3-.57.582-.841.885a.869.869,0,0,1-.927.355.84.84,0,0,1-.661-.8c-.012-.176-.025-.372-.255-.429s-.338.065-.285.278a.212.212,0,0,0,.042.1c.534.467.572,1.2.952,1.756a.509.509,0,0,1-.021.75c.049.084.1.174.155.26a1.355,1.355,0,0,1,.178,1.2.415.415,0,0,0,0,.3,1.4,1.4,0,0,1-.142,1.626c-.133.188-.261.33-.079.57a.456.456,0,0,1-.021.381c-.144.3-.33.572-.482.865a.592.592,0,0,0-.1.38.685.685,0,0,1-.183.755,2.214,2.214,0,0,1-.261.262c-.229.167-.423.339-.373.667.011.071-.057.156-.094.232-.147.305-.281.618-.45.911a3.688,3.688,0,0,1-.4.507c-.048.057-.141.091-.163.154-.112.319-.2.648-.313.964a2.094,2.094,0,0,1-.239.382c-.075.116-.214.229-.217.346-.014.675.007,1.35.012,2.025a6.409,6.409,0,0,1-.537,2.945,1.2,1.2,0,0,0,0,1.1,5.562,5.562,0,0,1,.666,2.135,1.389,1.389,0,0,0,.133.463c.109.25.233.468.591.38a3.274,3.274,0,0,1,.681-.02,1.532,1.532,0,0,1,1.325,1.065.626.626,0,0,0,.244.339.982.982,0,0,1,.391,1.267.458.458,0,0,0,.174.657c.2.146.419.265.4.569,0,.054.092.111.135.171a1.27,1.27,0,0,1,.234.347c.05.174.166.233.293.334a1.448,1.448,0,0,1,.306.537,2.2,2.2,0,0,1,.127.394,1.363,1.363,0,0,1,.084.46c-.053.451-.049.857.434,1.1a.325.325,0,0,1,.133.234,4.141,4.141,0,0,1,0,.71.412.412,0,0,1-.157.283,1.043,1.043,0,0,0-.475.83,7.171,7.171,0,0,0-.079.766,2.029,2.029,0,0,1-.25.72c-.137.341-.437.568-.539.881A2.528,2.528,0,0,1,30.008,50a7.852,7.852,0,0,1-1.065.313.255.255,0,0,0-.226.325,1.58,1.58,0,0,0,.012.171,1.626,1.626,0,0,1-1.3,1.923,7.354,7.354,0,0,1-1.63.119c-.076,0-.152,0-.228,0-2.358.022-4.716.055-7.074.061-1.274,0-2.548-.037-3.822-.06-.68-.012-1.36-.035-2.04-.041-.254,0-.509.046-.762.039-.3-.009-.6-.068-.9-.077-.282-.009-.566.039-.848.025-.786-.04-1.576-.058-2.353-.168a2.978,2.978,0,0,1-1.115-.458,1.226,1.226,0,0,1-.314-1.509c.05-.089.105-.175.122-.2-.193-.029-.4-.067-.614-.091-.456-.051-.914-.091-1.37-.146a1.182,1.182,0,0,1-.374-.1,1.728,1.728,0,0,1-1.067-1.128c-.07-.28-.268-.526-.355-.8a4.641,4.641,0,0,1-.185-.936c-.037-.377-.022-.76-.047-1.139,0-.061-.086-.14-.15-.17A.867.867,0,0,1,1.985,44.6a1.386,1.386,0,0,0,.327-.948,5.91,5.91,0,0,1,.165-1.406,6.209,6.209,0,0,0,.182-.962.7.7,0,0,1,.588-.5.618.618,0,0,0,.289-.175c.193-.187.354-.411.561-.579.173-.14.238-.245.145-.473-.321-.784-.19-1.124.531-1.6a1.049,1.049,0,0,0,.278-.363,2.231,2.231,0,0,0,.109-.323.844.844,0,0,1,.934-.586c.161.012.32.044.481.062.387.042.57-.035.662-.417a6.625,6.625,0,0,0,.256-1.644,5.953,5.953,0,0,1,.318-2.068,2.517,2.517,0,0,0-.033-1.342c-.143-.764-.345-1.52-.435-2.289a5.444,5.444,0,0,1-.012-2.178.332.332,0,0,0-.087-.3,1.311,1.311,0,0,1-.689-1.217.435.435,0,0,0-.176-.277,1.46,1.46,0,0,1-.755-1.073,1.2,1.2,0,0,0-.457-.617,1.912,1.912,0,0,1-.744-1.335,1.734,1.734,0,0,0-.358-1.054,1,1,0,0,1-.071-1.081.285.285,0,0,0,.026-.186A1.978,1.978,0,0,1,4.168,18a.282.282,0,0,0,.029-.213,1.056,1.056,0,0,1,.234-1.037c.225-.314.513-.588.481-1.027a.5.5,0,0,1,.126-.282,1.02,1.02,0,0,0,.071-1.259m5.679,20.386.134.032q.127-.467.254-.934a2.278,2.278,0,0,1,.223-.749,2.3,2.3,0,0,0,.515-1.467,8.153,8.153,0,0,0-.039-1.5c-.192-1.071-.283-2.16-.409-3.242A1.834,1.834,0,0,1,11.44,26a.953.953,0,0,0-.277-1.027.483.483,0,0,1-.157-.483.76.76,0,0,0-.1-.457c-.084-.166-.214-.133-.3.014a.474.474,0,0,0-.073.214,1.131,1.131,0,0,1-.59.851,4.048,4.048,0,0,0-.46.514,1.347,1.347,0,0,1-.383.352c-.481.205-.545.237-.506.772.062.861.13,1.725.26,2.577a5.348,5.348,0,0,1-.269,2.664,9.3,9.3,0,0,0-.412,1.239c-.141.686-.221,1.384-.319,2.078-.029.206-.031.415-.045.622l.128.014c.033-.216.063-.433.1-.648s.08-.424.13-.689c.281.248.143.472.1.661-.095.416-.241.82-.344,1.234-.021.083.059.191.092.287a.8.8,0,0,0,.284-.125.562.562,0,0,0,.1-.29c.031-.207.037-.417.071-.623.031-.185.086-.366.131-.548a.619.619,0,0,1,.152.733c-.066.207-.141.413-.187.626-.015.067.053.152.083.228.069-.037.173-.057.2-.114.105-.228.192-.465.274-.7a3.3,3.3,0,0,0,.084-.36l.094.018c-.036.308-.053.619-.11.922a1.119,1.119,0,0,1-1.552.992c-.127-.029-.376,0-.393.058a1.022,1.022,0,0,0,.019.5c.023.1.122.174.224.309-.159.018-.257.031-.356.04a.437.437,0,0,0-.38.593c.027.052.1.121.139.115a.251.251,0,0,0,.163-.123,1.6,1.6,0,0,0,.082-.315c.365.24-.023.568.129.808a5.053,5.053,0,0,0,.773-.349,2.182,2.182,0,0,1,1.034-.416.666.666,0,0,0,.515-.563c-.235.075-.407.354-.738.221a8.319,8.319,0,0,0,.579-.7,4.722,4.722,0,0,0,.347-.7,2.012,2.012,0,0,1,.2-.482.947.947,0,0,0,.228-.678,2.473,2.473,0,0,1,.089-.669c.1-.383.235-.758.354-1.136.028-.089.055-.178.082-.266l.074.017ZM23.649,45.257c.159-.133.372-.254.057-.413-.023-.011,0-.119.007-.181.01-.123.022-.246.034-.369l-.134-.009q-.106.969-.211,1.938c0,.036,0,.094-.019.1-.283.155-.254.334.012.549a.506.506,0,0,0-.5.513.144.144,0,0,1-.044.07c-.445.478-.895.953-1.333,1.437a1.982,1.982,0,0,0-.207.379l-.519.113.016.072h2.723c-.091-.393.04-.6.427-.605.022,0,.078-.168.056-.188-.157-.138-.083-.18.063-.244s.24-.167.069-.323a.169.169,0,0,1,.006-.165,4.567,4.567,0,0,1,.4-.256,2.82,2.82,0,0,1-.851,1.765c.263.009.591.048.7-.089a6.87,6.87,0,0,0,.7-1.193,1.133,1.133,0,0,0,.163-.58.508.508,0,0,1,.17-.443c.076.162.149.328.231.49a2.661,2.661,0,0,1,.244.475c.045.17.061.378-.171.464l-.2-.212-.083.031c.222.345.305.675-.077.956a.484.484,0,0,0,.622.041.652.652,0,0,0,.212-.51,2.067,2.067,0,0,1,.244-1.258c.1-.2.171-.56.064-.685-.191-.225-.108-.309.036-.456a.885.885,0,0,0,.2-.276c.155-.394.3-.794.442-1.2a4.11,4.11,0,0,1,.1.508A1.609,1.609,0,0,1,26.8,46.78a1.541,1.541,0,0,0,2-.352c-.034.25-.069.545-.119.837-.01.056-.081.1-.119.152-.356.485-.722.964-1.056,1.463a.4.4,0,0,0,.057.372.648.648,0,0,0,.786-.448,3.654,3.654,0,0,1,.418-.895c.156-.231.416-.388.425-.712,0-.058.082-.133.144-.166a.5.5,0,0,0,.241-.479,1.241,1.241,0,0,1,.039-.308,1.309,1.309,0,0,0-.293-1.218,1.241,1.241,0,0,0-1.527-.262c-.155.082-.3.162-.47.016a.559.559,0,0,1-.077-.893.932.932,0,0,0,.206-.337.511.511,0,0,0-.037-.367.577.577,0,0,0-.9-.067,2.983,2.983,0,0,1-.914.74,3.812,3.812,0,0,0-.338.3c.085-.36.085-.36-.244-.638.147-.031.253-.089.337-.065a.477.477,0,0,0,.59-.314c.095-.2.222-.541.136-.632-.24-.254.018-.433,0-.638-.007-.069-.008-.174-.05-.2-.2-.117-.2-.293-.205-.49,0-.162-.064-.309-.275-.311-.024.546-.232.918-.488.848-.164-.045-.383-.151-.433-.284a2.573,2.573,0,0,1-.064-.73.213.213,0,0,0-.06.016c-.21.086-.177.318-.272.452-.151.214-.1.3.061.439.126.111.123.238-.011.364a.721.721,0,0,0-.087,1.124l-.284.173c.147.119.378.213.4.337.05.352-.3.248-.483.352a.993.993,0,0,0,.553-.106c.252-.173.4-.173.625.122-.279.165-.692-.009-.914.385a1.038,1.038,0,0,0,.261.039,1.455,1.455,0,0,0,.276-.087l.066.1-.576.5.025.067.53-.089-.594.468c.276.108.4-.057.541-.162a5.294,5.294,0,0,0,.4-.369l.383-.362.045.049L24.31,45.78c-.068-.06-.039-.029-.007-.027.055,0,.131.013.165-.017.366-.334.725-.675,1.086-1.014a6.521,6.521,0,0,1-.539.774c-.177.21-.395.384-.583.585a.218.218,0,0,0,.024.366.229.229,0,0,0,.362-.081c.032-.047.055-.1.086-.148q.378-.571.757-1.141c-.24.564-.534,1.092-.82,1.624a.792.792,0,0,0-.045.23.787.787,0,0,0,.264-.008.382.382,0,0,0,.182-.172c.135-.26.256-.527.381-.792.093-.2.182-.4.273-.6l.067.028a4.679,4.679,0,0,1-.22.848c-.232.5-.457,1.038-1.09,1.09a2.85,2.85,0,0,1-.611-1.057l-.339-.053.163-.352c-.206-.091-.2-.088-.031-.309.027-.034.005-.127-.023-.176s-.093-.075-.163-.126m4.642-5.606c.306-.256.286-.528-.041-.691a1.078,1.078,0,0,1-.717-.968c-.009-.217-.02-.585-.451-.46A.118.118,0,0,1,27,37.51c-.34-.213-.687-.426-.775-.861a19.312,19.312,0,0,1-.4-2.174,19.4,19.4,0,0,1,.024-2.307,3.336,3.336,0,0,0-.008-1.208.4.4,0,0,1,.043-.32.832.832,0,0,0,.124-.651c-.053-.68-.08-1.362-.163-2.038a1.684,1.684,0,0,0-.732-1.437.766.766,0,0,1-.3-.291,1.925,1.925,0,0,0-.751-.717,1.751,1.751,0,0,1-.291-.3c-.056-.061-.108-.126-.162-.19-.029.084-.1.181-.08.248.1.318-.039.7.246.971a.222.222,0,0,1,.027.186,6.834,6.834,0,0,0-.221,2.22,4.587,4.587,0,0,1-.107.662c-.037.317-.061.636-.082.954a2.093,2.093,0,0,1-.031.64,1.925,1.925,0,0,0,.082,1.6c.1.233.166.479.252.718a2.1,2.1,0,0,0,.276.677,1.49,1.49,0,0,1,.377.746.245.245,0,0,0,.077.149c.2.137.173.339.182.539a2.449,2.449,0,0,0,.069.47c.037.15.146.295.143.44a1.208,1.208,0,0,0,.312.992.628.628,0,0,1,.162.3A4.263,4.263,0,0,0,26,38.806a1.825,1.825,0,0,0,.443.475c.271.2.509.1.542-.232.03-.3.013-.6.017-.9,0-.053.005-.107.009-.167a1.038,1.038,0,0,1,.432,1.1c-.062.159-.107.315.009.411.167-.146.3-.353.454-.379.38-.062.274.339.389.537m-11.428-.508c.569,0,1.2-.01,1.833.005.222.005.28-.116.319-.284A1.012,1.012,0,0,0,18.877,38a.927.927,0,0,1-.163-.938,5.685,5.685,0,0,0,.55-2.039,5.432,5.432,0,0,0-.183-1.7,11.618,11.618,0,0,1-.4-2.087c-.067-.9-.008-1.8-.011-2.706,0-.209-.033-.419-.056-.691-.258.2-.407.109-.591,0a1.084,1.084,0,0,0-.507-.048,2.789,2.789,0,0,0-.475.04c-.077.013-.2.059-.209.109a4.228,4.228,0,0,0-.159.975c.022.968.1,1.935.131,2.9a1.877,1.877,0,0,1-.105.722,4.936,4.936,0,0,0-.316,2.6,7.014,7.014,0,0,1,.052,1.58,1.249,1.249,0,0,0,.089.6.838.838,0,0,1,.053.682.515.515,0,0,0-.016.292c.083.269.189.531.305.846M14.386,4.411,14.3,4.294c.355-.288.69-.605,1.069-.855A1.193,1.193,0,0,1,16.7,3.385a1.482,1.482,0,0,1,.648,1.894,1.6,1.6,0,0,0-.06.16c-.113.354-.043.47.315.548.051.011.09.068.141.087a1.259,1.259,0,0,0,.343.1.786.786,0,0,0,.778-.308c.147-.262-.043-.522-.211-.752a.6.6,0,0,1,0-.876,4.272,4.272,0,0,1,.281-.359A1.35,1.35,0,0,1,21.26,4c.1.147.183.3.274.45l-.076.052c-.2-.195-.4-.4-.615-.582a.842.842,0,0,0-.937-.237A1.421,1.421,0,0,0,19.035,4.8a.478.478,0,0,0,.415.575,2.509,2.509,0,0,0,1.39-.213l.77-.285.059.115-1.179.723c.162.269.326.545.492.82a1.681,1.681,0,0,0,.141.214c.181.216.318.193.492-.033a2.35,2.35,0,0,1,.428-.409c.448-.346.527-.643.187-1.088a1.777,1.777,0,0,1-.32-.833A1.861,1.861,0,0,0,20.8,2.9a11.31,11.31,0,0,0-1.59-.512c-.244-.065-.348-.19-.327-.412a1.194,1.194,0,0,1,.145-.425.842.842,0,0,0-.019-.795.264.264,0,0,0-.492-.043.958.958,0,0,0-.035,1.069.572.572,0,0,1,.053.4c-.019.057-.228.057-.352.068a.961.961,0,0,1-.235-.052,1.331,1.331,0,0,0,.16-1.236c-.021-.089-.141-.227-.2-.219-.124.016-.319.1-.338.18a1.743,1.743,0,0,0,.014.628,6.918,6.918,0,0,0,.179.681l-.772.069a3.5,3.5,0,0,0,.149-.464,2.7,2.7,0,0,0,.079-.8.458.458,0,0,0-.665-.3c-.26.1-.2.341-.166.541a1.046,1.046,0,0,0,.175.32,3.257,3.257,0,0,1,.192.281c.135.277.039.426-.249.515-.666.206-1.328.423-1.983.662a1.051,1.051,0,0,0-.713,1.269A.708.708,0,0,1,13.554,5a.732.732,0,0,0-.008,1.171c.159.162.344.3.517.447a.757.757,0,0,1,.044,1.1c-.336.328-.35.471-.087.852a.353.353,0,0,1,.014.485.648.648,0,0,0,.405,1.033c.249.061.521.091.644.4.053.133.216.221.329.329a1.654,1.654,0,0,0,.16-.589c-.012-.112-.233-.22-.379-.293a2.571,2.571,0,0,0-.434-.119c-.335-.1-.411-.208-.383-.558.006-.075.023-.15.033-.225.047-.333.114-.668-.269-.877-.044-.024-.036-.142-.052-.217l.075-.016.479.4.077-.06a2.307,2.307,0,0,0-.1-.6.727.727,0,0,1,.154-.82,1.183,1.183,0,0,0,.23-.308c.153-.263.3-.531.441-.8L14,4.964a3.413,3.413,0,0,1,.714.087c.395.08.785.186,1.183.238a.72.72,0,0,0,.781-.51.821.821,0,0,0-.377-1,1,1,0,0,0-1.21.147c-.223.178-.471.324-.707.485M8.672,46.356a6.885,6.885,0,0,0,.94.561,6.7,6.7,0,0,0,1.042.248.357.357,0,0,1,.108.037,3.928,3.928,0,0,1,1.522,1.151c.177.289.4.541.16.893-.006.009.012.034.045.122.163-.065.405-.086.471-.206a.924.924,0,0,0,0-.562.821.821,0,0,0-.2-.34.456.456,0,0,0-.253-.167c-.233-.025-.3-.1-.159-.305s.055-.318-.148-.387c-.1-.033-.2-.054-.3-.09-.564-.213-.784-.738-1.075-1.2a.142.142,0,0,1-.007-.084.876.876,0,0,0-.248-.828c.187-.033.332-.055.474-.085a6.224,6.224,0,0,0,.934-.213c.149-.056.349-.252.346-.38-.006-.241.216-.487,0-.726-.013-.014.008-.085.033-.1.22-.15.191-.318.017-.495l.215-.194-.168-.229a.441.441,0,0,1,.071-.079c.411-.246.415-.248.1-.632-.117-.144-.036-.215.069-.3a2.064,2.064,0,0,0,.352-.321c.044-.057.009-.176.01-.267a.807.807,0,0,0-.262.107,4.226,4.226,0,0,1-.393.43c-.454.316-.427.9-.754,1.288-.051.06,0,.22.024.329a2.434,2.434,0,0,0,.12.319.866.866,0,0,1-.145.9.7.7,0,0,1-.97.081c-.041-.024-.079-.054-.12-.078a1.261,1.261,0,0,0-1.251-.084c-.1.049-.252.154-.3.119a1.739,1.739,0,0,0-.894-.206c-.033,0-.061-.06-.125-.128a1.452,1.452,0,0,0,.306-.106.774.774,0,0,0,.155-.191l-.057-.043-.425.16c.049-.264.444-.325.29-.656a1.513,1.513,0,0,1-.218.083,1.674,1.674,0,0,1-.236.018,1,1,0,0,1,.095-.244,2.485,2.485,0,0,1,.252-.263l-.043-.065H7.723c.183-.384.183-.384.068-.483l-.183.232-.091-.014a.663.663,0,0,1,.006-.242c.036-.083.135-.14.171-.223a.916.916,0,0,0,.006-.293l-.323.214.228-.768-.322.087-.069-.417-.384.425a1.358,1.358,0,0,1,.006-.409c0-.093-.041-.263-.078-.267a2.251,2.251,0,0,0-.8-.016c-.4.109-.546.507-.667.852a5.054,5.054,0,0,0-.136.935.545.545,0,0,1-.073.178.554.554,0,0,0,.112.722c.139.124.229.12.271-.082a1.015,1.015,0,0,1,.109-.345.685.685,0,0,0,0-.839,1.886,1.886,0,0,1-.115-.259c.258,0,.335.113.346.3a1.654,1.654,0,0,0,.054.535,1.545,1.545,0,0,1-.117,1.194c-.139.39-.075.635.367.775-.11.175-.2.344-.314.5a1.109,1.109,0,0,0-.027,1.3c.15.21.115.337-.122.444-.2.089-.4.173-.6.267-.176.084-.192.239-.17.411a1.538,1.538,0,0,1,.02.378c-.081.638.472,1.243,1.032,1.065-.1-.23-.129-.5-.473-.516-.054,0-.125-.137-.145-.221a3.516,3.516,0,0,1-.11-.675.455.455,0,0,1,.154-.3.5.5,0,0,1,.272-.063,1.6,1.6,0,0,0,1.154-.7c.2-.266.068-.529.077-.8,0-.021.021-.041.03-.057a3.788,3.788,0,0,0,.38.5,3.987,3.987,0,0,0,.662.511.722.722,0,0,0,.485.119c.1-.025.158-.24.225-.375a.639.639,0,0,0,.031-.172M15.3,36.04a.923.923,0,0,0,.229-.958c-.129-.591-.276-1.178-.414-1.768,0-.013.017-.032.033-.06.32-.042.232.317.456.48a2.693,2.693,0,0,0-.139-.692,5.594,5.594,0,0,1-.613-2.109,6.278,6.278,0,0,1,.08-2.35,4.361,4.361,0,0,0,.089-1.344.912.912,0,0,0-.161-.534c-.428-.509-.824-1.107-1.646-.929a.11.11,0,0,1-.057,0c-.312-.109-.435.1-.526.33a1.856,1.856,0,0,0-.029,1.151,6.041,6.041,0,0,1,.148.665c.081.63.132,1.264.221,1.893.065.459.222.909.248,1.368.046.8.022,1.6.027,2.394,0,.72.009,1.441.007,2.161,0,.166-.028.332-.045.513l-.287-.337c-.064.132-.128.263-.19.4a.25.25,0,0,0-.016.084c-.017.2.064.273.254.195a.908.908,0,0,0,.56-.735c.048-.27.078-.544.116-.816a2.2,2.2,0,0,1-.581,2.039c-.336-.226-.377-.208-.455.2L12.6,37.3c-.07.374-.069.364.3.391.084.006.234.113.229.162a6.653,6.653,0,0,1-.145.795c-.01.043-.067.076-.141.156,0-.119.006-.183,0-.245a.669.669,0,0,0-.5-.484.44.44,0,0,0-.473.372,1.791,1.791,0,0,0-.041.59c.009.081.138.162.229.216a.2.2,0,0,0,.171-.037.491.491,0,0,0-.019-.287.57.57,0,0,1,.035-.667.238.238,0,0,1,.229-.044c.305.215.343.38.2.746-.054.139-.032.262.123.285.11.016.272.085.311-.132a11.544,11.544,0,0,0,.231-1.227,2.042,2.042,0,0,1,.445-1.119,1.879,1.879,0,0,0,.395-1.357c-.019-.221,0-.444,0-.666l.087-.011.252,1.413c.7-.37.222-.948.3-1.407l.077-.016.407,1.31m7.448,2.512a1.7,1.7,0,0,1,.006-.452c.158-.535.106-.689-.367-.943a.831.831,0,0,1-.26-1.164.817.817,0,0,0,.081-.381,1.886,1.886,0,0,0-.027-.364,5.183,5.183,0,0,0-.106-.725c-.2-.713-.443-1.413-.61-2.131a1.95,1.95,0,0,1,.036-.944,21.186,21.186,0,0,0,.834-3.131,4.4,4.4,0,0,0,.151-1.685c-.079-.313-.169-.624-.232-.94-.033-.165.009-.342-.218-.409a.5.5,0,0,0-.572.118,3.725,3.725,0,0,1-.45.475,1.6,1.6,0,0,1-.559.3c-.381.1-.44.108-.323.483a5.344,5.344,0,0,1,.143,1.747,26.609,26.609,0,0,1-.077,2.7c-.161,1.3-.435,2.581-.671,3.868a1.283,1.283,0,0,0,.1.937.636.636,0,0,1-.048.691,3.521,3.521,0,0,0-.307.93c-.021.088.089.207.139.311l.1-.04c0-.234-.078-.508.015-.7a4.636,4.636,0,0,0,.3-1.673c.1-1,.345-1.979.528-2.967.042-.224.084-.448.126-.672a4.168,4.168,0,0,1,.142,1.084,5.321,5.321,0,0,0,.519,2.7c.156.293.05.735.134,1.112.049.221.087.354.306.391.305.052.554.146.516.532a.213.213,0,0,0,.068.152.957.957,0,0,1,.261.986.821.821,0,0,0,0,.159l.226-.135.185.418.247-.031c-.033-.119-.055-.22-.09-.316-.059-.16-.063-.34.114-.369.085-.014.216.166.3.278.037.049.007.148.007.224s0,.171,0,.329c.239-.224.12-.41.1-.579-.025-.194-.094-.4-.311-.424-.113-.011-.239.12-.451.239m10.034-29-.059.063a1.259,1.259,0,0,1,.156.178.967.967,0,0,1,.193.392c.007.19.076.224.237.223.439,0,.809.106.949.6.023.082.145.2.211.191a.4.4,0,0,0,.253-.187.844.844,0,0,0-.167-1.043A1.944,1.944,0,0,1,33.7,8.3a1.421,1.421,0,0,0-.38-.805c-.1-.128-.369-.124-.562-.181a.693.693,0,0,1-.076-.035c-.425-.185-.842-.393-1.278-.549-.367-.132-.736-.145-.957.258a.675.675,0,0,1-.489.4.343.343,0,0,0-.2.257,1.368,1.368,0,0,0,.1.519c.124.33.282.389.589.252a.987.987,0,0,1,1.178.673c-.2-.035-.381-.072-.559-.1a4.467,4.467,0,0,0-.921-.1c-.437.035-.535.278-.407.707a2.924,2.924,0,0,1,.058.663c.005.09-.033.246-.005.258a.641.641,0,0,0,.324.033c.318-.047.633-.111.992-.176-.182.191-.338.341-.478.5a.749.749,0,0,1-.867.313c-.169-.055-.234.067-.231.231.009.387.034.776.013,1.162a1.007,1.007,0,0,0,.7,1.151.732.732,0,0,1,.481.56c.115.515.443.639.9.365.172-.1.188-.2.094-.367a1.612,1.612,0,0,1-.221-.546c-.058-.443-.04-.443-.5-.443a2.546,2.546,0,0,1-.426-.028A.735.735,0,0,1,30,12.849a.457.457,0,0,1,.315-.688c.244-.036.265-.178.325-.353a11.726,11.726,0,0,1,.435-1.1.578.578,0,0,1,.953-.134,3.173,3.173,0,0,1,.578.663,5.841,5.841,0,0,1,.343.924l-.114.057-.753-1.03-.069.049a9.53,9.53,0,0,0,.935,1.411l.323-.057-.373-1.3.7.865.126-.067a.8.8,0,0,0-.078-.28c-.144-.187-.311-.357-.472-.531-.107-.116-.185-.228.043-.355l1.019.889a.5.5,0,0,0-.157-.592,1.543,1.543,0,0,0-1.263-.544c-.165.009-.337.019-.292-.248.088-.525.08-.523-.393-.808-.526-.318-.578-.215-.157-.763.288-.375.579-.749.879-1.115.042-.052.189-.1.2-.08a2.712,2.712,0,0,1,.4.594,1.6,1.6,0,0,1,.047.564.324.324,0,0,1-.067.2.509.509,0,0,0-.12.646c.023.04,0,.1,0,.157-.061,0-.135.019-.18-.009-.126-.078-.241-.175-.36-.265m-28.851.74a2.969,2.969,0,0,0,.95,1.283.612.612,0,0,1,.2.616c-.024.26-.338.444-.182.744.005.01-.015.033-.024.049a.846.846,0,0,1-.936.468.279.279,0,0,0-.219.086,1.186,1.186,0,0,0-.275.977c.551.18.806-.162,1-.668L4.6,14.2c.16-.444.35-.81.8-.909.25-.055.292-.193.249-.409a1.3,1.3,0,0,1,.216-1.08.6.6,0,0,0-.009-.5,2.061,2.061,0,0,1-.028-1.683c.066-.179.25-.377-.085-.5C5.7,9.1,5.7,8.976,5.66,8.911a1.9,1.9,0,0,0-.277-.445,1.077,1.077,0,0,0-.876-.253c-.148.01-.3,0-.447,0L4.049,8.11c.051-.025.1-.076.152-.071a1.452,1.452,0,0,0,1.187-.358c.111-.1.3-.233.285-.321a.688.688,0,0,0-.291-.443,3.081,3.081,0,0,1-1.141-.769.194.194,0,0,0-.362.047,1.186,1.186,0,0,1-1.049.7,1.223,1.223,0,0,0-1,1.274.853.853,0,0,1-.075.348c-.08.187-.181.365-.279.543-.042.075-.085.183-.151.206a1.379,1.379,0,0,0-.812.93.449.449,0,0,0,.272.626.525.525,0,0,0,.664-.338,1.058,1.058,0,0,1,.723-.9A.537.537,0,0,0,2.472,9a.367.367,0,0,0-.319-.4c-.059-.012-.131-.119-.142-.191-.059-.389.326-1.056.848-.875a3.981,3.981,0,0,1,.958.691c.006,0-.007.034-.017.077-.1.012-.213.023-.323.039-.616.085-.782.26-.805.877a.562.562,0,0,1-.254.477c-.16.113-.3.254-.449.383l.066.1c.15-.065.3-.128.451-.2a8.322,8.322,0,0,1,1.022-.468.929.929,0,0,1,.952.161l-.273.221A.878.878,0,0,0,5.3,9.494c.176.244.061.4-.064.544-.375.438-.654.492-1.309.253M26.143,6.125a.6.6,0,0,1-.233.79,2.844,2.844,0,0,1-.747.246.663.663,0,0,0-.453.3.739.739,0,0,1-.39.278c-.241.055-.259.18-.164.345a1.059,1.059,0,0,0,.3.328c.235.163.39.088.382-.194-.007-.229.122-.306.293-.353a1.17,1.17,0,0,1,.311-.02A.975.975,0,0,0,26.5,6.752c0-.133-.032-.265-.036-.4a2.8,2.8,0,0,1,.021-.3c.3.128.4.347.283.57-.144.284,0,.5.342.53l.131-.415.121.018a1.044,1.044,0,0,1-.009.417,5.517,5.517,0,0,1-.476.77,1.311,1.311,0,0,0-.284.874.33.33,0,0,0,.4.314c.1-.01.279-.157.277-.238-.02-.647.2-.867.932-1.049.352-.087.607-.191.613-.6,0-.006.031-.011.059-.02l.214.359a2.578,2.578,0,0,0,.12-.374c.085-.625.082-.626.715-.556l.028,0a.454.454,0,0,0,.559-.276,1.212,1.212,0,0,0,.075-.9l-.446.184.125-.5-.1-.045a.721.721,0,0,1-.662.5l.144-.212a.546.546,0,0,0-.16-.873,1.868,1.868,0,0,0-.632-.23,1.575,1.575,0,0,0-1.9,1.261,1.518,1.518,0,0,1-.087.239c-.267-.035-.483-.066-.7-.091s-.447-.119-.616-.047a3.083,3.083,0,0,0-1.36,1.085.649.649,0,0,0-.111.317.364.364,0,0,0,.095.271c.047.039.186.011.257-.032.153-.094.281-.227.432-.324a2.1,2.1,0,0,1,.614-.336c.312-.071.648-.049.665-.52M5.62,5.13A.759.759,0,0,1,5.5,5.052a.5.5,0,0,0-.6-.129.578.578,0,0,0-.344.574.809.809,0,0,0,.78.824,2.413,2.413,0,0,1,.7.214c.5.256.545.583.168,1-.117.131-.249.248-.377.375a.813.813,0,0,0,1.018-.374,1.309,1.309,0,0,0,.168-.7A1.163,1.163,0,0,0,6.2,5.788c.489-.042.93.445,1.063,1.141a1.422,1.422,0,0,1-.046.773c-.209.5-.711.6-1.282.719a1.8,1.8,0,0,0,.275.154,4.185,4.185,0,0,1,.464.117c.395.171.419.533.074.792l-.367-.2c-.2.407.124.743.546.676a.4.4,0,0,1,.432.16.394.394,0,0,1,.051.519.833.833,0,0,0-.076.3l.077.063A1.266,1.266,0,0,0,7.73,10.8a1.037,1.037,0,0,0-.148-1.458,4.017,4.017,0,0,1-.324-.278,1.016,1.016,0,0,1-.128-.239l.082-.084c.169.1.333.22.509.31.109.056.277.136.347.092a.518.518,0,0,0,.19-.354,1.269,1.269,0,0,0-.367-.956c-.045-.052-.084-.108-.147-.191a1.7,1.7,0,0,0,.242-.029c.1-.029.2-.071.3-.108-.048-.1-.094-.2-.146-.293a.482.482,0,0,0-.079-.081c-.116-.124-.088-.213.062-.286a.894.894,0,0,0,.389-.961,2.039,2.039,0,0,1-.1-.466.685.685,0,0,0-.255-.573c-.071-.052-.086-.2-.106-.3-.036-.192-.071-.382-.292-.446a1.131,1.131,0,0,0-.985.116c-.158.1-.315.213-.467.326a.4.4,0,0,1-.6-.028c-.1-.1-.23-.214-.389-.053.056.248.54.289.31.677M7.842,40.892a2.109,2.109,0,0,1,.148.288c-.3.222-.125.5-.052.719a18.911,18.911,0,0,0,.745,1.925c.055.12.362.152.558.173s.471-.1.631-.014a3.025,3.025,0,0,0,1.336.366.29.29,0,0,0,.22-.118.45.45,0,0,0-.2-.561.289.289,0,0,1-.082-.2c-.007-.068.048-.147.031-.208a1.48,1.48,0,0,0-.138-.276c.028-.031.038-.053.053-.058.4-.118.481-.283.347-.685a.17.17,0,0,1,.045-.151c.167-.122.344-.23.5-.334l-.077-.23c.051-.017.111-.06.152-.046.333.117.407-.144.53-.311l-.275-.219.269-.171a1.26,1.26,0,0,0-.276-.093,4.665,4.665,0,0,0-.738-.042c-.632.035-1.263.1-1.9.138-.313.02-.629,0-.942.019s-.618.059-.9.087m5.2,3.9A4.77,4.77,0,0,0,14.689,48.4a4.941,4.941,0,0,0,8.168-4.433,4.659,4.659,0,0,0-1.562-2.929A4.942,4.942,0,0,0,13.04,44.8M21.424,1.716a1.989,1.989,0,0,0-.481.007.515.515,0,0,0-.434.467.462.462,0,0,0,.359.487,2.748,2.748,0,0,0,.542.16.821.821,0,0,1,.759,1.013c-.013.065-.018.132-.036.2a.891.891,0,0,0,.208.921,5.668,5.668,0,0,1,.415.612.867.867,0,0,1,.116.789,5.867,5.867,0,0,1-.336.712c-.2.424-.481.843-.058,1.3.052.056.054.159.1.307-.1-.057-.134-.073-.163-.092-.092-.061-.183-.124-.275-.186a2.394,2.394,0,0,0-.179.369.456.456,0,0,0,.035.25c.1.3.194.607.323.9a1.118,1.118,0,0,0,.3.367c.157.133.29.053.293-.127a4.342,4.342,0,0,0-.08-.725,1.887,1.887,0,0,0-.1-.3l.085-.046a3.521,3.521,0,0,0,.241.352.936.936,0,0,0,.22.145,1.181,1.181,0,0,0,.058-.318,1.268,1.268,0,0,0-.132-.322l.3.035c.071-.261.142-.5.2-.746a.3.3,0,0,0-.022-.22.894.894,0,0,1-.076-.84c.042-.178.072-.4-.149-.5-.289-.128-.254-.295-.125-.521a1,1,0,0,0-.194-1.383.588.588,0,0,1-.11-.13c-.267-.365-.267-.366-.721-.363a2.55,2.55,0,0,1,.2-.246.91.91,0,0,0,.31-.923c-.094-.336-.406-.588-.4-.981,0-.057-.179-.147-.286-.168-.068-.013-.212.063-.222.117a.482.482,0,0,0,.074.308c.079.128.215.222.283.353a1.011,1.011,0,0,1,.043.348l-.256-.169c-.164-.11-.327-.307-.493-.31-.216,0-.36-.023-.475-.251.1-.067.194-.138.3-.2.154-.093.322-.167.467-.271a.588.588,0,0,0,.294-.6c-.053-.263-.28-.3-.5-.335C21.594.941,21.55.913,21.5.91a1.255,1.255,0,0,0-1.389.787c-.035.107.047.253.075.38a2.437,2.437,0,0,0,.263-.21.787.787,0,0,0,.109-.2.582.582,0,0,1,.586-.317c.232.005.306.139.274.364M8.444,15.447l.07-.09c.066.026.133.048.2.077a.621.621,0,0,0,.758-.095.755.755,0,0,0,.105-.871c-.1-.189-.182-.391-.28-.583-.027-.053-.088-.13-.129-.127a1.07,1.07,0,0,1-.844-.457c-.149-.151-.269-.1-.323.1a1.053,1.053,0,0,0,.552,1.172,1.142,1.142,0,0,1,.284.184.291.291,0,0,1,.087.2c0,.066-.05.179-.092.187a.63.63,0,0,1-.287-.043c-.151-.049-.324-.2-.442-.158-.55.175-.639.574-.248.989.084.089.185.163.278.244a1.435,1.435,0,0,1,.311.286.37.37,0,0,1,.005.324.312.312,0,0,1-.289.059,1.3,1.3,0,0,1-.307-.238c-.072-.057-.193-.173-.211-.159a1.9,1.9,0,0,0-.432.421c-.039.06.038.25.116.324.206.2.446.354.664.537a.466.466,0,0,1,.073.6c-.162.2-.334.118-.5,0-.023-.017-.046-.043-.071-.045a1.113,1.113,0,0,0-.451-.019c-.061.022-.1.253-.065.36a1.585,1.585,0,0,0,.29.471c.1.124.25.207.353.329a.546.546,0,0,1-.069.7c-.17.115-.312.025-.493-.271-.057-.092-.209-.227-.254-.206a.54.54,0,0,0-.269.285.666.666,0,0,0,.491.779c.616.16.887.432.64.99a.357.357,0,0,0,0,.132c.3-.026.456-.206.55-.568a.425.425,0,0,0-.267-.528,4.711,4.711,0,0,1-.41-.285l.008-.1a.834.834,0,0,0,.817-.532c.174-.418-.218-.623-.368-.933a1.419,1.419,0,0,0,.3-.145,3.722,3.722,0,0,0,.541-.513.316.316,0,0,0-.067-.434c-.187-.193-.346-.414-.54-.651a1.966,1.966,0,0,0,.286-.05,2.166,2.166,0,0,0,.666-.24.458.458,0,0,0,.036-.629,3.467,3.467,0,0,0-.494-.529c-.085-.086-.182-.161-.273-.241M5.677,48.365a.717.717,0,0,1,.237-.041c.049.008.129.121.122.13-.078.1-.028.107.062.133a.178.178,0,0,1,.069.16c-.12.351.131.413.365.453a4.4,4.4,0,0,0,.737.052c1.188,0,2.375-.005,3.563-.009.211,0,.432-.032.474-.27s.081-.514-.161-.678a1.022,1.022,0,0,0-.877-.259c-.195.057-.28,0-.306-.2a.291.291,0,0,0-.152-.212A3.228,3.228,0,0,0,9.2,47.54c-.4-.021-.794-.026-1.19-.044-.049,0-.138-.044-.138-.069-.006-.362-.327-.338-.537-.431-.177-.078-.32,0-.481.128a3.787,3.787,0,0,1-.882.545.474.474,0,0,0-.293.7M12.98,7.96c.156-.046.3-.048.318-.1a.86.86,0,0,0,.089-.449,1.5,1.5,0,0,0-.213-.463A1.494,1.494,0,0,1,13.2,5.282a.792.792,0,0,0,.13-.647,1.051,1.051,0,0,1,.243-.982q.321-.362.636-.73A.541.541,0,0,0,14,2.092c-.032.653-.223.853-.684.661l.257-.328-.317-.264a3.521,3.521,0,0,1,.679-.273.77.77,0,0,1,.46.133c.109.062.169.2.268.291a1,1,0,0,0,.241.119l.082-.09-.549-.751a.653.653,0,0,1,.372.187c.143.151.253.333.392.488a.816.816,0,0,0,.228.128c.025-.084.09-.18.069-.251a1.633,1.633,0,0,0-.832-1.1.443.443,0,0,0-.608.118.491.491,0,0,1-.555.2.671.671,0,0,0-.787.241.967.967,0,0,0-.049.844c.067,0,.1-.011.14-.01.094,0,.189.005.283.008a1.137,1.137,0,0,1-.168.227.457.457,0,0,0-.087.678c.46.478.268.916-.063,1.384a1.56,1.56,0,0,0-.009-.456,1.727,1.727,0,0,0-.254-.378c-.112.082-.28.142-.326.252a3.134,3.134,0,0,0-.237.845.835.835,0,0,0,.323.91,1.25,1.25,0,0,1,.58.779,1.346,1.346,0,0,1-.066.584.3.3,0,0,1-.215.035,2.643,2.643,0,0,1-.251-.507c-.062-.175-.07-.372-.143-.541a.345.345,0,0,0-.258-.133c-.053,0-.159.1-.165.158-.039.378-.169.768.183,1.094a.458.458,0,0,1-.045.718c-.071.069-.163.223-.136.265a.445.445,0,0,0,.29.171.989.989,0,0,0,.938-.565m7.338-1.887c-.019.076-.055.135-.043.18.129.474-.219.663-.522.867a.6.6,0,0,1-.7.041c-.326-.241-.571-.117-.845.072a.405.405,0,0,1-.311.024c-.314-.1-.612-.261-.93-.335-.409-.094-.537-.228-.5-.66a1.539,1.539,0,0,0,0-.4c-.014-.076-.1-.14-.152-.209-.073.074-.172.137-.209.225a.524.524,0,0,0,.017.278c.03.148.081.292.11.44a.533.533,0,0,0,.506.459,1.31,1.31,0,0,1,.389.075c.1.048.223.153.237.248s-.091.212-.175.283a2.153,2.153,0,0,1-.371.208l.045.083.865-.427c.037.267-.125.372-.29.459a2.8,2.8,0,0,1-2.007.322,1.858,1.858,0,0,0-.418,0l-.019.094c.264.081.528.163.793.242.075.022.152.035.228.052-.073.046-.144.094-.219.137-.023.013-.056.007-.084.013-.16.037-.387.028-.353.261.009.063.262.109.407.126a.654.654,0,0,0,.268-.083c.15-.057.3-.108.448-.179a3.311,3.311,0,0,0,.689-.376,9.053,9.053,0,0,0,.744-.784c.033.046.078.114.128.177.153.19.272.441.47.553a6.912,6.912,0,0,0,.963.343,1.7,1.7,0,0,0,1.858-.754c.051-.105.175-.175.265-.261.053.1.105.2.161.3.006.011.033.01.05.015.127-.226.059-.61-.146-.69-.25-.1-.309.148-.425.282a.3.3,0,0,0-.046.072.877.877,0,0,1-.607.474,2.83,2.83,0,0,1-1.63-.068,1.2,1.2,0,0,1-.858-.777,1.308,1.308,0,0,1,.357.207,2.23,2.23,0,0,0,1.948.39A.885.885,0,0,0,21,7.056c-.176.143-.328.246-.456.374A1.472,1.472,0,0,1,18.5,7.366c-.013-.015-.006-.047-.011-.093a6.6,6.6,0,0,0,.643.262,1.065,1.065,0,0,0,1.493-.712.549.549,0,0,0-.308-.75M10.088,9.757a.487.487,0,0,0,.526-.261.646.646,0,0,0-.126-.762.912.912,0,0,1-.363-.681c.053,0,.1-.012.145-.013.558-.006.712-.217.567-.765a2.314,2.314,0,0,0-.7-1.056c-.046-.045-.039-.144-.056-.218.076.007.189-.015.223.027.215.259.419.528.613.8.086.123.12.282.21.4.115.152.241.148.307-.055a.612.612,0,0,0-.148-.68,3.2,3.2,0,0,0-1.666-.913.624.624,0,0,0-.844.594.838.838,0,0,1-.036.137.587.587,0,0,0,.561.832,3.71,3.71,0,0,1,.735.067,1.273,1.273,0,0,1,.45.344c.026.026-.024.2-.06.209a2.177,2.177,0,0,1-.561.054c-.125-.007-.25-.129-.369-.12a.622.622,0,0,1-.691-.465,1.962,1.962,0,0,0-.242-.365l-.07.042c0,.052-.022.122,0,.155a.834.834,0,0,1,.064.962c-.028.056.036.184.092.251a3.386,3.386,0,0,0,.365.361,1.436,1.436,0,0,0,.375.29c.2.079.5.034.607.165s.063.425.084.659M6.223,16.708l.009-.083a1.529,1.529,0,0,1,.285-.029.692.692,0,0,0,.722-.432.807.807,0,0,0-.207-.8,4.371,4.371,0,0,1-.5-.419.549.549,0,0,1-.14-.4c.018-.092.2-.152.313-.224-.077-.086-.171-.2-.277-.308s-.236-.191-.393-.044a.935.935,0,0,0,.025,1.388,4.41,4.41,0,0,1,.545.455.435.435,0,0,1,.036.4c-.038.071-.261.105-.365.064a2.6,2.6,0,0,1-.4-.306,2.522,2.522,0,0,0-.361-.165,1.333,1.333,0,0,0,.445,1.184,2.45,2.45,0,0,1,.3.409.3.3,0,0,1-.014.274.334.334,0,0,1-.281.059.551.551,0,0,1-.234-.189,4.05,4.05,0,0,0-.337-.421.45.45,0,0,0-.332-.085c-.052.008-.122.169-.113.253a1.435,1.435,0,0,0,.142.565c.2.336.46.636.663.971a.485.485,0,0,1,.022.408.449.449,0,0,1-.345.225c-.106-.014-.2-.193-.276-.312-.032-.048.007-.145-.026-.19a.6.6,0,0,0-.242-.216c-.036-.013-.156.114-.191.2a.5.5,0,0,0,.231.678,5.293,5.293,0,0,1,.509.446c.15.137.129.275.006.423a1.888,1.888,0,0,0-.157.3c.128-.048.184-.053.212-.083a1.814,1.814,0,0,0,.345-.405c.031-.062-.129-.2-.133-.306a.6.6,0,0,1,.123-.33c.034-.05.138-.052.209-.079a.552.552,0,0,0,.179-.95,4.467,4.467,0,0,1-.4-.36A.935.935,0,0,1,5.685,18l.073-.051c.081.043.16.087.242.128a.646.646,0,0,0,.939-.264.689.689,0,0,0-.358-.835,4.11,4.11,0,0,1-.358-.272M27.4,36.826l.1-.056c-.035-.1-.066-.2-.107-.3-.132-.314-.292-.62-.4-.943-.122-.376-.161-.782-.3-1.149a2.465,2.465,0,0,1-.125-1.449,16.759,16.759,0,0,0,.413-4.153,6.048,6.048,0,0,0-.159-1.092c-.044-.193-.152-.473-.4-.387s-.123.357-.1.559a4.679,4.679,0,0,1,.1.923q-.158,2.088-.369,4.171a7.587,7.587,0,0,0,.313,3.239,1.6,1.6,0,0,0,.9,1,1.554,1.554,0,0,1-.516-1.283l.648.919m.969-18.058a1.134,1.134,0,0,0,.121-.243,1.085,1.085,0,0,1,.478-.713,2.624,2.624,0,0,0,.318-.238.411.411,0,0,0,.082-.566c-.157-.206-.36-.171-.557-.043a1.156,1.156,0,0,0-.507.694.432.432,0,0,1-.306.262.461.461,0,0,1-.325-.236.576.576,0,0,1,.161-.675c.15-.17.332-.312.486-.48a.669.669,0,0,0,.181-.311c.015-.09-.065-.2-.1-.3a1.871,1.871,0,0,0-.261.106c-.112.066-.208.2-.324.214a.608.608,0,0,0-.539.5c-.025.091-.134.158-.205.236-.071-.1-.2-.2-.2-.31a.953.953,0,0,1,.483-.85,3.5,3.5,0,0,0,.4-.272.591.591,0,0,0,.189-.659,4.562,4.562,0,0,1-.749.283,1.162,1.162,0,0,0-.63.2.166.166,0,0,1-.225-.241,4.461,4.461,0,0,1,.579-.483c.134-.092.314-.13.237-.35-.07-.2-.17-.35-.427-.334a.919.919,0,0,0-.785,1.369,1.89,1.89,0,0,0,.119.194,1.571,1.571,0,0,1,.288.786.9.9,0,0,0,.323.617,1.393,1.393,0,0,1,.605.721c.055.142.11.283.176.42.1.2.218.329.471.217.171-.076.291,0,.341.186.019.069.049.136.106.289M15.609,32.482l.106.018a1.878,1.878,0,0,0,.253-.462c.151-.682.31-1.366.393-2.057a4.918,4.918,0,0,0-.025-1.5,1.785,1.785,0,0,1,.08-1.157.72.72,0,0,0-.182-.9.473.473,0,0,0-.843.206,3.814,3.814,0,0,0-.153,1.543c.073.446.1.9.134,1.352.059.814.1,1.629.161,2.443.012.174.049.346.074.519M24.271,8.8,24.2,8.782A3.391,3.391,0,0,0,23.8,10a4.39,4.39,0,0,1-.211.689c-.059.177-.144.347-.184.527-.063.28-.073.572-.15.847a.987.987,0,0,0,.046.877,3.39,3.39,0,0,1,.508,1.754.766.766,0,0,0,.18.488,1.219,1.219,0,0,1,.423,1.114.307.307,0,0,0,.15.227c.037.021.171-.059.21-.125a9.294,9.294,0,0,0,.5-.924,2,2,0,0,0,.087-.51l-.144-.055-.649.938c-.062-.234-.119-.442-.17-.651-.01-.041-.016-.1.007-.128a2.4,2.4,0,0,0,.549-1.109.9.9,0,0,0-.051-.337c-.09.032-.2.039-.264.1a3.509,3.509,0,0,0-.343.448c-.061.089-.106.189-.167.3a.838.838,0,0,1,.087-1.018,1.627,1.627,0,0,0,.406-1.467.278.278,0,0,0-.147-.212.3.3,0,0,0-.235.11,1.359,1.359,0,0,0-.446,1.1,1.776,1.776,0,0,1,0,.288l-.12.009a3.141,3.141,0,0,1-.085-.588,1.773,1.773,0,0,1,.35-.973,1.234,1.234,0,0,0,.221-1.077l-.11-.081-.331.521-.128-.105c.107-.165.212-.33.321-.493.062-.093.176-.175.19-.273.069-.468.112-.939.164-1.409m-5.846,2.468.734.084-.351.282.019.069a2.823,2.823,0,0,1,.326-.027,1.056,1.056,0,0,0,.978-.663,2.712,2.712,0,0,0-.262-1.651,1,1,0,0,0-.236.281c-.172.251-.343.5-.522.749a1.223,1.223,0,0,1-1.358.465,2.234,2.234,0,0,1-1.264-1,5.129,5.129,0,0,0-.378-.416,3.072,3.072,0,0,0-.262,1.68.9.9,0,0,0,.079.182c.253.438.613.538,1.263.352l-.466-.2.967-.225a.351.351,0,0,1-.013.085c-.114.311-.048.41.284.4.092,0,.184-.062.274-.057.292.016.333-.115.189-.392m-9.986-.1c.036.15.066.254.087.361a.364.364,0,0,0,.431.318c.57-.041.806.135.91.7.033.178.117.279.313.231a.639.639,0,0,0,.441-.736c-.031-.373-.187-.528-.546-.55a.575.575,0,0,1-.249-.046c-.281-.167-.561-.338-.826-.529-.111-.081-.169-.234-.278-.32a.535.535,0,0,0-.354-.148c-.083.016-.138.192-.2.3a2.631,2.631,0,0,1-.2.4.394.394,0,0,0-.046.489,1.633,1.633,0,0,1,.19.659.88.88,0,0,0,.591.9c.141.056.287.1.432.147.5.165.507.184.306.65-.005.013.01.035.026.085a1.294,1.294,0,0,0,.341,0,.575.575,0,0,0,.473-.538.831.831,0,0,0-.548-.762,3.7,3.7,0,0,0-.6-.183,1.044,1.044,0,0,1-.694-1.429M28.973,43.765c-.071-.1-.2-.194-.2-.291,0-.079.151-.158.208-.211-.093-.1-.19-.161-.211-.242-.011-.043.109-.12.168-.184.029-.031.074-.072.07-.1s-.06-.057-.092-.087c-.054-.051-.106-.1-.158-.156.05-.047.1-.09.149-.14s.116-.105.113-.154c-.011-.146-.4-.322-.535-.252-.178.091-.272.036-.287-.158s-.56-.586-.7-.486c-.282.207-.324-.007-.387-.2-.244.238-.275.215-.419-.042-.049-.088-.247-.1-.382-.124-.044-.007-.152.106-.146.115.094.164-.031.438.256.516.034.009.068.2.03.261-.166.268-.136.42.107.522l.282-.165c.03.082.056.165.093.244.03.063.059.151.112.175a7.5,7.5,0,0,0,.781.3c.17.053.166.118.076.239a.61.61,0,0,0-.081.17c.2.116.165.24.034.388-.025.029,0,.107.011.162.014.125.03.25.053.445H29c-.323-.293-.322-.323-.032-.544m-9.5-12,.1,0a1.748,1.748,0,0,0,.126-.349c.128-.927.25-1.854.361-2.783a.9.9,0,0,0-.075-.351,5.433,5.433,0,0,1-.221-.667c-.039-.221,0-.455-.021-.681-.008-.084-.08-.213-.148-.231a.7.7,0,0,0-.789.708c.092.942.165,1.886.3,2.823a14.853,14.853,0,0,0,.372,1.528M27.88,11.739c-.13-.069-.238-.122-.34-.184-.228-.138-.231-.267.01-.384a2.63,2.63,0,0,1,.611-.214c.393-.081.8-.178.946-.584a7.32,7.32,0,0,0,.234-1.145c-.42-.073-.662.1-.713.47-.026.19-.143.215-.244.1a.448.448,0,0,1-.112-.367,1.723,1.723,0,0,1,.876-.915.592.592,0,0,0,.221-.378c.019-.083-.077-.273-.129-.275a.486.486,0,0,0-.363.122,2.131,2.131,0,0,1-1.094.681c-.2.063-.289.182-.213.382a5.911,5.911,0,0,0,.349.8c.047.084.213.112.33.143.16.043.327.065.5.1a.8.8,0,0,1-1.179.234c-.19-.163-.345-.144-.424.07a4.372,4.372,0,0,0-.267.975c-.035.286.18.468.444.555a.428.428,0,0,0,.553-.188M20.666,38.048a.965.965,0,0,1,.459.875c-.007.062.005.159.046.187a1.733,1.733,0,0,0,.316.142,1.292,1.292,0,0,0,.035-.295c-.005-.056-.1-.1-.111-.159-.019-.118-.048-.323,0-.346a.809.809,0,0,1,.469-.073c.057.01.109.215.109.331,0,.094-.1.183-.123.282a.807.807,0,0,0,.021.252c.079-.046.2-.075.228-.143a1.3,1.3,0,0,0,.113-.493c0-.373-.18-.516-.566-.507-.106,0-.212,0-.4,0a1.737,1.737,0,0,0,.263-.334.739.739,0,0,0,.056-.389c-.013-.068-.186-.174-.232-.152a.623.623,0,0,0-.223.26c-.087.154-.154.319-.23.479l-.091-.02c-.1-.286-.3-.567-.178-.88a4.119,4.119,0,0,0,.03-1.921c-.021-.251-.066-.5-.1-.75-.025-.165-.057-.329-.086-.494l-.1.011a3.018,3.018,0,0,0-.125,1.762,1.1,1.1,0,0,1,0,.443,3.234,3.234,0,0,0-.055.577,6.214,6.214,0,0,0,.176.687,2.208,2.208,0,0,1,.028.329l-.058.007-.318-.453c-.226.23-.218.325-.077.524a.387.387,0,0,1,.038.342,1.341,1.341,0,0,0-.133.938c.009.069.107.125.163.188a.932.932,0,0,0,.11-.256c.009-.079-.07-.17-.055-.245.024-.122.067-.309.147-.337.186-.065.258.1.281.263.018.133.033.266.055.451.1-.088.187-.132.185-.172-.012-.306-.041-.61-.065-.909M19.412,21.957c.1.023.153.056.2.045a.485.485,0,0,0,.383-.469.4.4,0,0,0-.291-.473,1.137,1.137,0,0,1-.6-.49.773.773,0,0,0-.575-.548.965.965,0,0,1-.748-.867c-.018-.145-.06-.286-.092-.433a2.525,2.525,0,0,1-.374.134c-.171.031-.353.016-.519.063a.275.275,0,0,0-.139.231.483.483,0,0,1-.278.648c-.094.053-.216.122-.244.21a6.045,6.045,0,0,0-.192.831.441.441,0,0,0,.233.507c.13.064.294.106.3-.134a1.438,1.438,0,0,1,.592-1.055,1.274,1.274,0,0,0,.231-.48.74.74,0,0,0,.019-.211l.065-.032c.074.11.156.215.219.331.156.285.286.587.463.858a.931.931,0,0,0,.368.251,8.487,8.487,0,0,1,.811.391.469.469,0,0,1,.175.693M5.976,10.195a1.035,1.035,0,0,0,.05.285c.2.354.294.783.715.988.107.052.167.2.249.3a2.517,2.517,0,0,0,.268.329.548.548,0,0,1-.127.9,1.894,1.894,0,0,0-.019-.253.473.473,0,0,0-.083-.22,2.9,2.9,0,0,0-.42-.383,1.785,1.785,0,0,0-.363-.157,1.261,1.261,0,0,0-.148.406,1.124,1.124,0,0,0,.447.8c.166.156.333.31.493.473a.471.471,0,0,1,.108.574c-.1.206-.218.406-.328.609a.705.705,0,0,0,.956-.235.756.756,0,0,0,.077-.809,3.758,3.758,0,0,0-.593-.594.747.747,0,0,0,.6-.887c-.056-.321-.051-.662-.437-.85-.162-.079-.234-.341-.35-.519-.062-.1-.134-.271-.192-.267A.727.727,0,0,1,6.2,10.3c-.03-.043-.106-.055-.221-.11M22.111,32.756l.093.026a5.286,5.286,0,0,0,.671-1.693c.1-.674.137-1.357.229-2.032a7.9,7.9,0,0,0,.011-2.608,2.113,2.113,0,0,0-.143-.363l-.106.013a6.841,6.841,0,0,0-.154.68,10.761,10.761,0,0,1-.394,3c-.027.063,0,.15,0,.226a2.527,2.527,0,0,1-.01.339c-.063.441-.154.879-.194,1.322-.032.362-.007.729-.007,1.093M10.437,14.175a.919.919,0,0,0-.134.091,2.647,2.647,0,0,0-.154,1.635c.034.055.119.088.132.143a.518.518,0,0,1-.013.268.189.189,0,0,1-.168.035.578.578,0,0,1-.15-.25c-.031-.125-.026-.254-.212-.226-.163.024-.276.1-.25.277a1.094,1.094,0,0,0,.109.4c.131.219.3.413.445.625.164.244.109.315-.18.353a3.133,3.133,0,0,0-.565.183,3.5,3.5,0,0,0,.252.484c.272.372.276.431.009.794-.047.064-.083.2-.049.246a.361.361,0,0,0,.26.131c.061,0,.15-.1.176-.173.046-.131.011-.306.085-.409a1.56,1.56,0,0,0,.186-.871,4.614,4.614,0,0,1,.217-.8c.037-.132.133-.292.091-.394-.142-.352.082-.6.23-.836.228-.373.259-.452-.036-.783a.822.822,0,0,1-.252-.721.8.8,0,0,0-.029-.2M11.667,46.6l-.03.05c.084.126.141.307.259.366a1.654,1.654,0,0,0,.645.154c.184.009.2.077.2.224a.832.832,0,0,0,.051.395c.148.274.331.529.466.739l.335.061a1.9,1.9,0,0,0-.111.242.5.5,0,0,0-.035.256.237.237,0,0,0,.167.146c.26,0,.521-.025.8-.042-.384-.595-.742-1.151-1.1-1.7a.32.32,0,0,0-.146-.106,2.4,2.4,0,0,0-.267-.074l.1-.3-.164-.292a1.6,1.6,0,0,1-.318-.007c-.027-.006-.063-.125-.045-.144a2.052,2.052,0,0,1,.284-.207,2.409,2.409,0,0,1-.239-.1c-.064-.035-.172-.092-.168-.129.007-.068.077-.135.132-.191.026-.026.078-.026.132-.042-.353-.331-.361-.376-.107-.537a3.671,3.671,0,0,0-.705-.032c-.5.024-.572.123-.471.609a.605.605,0,0,0,.038.111l.344.085-.265.249.231.217m6.372-30.464a.494.494,0,0,1-.346.639c-.046.017-.085.148-.071.215a.678.678,0,0,0,.4.542,8.273,8.273,0,0,1,.859.441.646.646,0,0,1,.4.74.342.342,0,0,0,.186.277c.243.07.556-.222.7-.6.1-.281-.074-.422-.287-.5a1.347,1.347,0,0,1-.721-.754,2.592,2.592,0,0,0-1.118-1M31.284,48.2h.1a12.418,12.418,0,0,0-.105-6.509l-.141,0,.15,6.507M12.34,10.734l-.1.069a4.038,4.038,0,0,0,.355.579,2.745,2.745,0,0,1,.842,1.472c.01.092.2.2.325.234a.269.269,0,0,0,.336-.262.641.641,0,0,1,.488-.586.463.463,0,0,0,.288-.649l-.408.292-.057-.505c-.352-.027-.2.359-.463.466-.047-.3-.079-.587-.14-.864-.021-.095-.114-.174-.174-.26a1.153,1.153,0,0,0-.273.2,2.988,2.988,0,0,0-.227.431l-.788-.617m9.3.881-.085.006L21.38,11.3l-.05.018.126.638-.1.083a1.9,1.9,0,0,0-.136-.247,1.39,1.39,0,0,0-.183-.173l-.069.036a.863.863,0,0,0,.025.289,4.2,4.2,0,0,0,.266.437c.253.407.249.459-.06.756.264.183.487.121.684-.211.16-.27.292-.557.656-.607.043-.006.091-.071.112-.12a7.878,7.878,0,0,0,.312-.762c.176-.556-.234-.874-.621-1.066-.056-.028-.161.043-.243.069a1.042,1.042,0,0,0,.124.188,3.351,3.351,0,0,0,.266.218l-.032.073-.429-.026c.213.922.208,1.126-.046,1.315a1.875,1.875,0,0,0-.261-1.2l-.076.611M11.316,36.631c.291-.031.552-.047.807-.093.074-.013.148-.1.2-.176a4.043,4.043,0,0,0,.351-.58,1.093,1.093,0,0,0,.081-.894,3.4,3.4,0,0,1-.252-1.005c-.035-.594.005-1.193.008-1.79,0-.142-.021-.284-.032-.425l-.1-.006a2.168,2.168,0,0,0-.082.392c-.008.275.022.551.01.826a4.156,4.156,0,0,1-.09.7c-.1.443-.214.881-.317,1.323-.064.274-.092.56-.183.824-.109.317-.266.618-.4.91M23.37,34.45l.024-.007c-.062-.315-.111-.633-.193-.943-.028-.1-.139-.186-.212-.279a1.726,1.726,0,0,0-.242.28.732.732,0,0,0-.086.328q-.024,1.037-.027,2.075a2.408,2.408,0,0,0,.05.453.577.577,0,0,0,.62.381c.282-.044.157-.271.154-.411-.015-.626-.056-1.251-.088-1.877m6.8,14.318.109-.008c.029-.462.077-.924.082-1.386.013-1.244.021-2.487,0-3.731a4.67,4.67,0,0,0-.353-2.072,65.229,65.229,0,0,0,.158,7.2M13.119,8.649c-.28.149-.526.388-.767.382-.364-.009-.376.151-.39.409a.668.668,0,0,0,.258.6,1.58,1.58,0,0,1,.433.436.364.364,0,0,0,.405.215.6.6,0,0,0,.579-.562c.058-.306.114-.612.166-.919.026-.156.022-.3-.226-.371l-.122.743-.1-.01c-.119-.31.04-.714-.24-.92m12.213,13.8c-.19-.591-.166-.667.292-1.029a1.069,1.069,0,0,0,.323-1.183,4.973,4.973,0,0,1-.154-.494c-.032-.093-.062-.225-.13-.255s-.2.035-.262.1a4.3,4.3,0,0,0-.338.418l-.09-.059a6.352,6.352,0,0,0,.329-.566,1.331,1.331,0,0,0,.058-.367c-.13.008-.284-.025-.385.033-.163.1-.288.175-.448,0-.036-.039-.119-.033-.226-.059a1.58,1.58,0,0,1,.364,1.014.589.589,0,0,0,.083.3c.075.095.2.212.3.206s.187-.153.243-.258a1.848,1.848,0,0,0,.111-.375l.1.009a.8.8,0,0,1,.012.306,2.483,2.483,0,0,1-.268.5,1.589,1.589,0,0,0-.3,1.239.578.578,0,0,0,.385.523M14.6,37.316a4.907,4.907,0,0,1,.455,1.846,2.9,2.9,0,0,0,.114-.616c.033-.421.143-.545.549-.632a.265.265,0,0,0,.169-.147c.016-.048-.046-.172-.085-.177a.339.339,0,0,0-.223.074,1.982,1.982,0,0,0-.228.234l-.1-.038.1-.529c-.308.068-.284-.141-.276-.346a3.421,3.421,0,0,0,0-.485,3.237,3.237,0,0,0-.094-.411l-.136-.015-.352.885a.259.259,0,0,1-.07-.015c-.365-.142-.5-.09-.61.284a3.107,3.107,0,0,0-.1.616c-.02.232.03.472-.188.657a.375.375,0,0,0-.084.292,1.786,1.786,0,0,0,.143.436.29.29,0,0,0,.145-.015,1.33,1.33,0,0,0,.012-.444.286.286,0,0,1,.136-.38c.071-.043.1-.167.135-.257a.927.927,0,0,1,.071-.2c.149-.191.31-.372.516-.617M10.84,15.087c.225-.33.417-.593.586-.87.048-.08.027-.2.043-.3a1.158,1.158,0,0,1,.086-.436,2.174,2.174,0,0,0,.1-1.685l-.136.568a1.2,1.2,0,0,1-.106-.231.669.669,0,0,0-.33-.562c-.044-.024-.057-.1-.1-.136a1.779,1.779,0,0,0-.177-.137c-.04.078-.108.155-.112.234a1.09,1.09,0,0,0,.081.269,1.44,1.44,0,0,1,.082.419.81.81,0,0,0,.252.745.705.705,0,0,1,.046.831c-.065-.111-.128-.2-.173-.3-.088-.193-.227-.343-.434-.238s-.056.287.01.418a1.833,1.833,0,0,1,.221,1.071,1.337,1.337,0,0,0,.055.339M8.093,30.452a.885.885,0,0,0,.252-.725c.006-.653.012-1.307.05-1.959a2.359,2.359,0,0,0-.544-1.59,9.77,9.77,0,0,0,.242,4.275M16.2,17.437a1.9,1.9,0,0,1-.026-.408c.048-.3.281-.431.539-.528a1.186,1.186,0,0,0,.822-.855c.127-.489-.129-.657-.591-.548a1.325,1.325,0,0,0-.879.9,3.931,3.931,0,0,1-.274.549c-.279.449-.128.817.411.894M5.04,45.392a1.138,1.138,0,0,0-.213-1.864l-.035.684H4.765l-.4-2.066-.1.01.154,3.771.13.03.365-.761.125.2M26.065,19.874a1.652,1.652,0,0,0,.165.378,1.061,1.061,0,0,0,.3.2c.006-.116.02-.232.016-.347a2.17,2.17,0,0,1-.037-.281.379.379,0,0,1,.1-.234,2.4,2.4,0,0,0,.49-1.284.374.374,0,0,0-.058-.158C27,18.091,26.933,18,26.871,18s-.137.089-.167.157a5.481,5.481,0,0,1-.241.607c-.065.11-.259.254-.332.225a.626.626,0,0,1-.34-.352.742.742,0,0,1,.126-.446,6.176,6.176,0,0,0,.348-.617c.04-.112-.055-.271-.088-.409-.115.034-.262.035-.339.108a1.141,1.141,0,0,0,.087,1.8.417.417,0,0,1,.188.512,2.075,2.075,0,0,0-.048.293m3.669.56.109-.016c-.082-.414.191-.6.443-.81a.959.959,0,0,0,.269-.411c.033-.1-.036-.228-.059-.344-.127.04-.286.045-.374.127-.158.147-.265.346-.41.509-.051.058-.151.072-.229.106a.837.837,0,0,1-.113-.293c0-.081.087-.163.144-.239.141-.191.3-.37.427-.569a.74.74,0,0,0-.02-.873,4.262,4.262,0,0,0-1.057,1.393.629.629,0,0,0,.093.471c.082.14.252.226.365.353a3.543,3.543,0,0,1,.255.37c.052.076.106.152.158.228m-13.323-1.08a.934.934,0,0,1,.469-1.233c.115-.064.247-.1.366-.155a.612.612,0,0,0,.321-.745.524.524,0,0,0-.3-.32.518.518,0,0,0-.6.274.606.606,0,0,0-.073.213.786.786,0,0,1-.527.618.631.631,0,0,0-.411.823c.112.447.27.561.754.524m6.92,23.983a.817.817,0,0,0,.469-1.054c-.074-.147-.119-.246.049-.351.024-.015.01-.16-.029-.194-.124-.106-.13-.178,0-.287a.246.246,0,0,0,.056-.215,2.84,2.84,0,0,0-.215-.41h-1.37c.044.04.125.079.137.134.057.249.075.517.409.559-.084.281.178.428.245.644.115.37.166.759.251,1.173M8.847,8.96a.883.883,0,0,0,.26,1.509c.4.145.832.239.94.75.609-.405.615-.719.076-1.118a4.594,4.594,0,0,1-.485-.489c-.058-.059-.118-.153-.186-.161a.629.629,0,0,1-.606-.492m16.3,2.327c-.289-.218-.191-.39.019-.5a1.105,1.105,0,0,1,.495-.134,1.548,1.548,0,0,0,1.155-.455c.131-.134.117-.229-.011-.354A1.205,1.205,0,0,0,25.3,9.817c-.235.214-.454.446-.686.664-.161.151-.161.281.009.426a.439.439,0,0,1,.149.221c.041.2.157.21.377.16m2.685,2.652.019-.083c-.354-.332-.3-.608.159-.8.1-.044.216-.075.32-.121a1.368,1.368,0,0,0,.924-1.547c-.045-.254-.118-.286-.336-.136a5.645,5.645,0,0,0-.452.346.388.388,0,0,0-.077.164c-.041.114-.046.258-.121.339-.29.313-.6.6-.906.908a.592.592,0,0,0,.041.8c.077.1.282.089.429.129m-9.665,4.3a.486.486,0,0,0-.187.686,1.027,1.027,0,0,0,.942.573c.468.046.632.377.4.793-.033.059-.065.183-.045.2.072.047.187.1.249.075a2.816,2.816,0,0,0,.527-.319.332.332,0,0,0,.033-.542.781.781,0,0,0-.322-.221.809.809,0,0,1-.493-.436,1,1,0,0,0-.61-.515,2.6,2.6,0,0,1-.493-.289m-.206-8.2a1.3,1.3,0,0,0,.353-.09A2.292,2.292,0,0,0,18.76,9.6c.033-.035-.027-.16-.044-.243-.405.133-.709-.528-1.149-.148-.018.015-.072-.02-.107-.016-.446.044-.688.4-.476.745a2.277,2.277,0,0,0,.546.607.761.761,0,0,0,.478.05c.151-.014.294-.1.445-.123a.727.727,0,0,0,.636-.812,1.678,1.678,0,0,0-.257.159c-.105.095-.189.214-.292.311-.2.185-.385.17-.576-.083M30.67,48.534l.129-.005a2.026,2.026,0,0,1-.013-.241c.048-.773.135-1.545.141-2.318.009-1.11-.032-2.222-.071-3.332a7.086,7.086,0,0,0-.144-.9l-.153.014q.055,3.39.11,6.78M19.6,17.424a.35.35,0,0,0,.581-.167.9.9,0,0,0-.212-.941,6.881,6.881,0,0,1-.7-.845c-.278-.406-.488-.5-1.022-.334a1.589,1.589,0,0,1,.153.326,1.364,1.364,0,0,0,1.062,1.1.434.434,0,0,1,.29.629,1.991,1.991,0,0,1-.15.234M24.98,8.311l.039.093a2.833,2.833,0,0,1-.35.38.649.649,0,0,0-.251.7c.024.109.184.187.283.279a2.622,2.622,0,0,1,.183-.234c.1-.1.195-.239.319-.28a2.14,2.14,0,0,1,.479-.013c.127-.01.306-.006.367-.084a1.963,1.963,0,0,0,.4-1.316,1.706,1.706,0,0,1-1.466.476M3.831,49.23a1.862,1.862,0,0,0,.22-.406,3.7,3.7,0,0,0,.166-.919q-.013-2.579-.076-5.158a4.948,4.948,0,0,0-.186-.9l-.1.011c0,.2-.009.392,0,.587.054,1.006.14,2.011.162,3.017a27.124,27.124,0,0,1-.188,3.763M3.622,10.649l-.067.076a1.339,1.339,0,0,0,.546.824.43.43,0,0,1,0,.8c-.285.173-.6.3-.913.455l-.168-.424-.063.439-.078,0a1.156,1.156,0,0,0-.032-.2,3.427,3.427,0,0,0-.21-.547c-.036-.066-.166-.081-.253-.12a.779.779,0,0,0-.049.309c.031.112.141.2.193.31a.617.617,0,0,1,.015.223.67.67,0,0,1-.217-.073,1.568,1.568,0,0,1-.207-.275.649.649,0,0,0,.439.674l-.149.261a1.537,1.537,0,0,0,.279.013,2.145,2.145,0,0,0,1.029-.6.893.893,0,0,1,.473-.257,3.205,3.205,0,0,0,.36-.081c.206-.054.3-.166.166-.371-.247-.381-.488-.767-.751-1.137a1.785,1.785,0,0,0-.344-.292m11.417,2.2a1.588,1.588,0,0,0-.285-.338c-.042-.029-.253.078-.25.115.013.2-.161.485.1.58a.571.571,0,0,1,.39.5.8.8,0,0,0,.484.625.469.469,0,0,0,.388-.014A.419.419,0,0,0,16,13.963a.889.889,0,0,1,.186-.771,1.762,1.762,0,0,0,.141-.284l-.066-.036-.379.516-.044-.508-.418.31-.128-.543-.257.2m1.95,11.674a3.758,3.758,0,0,1,0-.387c.044-.4.133-.806.549-.955.23-.083.425-.123.44-.381.143.13.272.263.417.375.12.093.177.169.1.332a.359.359,0,0,0,.028.324,1.79,1.79,0,0,0,.454.265c.019.009.083-.041.107-.077a.654.654,0,0,0-.134-.748c-.361-.258-.726-.51-1.083-.76-.131.071-.244.141-.363.2s-.268.1-.389.168c-.068.04-.155.133-.15.2a.637.637,0,0,1-.405.65.361.361,0,0,0-.15.269c0,.2.3.472.573.533M32.272,13.959c.112-.491.6-.54.741-.979a1.7,1.7,0,0,0-.382.1c-.1.053-.156.171-.251.227a.938.938,0,0,1-.284.063.841.841,0,0,1,.071-.32c.075-.1.211-.158.309-.247a.34.34,0,0,0,.125-.2c0-.045-.106-.135-.156-.13-.067.007-.136.079-.187.138-.111.129-.211.267-.315.4l-.072-.042-.045-.346-.29.129a1.292,1.292,0,0,0-.03-.183c-.027-.081-.063-.159-.1-.238-.055.056-.114.109-.166.168s-.067.128-.118.153c-.068.033-.184.061-.227.027a.317.317,0,0,1-.086-.237.625.625,0,0,1,.1-.229q.358-.67.718-1.339l-.071-.043c-.169.268-.337.536-.508.8a5.2,5.2,0,0,1-.438.656c-.257.29-.261.4.077.609a.617.617,0,0,0,.34.125c.444-.054.644.2.825.547.08.153.262.252.41.387m-7.288-1.508a1.079,1.079,0,0,0,.126.394.491.491,0,0,0,.346.1c.053,0,.163-.151.147-.188-.146-.329.057-.4.3-.5a1.353,1.353,0,0,0,.541-.386c.065-.083-.034-.295-.057-.449a.467.467,0,0,1-.006-.085c.008-.281-.162-.3-.373-.25a1.4,1.4,0,0,0-1.025,1.359m-3.826,9.431a.945.945,0,0,0,.761-.68c.072-.344-.036-.475-.351-.628a.928.928,0,0,1-.449-.449,1.683,1.683,0,0,0-.888-.9l.362.87c-.223.237-.215.317.077.546.6.47.664.622.488,1.237M6.174,24.092c.37.081.566-.133.521-.58-.023-.228.017-.318.272-.324a.486.486,0,0,0,.425-.731,2.19,2.19,0,0,0-.385-.523c-.2-.195-.467-.322-.429-.674.006-.054-.138-.123-.212-.186-.048.08-.14.163-.136.241a1,1,0,0,0,.5.929.9.9,0,0,1,.2.153c.224.22.176.432-.127.531a.7.7,0,0,1-.779-.2,2.522,2.522,0,0,0-.278-.22l-.073.061c.018.078.012.177.058.23a2.49,2.49,0,0,0,.441.424c.33.226.373.486.094.76-.032.031-.058.069-.092.11M20.69,16.553a4.2,4.2,0,0,1-.027.429,3.23,3.23,0,0,0-.093.354.318.318,0,0,0,.115.206,1.309,1.309,0,0,0,.244.145c.515.3.54.352.4.9,0,.007.007.017.011.026.394.078.608.022.736-.239.147-.3.167-.428-.153-.753-.266-.27-.535-.538-.814-.795a3.093,3.093,0,0,0-.422-.269m-5.55,2.416c-.243.194-.487.382-.721.582a.6.6,0,0,0-.127.216c-.063.142-.109.291-.177.43a.657.657,0,0,0,.115.691.32.32,0,0,0,.441.167.78.78,0,0,0-.016-.244.369.369,0,0,1,.184-.482c.078-.055.16-.1.237-.158a.717.717,0,0,0,.065-1.2M26.519,48.464c.158.125.25.258.06.442-.027.026,0,.159.006.16.18.021.133.137.13.253,0,.052.073.105.114.158.046-.049.113-.091.132-.149a.505.505,0,0,0,.005-.184c.675-.28.555-.979.861-1.363l-.111-.244a.709.709,0,0,1,.206-.049,1.006,1.006,0,0,0,.617-.248l-.029-.074-1.121.324a.524.524,0,0,1,0,.079,2.349,2.349,0,0,1-.072.305.28.28,0,0,1-.15-.019c-.021-.1-.008-.21-.029-.312-.014-.069-.067-.187-.1-.186-.095.005-.24.031-.27.095a3.012,3.012,0,0,0-.157.5l.2.325-.294.182M12.27,25.59l-.124-.017c-.118.28-.244.557-.35.842a.908.908,0,0,0-.079.408c.088.685.193,1.367.3,2.049a1.612,1.612,0,0,0,.1.291l.1-.018c0-.29-.016-.581,0-.869.043-.638.119-1.275.149-1.913a4.269,4.269,0,0,0-.1-.772m3.394-10.711a.609.609,0,0,0-.645.307,5.651,5.651,0,0,0-.5.848.678.678,0,0,0-.064.413c.022.105.148.189.228.282a1.85,1.85,0,0,0,.241-.215c.116-.145.2-.319.326-.452.2-.212.453-.382.638-.606A.786.786,0,0,0,16,14.987c0-.035-.216-.071-.332-.107m2.505-1.812c.028.038.053.076.082.109.341.388.34.473-.011.859-.019.021-.04.041-.059.062-.119.127-.091.235.069.271a3.654,3.654,0,0,0,.546.06.839.839,0,0,0,.732-.394A1.044,1.044,0,0,0,19.2,13l-.158.482c-.236-.309-.456-.584-.874-.412m1.484-.1a3.361,3.361,0,0,1,.184.717,2.578,2.578,0,0,1-.142.631.964.964,0,0,0,1.192-1.128c-.018-.079-.058-.186-.025-.239.166-.265.148-.4-.122-.6l-.16.761-.085-.012-.249-.318-.065.023.039.583-.569-.415m-11.7,9.506c.242.3.446.575.675.828a.449.449,0,0,1-.006.656c-.188.2-.271.184-.508-.07a.84.84,0,0,0-.136-.145.927.927,0,0,0-.2-.074.722.722,0,0,0-.063.2.316.316,0,0,0,.058.21.677.677,0,0,1,.155.934c.28.036.572-.1.536-.27-.077-.356.185-.46.37-.634a.779.779,0,0,0,.117-1.1c-.113-.128-.235-.248-.348-.376a.559.559,0,0,0-.654-.163M3.384,9.984l-.068-.093c-.128.06-.256.118-.383.179a6.823,6.823,0,0,1-.912.436,1.385,1.385,0,0,0-.8.676.793.793,0,0,0-.053.27L1.779,11l.068.078a2.477,2.477,0,0,0-.247.363,2.375,2.375,0,0,0-.11.418l.077.02a1.565,1.565,0,0,0,.1-.134c.145-.245.3-.456.639-.434.08,0,.186-.087.246-.162.236-.3.46-.6.684-.909a2.727,2.727,0,0,0,.15-.258m17.206,7.754-.073.043c0,.394-.01.789.008,1.183a.307.307,0,0,0,.17.232.678.678,0,0,1,.592.764c0,.055.1.161.15.156a.454.454,0,0,0,.4-.386c.051-.209.153-.458-.115-.578a1.663,1.663,0,0,1-.83-.929,3.964,3.964,0,0,0-.3-.486M3.074,41.358l-.1.041c.831,2.177.613,4.414.476,6.659a8.3,8.3,0,0,0,.283-1.382c.044-.662-.006-1.329,0-1.994a8.571,8.571,0,0,0-.386-2.918,1.859,1.859,0,0,0-.273-.406m22.273-27.6c.008.112,0,.148.014.168.116.167.252.478.351.467.218-.024.257-.276.237-.5a.27.27,0,0,1,.1-.2c.136-.1.306-.162.43-.274a2.537,2.537,0,0,0,.453-.526c.037-.059-.077-.305-.118-.3a4.112,4.112,0,0,0-.732.1c-.048.01-.123.105-.113.144.089.365-.223.451-.41.629a1.672,1.672,0,0,0-.215.3M21.593,8.316a3.308,3.308,0,0,0-.449.742,1.2,1.2,0,0,1-.645.7c-.183.107-.2.64-.016.728a.231.231,0,0,0,.207-.092.907.907,0,0,1,.726-.562c.241-.048.444-.2.423-.459a9.253,9.253,0,0,0-.192-1.038c0-.005-.017-.007-.055-.023m-1.36,6.79c-.351-.009-.433.117-.266.408a1.3,1.3,0,0,0,.89.606.47.47,0,0,1,.4.45,1.353,1.353,0,0,0,.107.293,1.337,1.337,0,0,0,.323-.152.36.36,0,0,0,.019-.572,2.941,2.941,0,0,0-.426-.324,5.464,5.464,0,0,1-.676-.5c-.121-.121-.172-.3-.367-.208m-2.382-.972c-.759-.207-.415-.632-.27-1.027l-.465.38-.1-.38-.282.327-.147-.405a1.038,1.038,0,0,0-.094,1.129c.319.394.717.4,1.353-.024M32.192,47.041a11.405,11.405,0,0,0,.1-4.785h-.1ZM27.173,20.982l.506-.606a1.175,1.175,0,0,0,.367-1.184.474.474,0,0,0-.247-.237c-.036-.016-.163.108-.208.191-.192.349-.371.705-.55,1.061-.22.436-.21.474.133.775M24.7,22.129c-.206.252-.547.413-.415.8a.566.566,0,0,1-.186.681,1.206,1.206,0,0,0-.26.3,1,1,0,0,0-.127.393.27.27,0,0,0,.128.222c.058.021.166-.051.232-.1s.108-.187.183-.21c.306-.1.286-.357.345-.59a2.365,2.365,0,0,1,.211-.575.7.7,0,0,0-.112-.911m-8.583.459a1.112,1.112,0,0,0,.084.289,1.018,1.018,0,0,0,.216.2l.158-.215a4.838,4.838,0,0,1,.329-.432,5.362,5.362,0,0,0,.507-.493.838.838,0,0,0,.12-.5c0-.1-.144-.188-.222-.281-.108.091-.293.17-.311.276a.611.611,0,0,1-.455.518.7.7,0,0,0-.426.635m-3.157-4.6c-.04-.364.179-.5.4-.645.168-.108.325-.233.5-.335.27-.162.182-.35.064-.555a.3.3,0,0,0-.481-.106,1.681,1.681,0,0,0-.784,1.045.462.462,0,0,0,.306.6M28.866,37.222a6.273,6.273,0,0,1,.476.949,1.2,1.2,0,0,0,.418.654c.282.2.245.465.209.74-.006.046-.047.09-.044.134,0,.059.021.151.057.165a.253.253,0,0,0,.2-.017c.033-.021.038-.119.024-.175-.028-.109-.109-.211-.111-.317a.809.809,0,0,1,.1-.387.268.268,0,0,1,.249-.011.807.807,0,0,1,.164.694c.093-.031.139-.069.149-.115.077-.346.08-.644-.411-.834s-.907-.442-.794-1.114c.058-.343-.3-.506-.687-.365M14.731,18.8c-.128-.5-.1-.6.233-.935.047-.047.111-.091.13-.148.047-.141.142-.378.093-.417a.7.7,0,0,0-.5-.16c-.33.064-.567.521-.558.956a.7.7,0,0,0,.6.7m11.6,4.542a.6.6,0,0,1-.022-.957c.086-.1.166-.208.245-.315a.5.5,0,0,0-.1-.773,1.346,1.346,0,0,0-.714,1.573.5.5,0,0,0,.586.472m.5,2.455a1.94,1.94,0,0,1-.106.276c-.181.309-.158.481.136.67a.907.907,0,0,0,.332.059c-.025-.1-.02-.234-.082-.3a.32.32,0,0,1,0-.458l.34-.476a1.31,1.31,0,0,0-.9.031c-.105.039-.228.106-.322.082a.615.615,0,0,1-.375-.23c-.049-.095.022-.282.092-.4s.216-.186.3-.3c.04-.052.02-.151.027-.229-.077,0-.177-.025-.228.013a.938.938,0,0,0-.4.751.466.466,0,0,0,.551.513c.2-.012.393,0,.635,0M19.177,1.73l.233.448c.129-.078.315-.126.376-.24A7.292,7.292,0,0,0,20.21.92c.034-.1-.024-.229-.039-.344a1.151,1.151,0,0,0-.352.06,1.307,1.307,0,0,0-.642,1.094m.909,20.855a.734.734,0,0,1,.3.745,1.219,1.219,0,0,0,.416,1.207,1.276,1.276,0,0,0,.276.155c.049-.108.158-.232.134-.32a7.217,7.217,0,0,0-.3-.754,1.327,1.327,0,0,1-.133-.388c-.025-.471-.121-.586-.7-.644m7.879,14.856a1.393,1.393,0,0,0,.658,1.155.7.7,0,0,1,.316.76.8.8,0,0,0-.027.2c.005.047.051.089.078.133.042-.04.118-.079.12-.121a3.065,3.065,0,0,0-.026-.479,5.525,5.525,0,0,1-.112-.808c.014-.56-.032-.656-.574-.784a3.8,3.8,0,0,0-.433-.051m-13.531-14.8c.276-.16.545-.294.792-.462a.759.759,0,0,0-.055-1.162l-.182.238c-.171.226-.327.466-.517.676a.555.555,0,0,0-.037.711m.789,3.1a.91.91,0,0,1,.337-1.1.6.6,0,0,0,.117-.8c-.089.048-.2.075-.261.147a5.873,5.873,0,0,0-.739,1.035.49.49,0,0,0,.546.715M9.708,21.511a.424.424,0,0,1,.086-.008c.158.069.321.145.447-.047a.56.56,0,0,0-.179-.588c-.21-.1-.258.1-.338.211a.451.451,0,0,1-.544.188,1.212,1.212,0,0,0-.381-.036.193.193,0,0,0-.146.1.188.188,0,0,0,.06.165,1.428,1.428,0,0,0,.3.156.527.527,0,0,1,.33.514c0,.079,0,.158,0,.286a1.058,1.058,0,0,0,.36-.943M6.36,38.635c.337-.1.561-.33.5-.566A.532.532,0,0,1,7.07,37.4c-.208-.357-.451-.384-.7-.095a1.037,1.037,0,0,0-.011,1.326m6.653-18.463.108-.065a.617.617,0,0,1,.326-.748.933.933,0,0,0,.258-.333c.156-.27.113-.4-.163-.562a3.653,3.653,0,0,1-.447.387.788.788,0,0,0-.373,1.011c.053.123.191.208.29.311M27,24.529a1.085,1.085,0,0,0-.019-.186,1.225,1.225,0,0,1,.251-1.247.512.512,0,0,0,.121-.254,2.391,2.391,0,0,0,.005-.373c-.251.21-.5.4-.734.62A1,1,0,0,0,27,24.529m-9.177-3.474-.061.065c.081.141.231.283.229.423-.006.464.327.653.626.877.151.113.385.167.468.007a.563.563,0,0,0-.066-.532,14.4,14.4,0,0,0-1.2-.841m-.165,3.177c-.168.438-.552.567-.929.728a.694.694,0,0,0-.37.865c.031.149.078.34.271.287.09-.025.144-.2.2-.321a1.971,1.971,0,0,1,.142-.343c.091-.118.235-.193.335-.305a1.084,1.084,0,0,0,.35-.91M14.13,14.405c-.291.178-.563.341-.832.51a.6.6,0,0,0-.248.772c.218-.083.437-.166.654-.251a1.369,1.369,0,0,0,.232-.107.656.656,0,0,0,.194-.924m15.49,6.653a3.481,3.481,0,0,1-.338.451,1.35,1.35,0,0,0-.471,1c0,.409.275.612.615.456l-.2-.238c-.2-.237-.194-.315.045-.507a3.094,3.094,0,0,0,.369-.31.584.584,0,0,0-.02-.851M12.279,36.874c-.336.033-.491.215-.5.43a.886.886,0,0,1-.777.9.544.544,0,0,0-.111.933,2.692,2.692,0,0,1,.008-.518.5.5,0,0,1,.2-.306.313.313,0,0,1,.287.1.986.986,0,0,1,.119.41,1.181,1.181,0,0,1-.035.3l.1.008a3.966,3.966,0,0,0,.069-.572,1.122,1.122,0,0,1,.272-.785,1.326,1.326,0,0,0,.239-.351,3.928,3.928,0,0,0,.132-.549m-.834-29.36L11.317,7.5a.6.6,0,0,0-.043.152.665.665,0,0,1-.6.652c-.067,0-.133.019-.2.029.031.072.042.174.1.212a1.752,1.752,0,0,1,.713,1.069c.085-.074.18-.159.179-.242a1.4,1.4,0,0,0-.093-.577.633.633,0,0,1-.017-.532,3.831,3.831,0,0,0,.1-.75m4.5-5.313a.869.869,0,0,0-.08-1.34A.419.419,0,0,0,15.5.852a.439.439,0,0,0-.154.357,1.54,1.54,0,0,0,.238.5c.1.166.231.316.361.49m5.336,20.842c.344-.277.385-.451.154-.684a4.08,4.08,0,0,1-.805-1.195,1.3,1.3,0,0,0-.18-.234l-.08.016q-.026.238-.051.476a.629.629,0,0,0,.446.765c.342.122.673.314.516.856m-2.536,2.339c.065-.18.176-.331.137-.407a1.268,1.268,0,0,0-.809-.6c.032.294.053.545.087.8a.768.768,0,0,0,.541.631c.09.009.189-.075.283-.117a1.393,1.393,0,0,0-.126-.217.4.4,0,0,0-.114-.088M28.905,15.367a.806.806,0,0,1-.022-1.2A.672.672,0,0,0,29,13.851c.029-.2-.083-.264-.258-.2a.678.678,0,0,0-.259.168,1.208,1.208,0,0,0-.165,1.256.52.52,0,0,0,.591.295m-.545,6.927a1.856,1.856,0,0,1,.375-1.231.582.582,0,0,0-.04-.811c-.65.7-.89,1.344-.334,2.042M4.29,49.139a.614.614,0,0,0,.261-.541c.033-.369.062-.738.08-1.108a.538.538,0,0,1,.317-.5.626.626,0,0,0,.193-.118.267.267,0,0,0,.07-.19c-.006-.04-.093-.087-.15-.1-.121-.018-.249,0-.367-.023-.262-.057-.323.091-.321.3,0,.4.03.8.016,1.192-.012.361-.065.722-.1,1.083M14.7,24.531a1.032,1.032,0,0,1-.032-.351c.069-.214.117-.5.275-.606.283-.192.559-.333.5-.736-.014-.1.007-.238-.049-.283-.087-.071-.418.122-.407.23a.712.712,0,0,1-.365.657c-.4.317-.376.715.078,1.089M8.96,20.818a2.5,2.5,0,0,0,.315-.06.562.562,0,0,0,.308-.743c-.118-.191-.213-.4-.338-.583a.951.951,0,0,0-.233-.183c-.045.107-.141.223-.124.319a.8.8,0,0,0,.213.325c.237.275.242.4.009.66-.205.228-.346.032-.509-.069a.67.67,0,0,0-.226-.066c-.009,0-.051.074-.041.092.046.078.091.185.162.212a2.714,2.714,0,0,0,.464.095m14.846-5a2.5,2.5,0,0,0-.269-.41,2.366,2.366,0,0,0-.412-.3c-.124-.077-.268-.2-.4-.032s-.061.334.073.482a1.613,1.613,0,0,1,.3.371c.083.179.2.27.373.2.117-.05.2-.179.338-.309m-1.649.86c.458.1.886-.3.751-.683a.853.853,0,0,0-.632-.557c-.1-.023-.217.066-.327.1.044.093.064.214.135.276.374.323.379.327.122.737a.842.842,0,0,0-.049.124M10.365,38.541a3.806,3.806,0,0,1,.344-.413c.125-.111.287-.181.416-.289a1,1,0,0,0,.219-.941c-.025.012-.06.017-.071.037-.074.132-.144.266-.215.4-.153.288-.255.318-.536.164-.04-.022-.084-.035-.154-.063a1.7,1.7,0,0,0-.005,1.1M5.86,36.9c-.29.127-.271.407-.351.635a5.286,5.286,0,0,1-.245.69c-.072.138-.182.341-.418.156-.039-.031-.164.016-.227.059a.182.182,0,0,0-.013.173,1.035,1.035,0,0,0,.424.243c.095.012.233-.129.312-.232.1-.125.129-.3.227-.422.308-.389.213-.86.291-1.3M23.092,19.817a.547.547,0,0,0,.2-.6c-.11-.311-.437-.58-.691-.535a.458.458,0,0,0-.281.192.307.307,0,0,0,.06.275c.1.117.254.191.37.3s.222.239.343.372M4.954,21.984c.539.027.839-.244.658-.551a12.928,12.928,0,0,0-.9-1.205.827.827,0,0,0,.2.829c.247.277.458.561.034.928m17.864-3.65a1.236,1.236,0,0,0,.232-1.023.49.49,0,0,0-.563-.286c-.113.016-.3.162-.3.23.019.156.1.385.222.432a.566.566,0,0,1,.4.647m.574-.792.063.062A1.651,1.651,0,0,0,24,17.338a.6.6,0,0,0-.184-.827c-.164-.125-.347-.2-.5,0a.336.336,0,0,0,.063.506c.261.176.223.332.014.529M9.305,24.659l.045.079a1.848,1.848,0,0,0,.319-.055,1.47,1.47,0,0,0,.552-.852c-.007-.18-.292-.465-.453-.441-.285.042-.165.258-.184.424a4.006,4.006,0,0,1-.13.618.906.906,0,0,1-.149.228m3.213-9.9c.164-.185.311-.356.464-.521a.5.5,0,0,0,.1-.551c-.081-.226-.245-.261-.4-.079-.109.13-.2.274-.3.408-.238.308-.2.511.138.743m11.67,24.471c-.205-.623-.205-.623.122-.9l-.3.059c-.106-.335-.228-.662-.306-1-.03-.132-.022-.278-.186-.224-.087.029-.146.182-.189.29-.019.047.028.126.057.186a3.693,3.693,0,0,1,.479,1.413c.009.194.15.238.328.172M10.772,47.5l-.041.091a1.047,1.047,0,0,0,.188.1,1.217,1.217,0,0,1,.669.62.593.593,0,0,1-.06.792c-.057.067-.1.141-.167.227.2,0,.451.053.484-.009.12-.232.28-.538.214-.75a1.777,1.777,0,0,0-.582-.739,2.96,2.96,0,0,0-.706-.334M22.9,21.587a.485.485,0,0,0-.021-.815.435.435,0,0,1-.235-.408.8.8,0,0,0-.124-.276,2.341,2.341,0,0,0-.365.345.293.293,0,0,0,.029.283,1.614,1.614,0,0,1,.715.872m6.065,27.658c.353.054.538,0,.582-.316a1.2,1.2,0,0,1,.178-.474.36.36,0,0,0-.035-.442c-.086-.131-.195-.247-.294-.37l-.143.056c-.012.182-.1.412-.021.535.182.286.071.472-.093.684a2.332,2.332,0,0,0-.174.326M28.4,23.1a3.1,3.1,0,0,1-.286.44,3.561,3.561,0,0,1-.363.272.862.862,0,0,0-.233,1.051.309.309,0,0,0,.467.16c-.051-.076-.079-.124-.113-.166-.232-.286-.229-.36.026-.623.079-.082.162-.161.233-.249A1.25,1.25,0,0,0,28.4,23.1M14.247,50.528c-.127-.375-.107-.428.236-.622.154-.087.311-.172.466-.257a.51.51,0,0,0-.387-.061c-.285.1-.561.231-.836.36-.12.056-.326.11-.208.291a1.081,1.081,0,0,0,.42.317c.073.037.19-.013.309-.026M24.2,21.273a1.466,1.466,0,0,0-.128-1.791c-.16-.114-.313-.121-.411.052.068.173.12.322.186.464a2.032,2.032,0,0,0,.14.2,1.091,1.091,0,0,1,.2.364,5.147,5.147,0,0,1,.009.714M13.272,22c-.176-.248,0-.382.1-.547a1.734,1.734,0,0,0,.238-.525c.022-.091-.076-.21-.119-.316-.11.049-.265.067-.322.152a1.734,1.734,0,0,0-.215,1.293L13.272,22m-.5,17.426a.893.893,0,0,0-1.108.639c-.09.256-.023.343.24.323.116-.009.234,0,.312,0a3.264,3.264,0,0,1,.193-.529,3.22,3.22,0,0,1,.363-.432M13.3,50.393c-.229-.267-.083-.4.147-.515.157-.078.3-.173.538-.308-.175-.044-.278-.107-.355-.083-.306.1-.606.213-.9.334a.219.219,0,0,0-.094.157c-.038.34.286.567.666.415m-2.505-9.94a1.3,1.3,0,0,0,.378-.217,2.852,2.852,0,0,0,.293-.513c.029-.054.051-.111.076-.167a.594.594,0,0,0-.168-.07.768.768,0,0,0-.839.6c-.107.284-.073.331.26.371m.63-29.209a1.473,1.473,0,0,0-.393-1.476c-.322.265-.373.64-.134.832a2.674,2.674,0,0,1,.352.407c.049.06.093.125.174.237m5.312-3.8a1.218,1.218,0,0,1-.96-.81c-.02-.066-.182-.138-.269-.127-.191.023-.258.258-.151.455a1.123,1.123,0,0,0,1.379.482M15.94,34.261a7.486,7.486,0,0,0,.207,3.32l.077-.005-.284-3.314m3.324-8.928c.495-.1.685-.307.634-.647a.529.529,0,0,0-.634-.456Zm-7.808-4.941.106.016c.194-.25.4-.491.575-.757a.533.533,0,0,0,.035-.375c-.05-.205-.192-.238-.325-.07a2.323,2.323,0,0,0-.379.627,1.735,1.735,0,0,0-.012.559M32.023,9.246c.229.226.449.128.653,0a.769.769,0,0,0,.448-.644.207.207,0,0,0-.343-.167c-.26.258-.5.534-.758.808m-6.776,8.125a7.66,7.66,0,0,0,.543-.757.693.693,0,0,0,0-.427c-.008-.04-.161-.1-.216-.075a.972.972,0,0,0-.323,1.259m-13.521,4.5a2.241,2.241,0,0,0,.775-1.078.557.557,0,0,0-.753.308.687.687,0,0,0-.021.77m-8.8,20.774V47a14.547,14.547,0,0,0,0-4.364m21.428-24.1L24.3,18.5a.539.539,0,0,0,.007-.113.436.436,0,0,0-.483-.339c-.127.039-.331.222-.313.273a2.635,2.635,0,0,0,.355.613c.021.03.167.02.206-.019a3.4,3.4,0,0,0,.286-.372M18.9,6.816c.165.272.4.19.575.122.389-.147.381-.487.354-.834-.012-.155-.016-.305-.2-.315-.218-.012-.171.182-.19.312-.008.054.032.122.012.166a1.44,1.44,0,0,1-.218.387,1.083,1.083,0,0,1-.333.162M13.319,22.049c.275.221.1.342-.048.466-.337.289-.347.336-.148.779a.966.966,0,0,0,.488-1.306l-.292.062m-.891,0a5.2,5.2,0,0,0-.453.672.463.463,0,0,0,.089.376c.036.05.222.044.3,0a.759.759,0,0,0,.059-1.047m12.844,2.74a1.294,1.294,0,0,1,.14-1.081c.1-.146.071-.387.1-.585l-.142-.037a7.494,7.494,0,0,0-.456.988c-.113.372-.019.5.358.715M13.908,51.514a2.216,2.216,0,0,0,.19.625c.066.1.284.124.435.127.049,0,.146-.173.146-.267,0-.436-.214-.579-.77-.486M11.726,16.728c.211-.156.408-.3.6-.446.148-.112.277-.273.109-.416-.086-.073-.312-.04-.443.017s-.2.2-.287.308a.374.374,0,0,0,.018.538m3.863,34.82c-.377.052-.469.165-.495.557-.016.239.143.226.3.229.321.006.469-.149.446-.53-.005-.09-.161-.171-.247-.256m4.34.785c.278,0,.325-.036.325-.229,0-.369-.143-.5-.558-.492-.068,0-.188.1-.191.16-.016.374.139.564.424.561m1.148-.754a1.462,1.462,0,0,1-.357-.006c-.133-.036-.264-.037-.238.116a1.607,1.607,0,0,0,.231.6.417.417,0,0,0,.378-.042.651.651,0,0,0-.014-.673m-2.476.047c-.111.457.052.668.478.659.292-.006.238-.213.253-.379.017-.19-.054-.314-.272-.3-.153.01-.306.014-.459.021m-5.933-1.974a.981.981,0,0,0-.906.205.173.173,0,0,0-.035.132c.061.144.1.33.216.406s.287.015.457.015c-.188-.422-.188-.422.268-.757M22.361,21.88c-.122.147-.234.226-.26.327-.044.165.028.263.235.239.068-.008.151.1.223.155s.159.138.239.208c.061-.136.21-.339.167-.394a4.1,4.1,0,0,0-.6-.536m-10.7-3.261c.4-.4.588-.929.35-1.2a.878.878,0,0,0-.35,1.2M16.618,7.9a.79.79,0,0,0-.121-.022,1.261,1.261,0,0,1-1.319-.636c-.008-.017-.021-.038-.036-.042-.059-.017-.119-.029-.178-.043-.013.06-.057.138-.034.176a2.224,2.224,0,0,0,.295.413,1.275,1.275,0,0,0,1.394.154M9.9,5.241l.018-.106c-.268-.1-.531-.222-.806-.3-.086-.025-.2.052-.306.083.052.141.092.4.159.4A1.411,1.411,0,0,0,9.9,5.241m16.89,35.32c0-.49-.345-1.075-.8-.748a1.655,1.655,0,0,1,.264.456c.066.322.227.4.535.292M5.553,39.214a1.727,1.727,0,0,1,.086-.157c.045-.06.094-.118.142-.177.062.053.167.1.178.16a.734.734,0,0,1-.041.344,1.6,1.6,0,0,1-.177.293.507.507,0,0,0,.611-.588.591.591,0,0,0-.64-.4c-.246.072-.23.256-.159.528m8.079.273c-.527-.205-.849.024-.975.788h.509c-.078-.392.2-.58.466-.788m8.461,12.147c.145.665.205.738.529.664.236-.053.289-.234.187-.7l-.716.039M7.481,25.454a2.14,2.14,0,0,0-.063-.486c-.03-.086-.166-.134-.255-.2-.026.095-.1.221-.069.279a.38.38,0,0,1-.12.6.231.231,0,0,0-.078.21.291.291,0,0,0,.212.1c.246.02.374-.157.372-.51m14.2,26.889c.3,0,.345-.066.272-.323a1.409,1.409,0,0,1-.056-.277.257.257,0,0,0-.358-.247c-.078.02-.139.177-.171.283a.86.86,0,0,0,.011.28c.012.209.115.313.3.284M17.391,26.476l.143.286c.1-.064.232-.106.278-.2a2.553,2.553,0,0,0,.208-.609.251.251,0,0,0-.125-.208c-.071-.028-.228-.005-.251.042a6.885,6.885,0,0,0-.253.684m4.327,23.4a.549.549,0,0,1,.2.735.94.94,0,0,0,.533-.1.434.434,0,0,0,.025-.406c-.141-.264-.4-.326-.763-.232M25.033,39.7l-.108.119a2.175,2.175,0,0,1,.417.295,2.347,2.347,0,0,1,.258.454l.361-.037a.787.787,0,0,0-.928-.831M22.25,24.5c.032-.037.145-.109.161-.2a3.141,3.141,0,0,0,.063-.769c-.008-.111-.143-.223-.241-.313-.025-.023-.181.031-.186.063a1.749,1.749,0,0,0,.008.373c0,.027.027.051.033.078.053.245.1.491.162.764M13.713,52.2a4.273,4.273,0,0,0-.264-.674c-.042-.07-.218-.073-.335-.079-.042,0-.128.079-.126.117a1.759,1.759,0,0,0,.089.552c.022.055.226.035.347.05l.289.034M9.274,39.6a.717.717,0,0,0-.81.608.358.358,0,0,0,.051.234c.121,0,.306.011.352-.06a7.408,7.408,0,0,0,.407-.782M4.736,12.867A1.541,1.541,0,0,0,3,13.881c.183-.141.332-.251.476-.368.313-.254.584-.583,1.052-.543.057,0,.12-.058.205-.1M15.788,39.331a1.073,1.073,0,0,1-.149-.221,1.445,1.445,0,0,1-.109-.5.337.337,0,0,1,.263-.209.394.394,0,0,1,.277.233c.034.121-.045.27-.056.409,0,.046.053.1.081.146.041-.042.117-.084.117-.126a3.115,3.115,0,0,0-.041-.563.434.434,0,0,0-.56-.342c-.382.137-.208.483-.219.736-.009.187,0,.461.4.435m6.2,1.116c-.085-.555-.5-.935-.973-.813a1.721,1.721,0,0,0,.236.19.514.514,0,0,1,.165.247c.082.427.1.448.572.376m7.033-24.494.728.606.076-.064a.886.886,0,0,1-.277-.908.551.551,0,0,0-.015-.225,1.781,1.781,0,0,0-.11-.248,1.351,1.351,0,0,0-.231.132,1.233,1.233,0,0,0-.158.2l.273-.11c.265.355-.165.4-.286.62M21.928,39.634a2.146,2.146,0,0,1,.326.37,2.283,2.283,0,0,1,.128.483l.479-.028a.828.828,0,0,0-.933-.826M5.513,45.644a.577.577,0,0,0-.847.422c-.029.088.024.291.061.3.166.026.409.081.436-.171s.054-.461.351-.548M21.366,15.2c.37.136.656-.284.563-.6-.076-.253-.281-.231-.451-.194-.058.013-.093.207-.107.323a3.958,3.958,0,0,0,0,.468M16.7,51.926c.047-.27-.125-.31-.355-.319-.252-.01-.337.1-.327.339.008.2.043.349.3.338.233-.01.424-.04.385-.358m7.269-12.28a4.659,4.659,0,0,0,.446.743c.063.074.295,0,.449,0a1.726,1.726,0,0,0-.117-.305c-.058-.1-.162-.164-.22-.259a.433.433,0,0,0-.559-.176m-.127,11.97H23.2a3.5,3.5,0,0,0,.094.6c.014.045.229.079.316.04.249-.112.241-.352.229-.642M9.51,40.377c.2-.052.426-.044.524-.153a2.46,2.46,0,0,0,.312-.622c-.411-.124-.837.213-.836.774m14.645,9.5a2.126,2.126,0,0,1,.21.233.972.972,0,0,1,.108.249,2.1,2.1,0,0,1,.048.242,1.258,1.258,0,0,0,.378-.122.325.325,0,0,0,.107-.283.761.761,0,0,0-.852-.318M8.465,39.708a.657.657,0,0,0-.951.558c0,.142.064.237.228.218.117-.013.269.022.256-.176a.516.516,0,0,1,.467-.6m5.328-16.13-.079-.035a1.3,1.3,0,0,1-.254.307.609.609,0,0,0-.22.875.924.924,0,0,0,.225.179l.068-.049c-.286-.5.241-.838.26-1.276m14,17.13c-.161-.552-.546-.893-.852-.77.3.756.417.867.852.77m-.1-.735a3.3,3.3,0,0,1,.32.249,3.426,3.426,0,0,1,.25.311c.064.082.126.165.189.248.06-.125.186-.262.168-.374-.064-.381-.454-.574-.927-.434m-7.546,9.786.252.569c.035.08.059.217.108.227a.656.656,0,0,0,.385-.031c.038-.017.035-.242-.021-.318a1.913,1.913,0,0,0-.431-.4c-.072-.051-.194-.031-.294-.043M12.74,52.2a6.3,6.3,0,0,0-.3-.625.314.314,0,0,0-.247-.117c-.064,0-.178.119-.171.173.023.181.039.418.156.516s.345.04.564.053m2.679-2.435a1.171,1.171,0,0,0-.877.373c-.076.144.073.429.238.427a2.488,2.488,0,0,0,.406-.074c-.187-.332-.129-.572.233-.726m8.771,2.082c.089.168-.12.422.193.426a.69.69,0,0,0,.353-.117,2.254,2.254,0,0,0-.17-.595.279.279,0,0,0-.249-.033,1.11,1.11,0,0,0-.127.319M10.919,50.234l-.273-.468.272-.259c-.248-.154-.4-.02-.542.122a.366.366,0,0,0-.076.511c.165.246.378.149.62.095M25.011,18.691c.026-.191.048-.358.07-.524s.056-.351.069-.528a.208.208,0,0,0-.073-.157c-.028-.021-.111,0-.148.03a.884.884,0,0,0,.082,1.179m-8.334,31.3a1.787,1.787,0,0,0-.5.087c-.044.02-.02.28.031.406.115.282.362.137.577.155l-.1-.648m6.365-10.346a3.981,3.981,0,0,0,.3.675c.059.089.25.1.385.123.039.006.132-.087.132-.134,0-.3-.563-.713-.815-.664M12.434,24.671a6.426,6.426,0,0,0,.2-.8c.014-.111-.1-.237-.149-.357l-.1.027c-.02.069-.039.137-.06.205a.8.8,0,0,1-.067.211c-.19.29-.155.48.17.714m-.841,27.513a2.492,2.492,0,0,0-.083-.55.418.418,0,0,0-.286-.19c-.172-.033-.188.108-.184.243.011.386.1.467.553.5m5.4-2.044a.47.47,0,0,0,.683.492c.059-.032.088-.175.079-.262a.253.253,0,0,0-.148-.185,5.515,5.515,0,0,0-.615-.045m1.333,2.1a1.351,1.351,0,0,0-.05-.561c-.051-.089-.306-.06-.466-.084-.119.535,0,.7.516.645m-.784-.636c-.148.011-.358-.035-.437.047s-.083.3-.081.456c0,.055.109.148.175.155.334.033.463-.216.343-.658M11.3,5.833c-.142-.522-.5-.831-.844-.773.026.515.415.647.844.773m8.4,44.779.445-.193a2.521,2.521,0,0,0-.361-.507c-.071-.062-.256,0-.375.013l.292.687M7.442,39.666c-.345-.092-.518.043-.6.514-.016.091.056.2.088.3.108-.067.264-.108.314-.205a3.48,3.48,0,0,0,.2-.605m-2.358-.644c-.154.248.009.674-.454.661.055.3.259.255.4.223.08-.018.142-.15.2-.24a1.18,1.18,0,0,0,.049-.181.321.321,0,0,0-.2-.463M8.654,49.508,8.61,49.4l-.853.282c.252.436.452.532.722.392l-.183-.3.36-.262M23.942,34.646l-.076.019c.025.106.058.21.073.317a3.229,3.229,0,0,1,.073.726c-.028.288.094.435.359.576a4.967,4.967,0,0,0-.428-1.639M9.9,22.01c.04.368.071.7.118,1.028a.175.175,0,0,0,.146.094A.221.221,0,0,0,10.308,23a.979.979,0,0,0-.195-.855A.88.88,0,0,0,9.9,22.01M22.779,50.559c.142.016.234.029.325.037.188.017.255-.09.25-.257-.008-.236-.492-.554-.746-.478.083.227.522.347.171.7m-6.8-.725c-.228-.1-.316.138-.455.247a.244.244,0,0,0-.005.4c.094.074.262.053.4.075.012-.088.027-.176.035-.265.011-.134.017-.269.028-.453m2.431.864c.1-.1.254-.18.282-.293s.026-.35-.2-.309c-.16.029-.434-.09-.445.243-.007.224.11.3.368.359m4.453-26.419a1.5,1.5,0,0,0,.142.237.151.151,0,0,0,.145-.016.921.921,0,0,0,.214-.357,1.1,1.1,0,0,0-.09-.4,1.908,1.908,0,0,0-.309.238.918.918,0,0,0-.1.3M11.154,22.605c-.029.041-.132.132-.115.172a2.348,2.348,0,0,0,.29.512c.027.036.166-.011.253-.022.006,0,.012-.014.016-.022.084-.165-.209-.649-.444-.64m2.969,17.533a1.565,1.565,0,0,1,.106-.4,1.516,1.516,0,0,1,.3-.282.7.7,0,0,0-.84.684Zm6.848,9.673.317.753c.09.074.275.142.319-.11.049-.28-.328-.655-.637-.643m-4.225,1.4c.543.144.778.055.834-.308-.519-.144-.768-.058-.834.308M15.281,39.477a.263.263,0,0,0-.429.026,1.693,1.693,0,0,0-.315.562c-.031.106.111.164.212.048.176-.2.346-.412.532-.636M9.446,49.482l-.04-.092c-.149.079-.305.148-.445.242s-.285.181-.127.381c.134.169.272.255.474.115-.116-.355-.116-.355.138-.645M5.8,39.848a.589.589,0,0,0-.549.391.242.242,0,0,0,.023.224.341.341,0,0,0,.256.057c.05-.01.083-.112.123-.173.061-.095.122-.191.183-.286l.091-.143-.127-.07M22.59,14.075a2.8,2.8,0,0,0,.16.5c.034.064.168.074.257.109.024-.082.08-.172.064-.245a1.717,1.717,0,0,0-.16-.392,2.027,2.027,0,0,0-.162-.236l-.16.262M6.684,39.732c-.33.006-.459.228-.561.459-.026.059.06.233.073.231.126-.022.312-.035.357-.118a2.135,2.135,0,0,0,.13-.572M23.64,23.192c.169-.034.244-.188.222-.4a.593.593,0,0,0-.381-.519.126.126,0,0,0-.116.042.255.255,0,0,0,.007.159c.08.225.166.447.268.716M11.382,16.187l-.2-.218a2.868,2.868,0,0,0-.219.275.226.226,0,0,0-.009.166c.036.12.089.236.135.353.087-.109.181-.214.258-.329.028-.042.016-.109.033-.247M10.028,51.468a4.813,4.813,0,0,0,.1.6c.017.059.137.109.216.121a.207.207,0,0,0,.168-.1c.1-.212-.169-.6-.487-.628m8.386-.585c-.529-.067-.841-.078-.726.328.545.1.656.055.726-.328m5.118-30.047c.033.254.058.493.1.73a.29.29,0,0,0,.107.178c.028.019.156-.039.158-.067a1.506,1.506,0,0,0-.016-.515c-.047-.156-.132-.338-.347-.326m2.19,30.786-.149.565c.371.026.585-.116.561-.367s-.218-.208-.412-.2m-14.19-1.308c-.131-.274-.306-.55.164-.726a.477.477,0,0,0-.6.178.323.323,0,0,0-.042.276.363.363,0,0,0,.476.272m7.424.33c.143-.047.361-.055.419-.156s-.036-.306-.121-.424c-.049-.068-.214-.052-.34-.077l.043.657m-8.935-.407.055-.091c-.111-.221-.2-.441.1-.654a.588.588,0,0,0-.574.34c-.034.059.037.222.107.286a.912.912,0,0,0,.316.119M24.974,39.274c.147-.025.378.016.307-.236a5.836,5.836,0,0,0-.339-.78l-.053.032.084.984M11.293,34.256a1.654,1.654,0,0,0-.254,1.465ZM10.886,21.8a5.118,5.118,0,0,0,.11-.6c0-.061-.1-.188-.136-.18-.082.018-.2.083-.217.153a.561.561,0,0,0,.243.631M28.775,40.069a1.245,1.245,0,0,1,.285.25,2.6,2.6,0,0,1,.129.4c.013.034.117.071.134.056a.293.293,0,0,0,.107-.173c.017-.33-.24-.564-.655-.53m-2.743,9.744-.078.085c.086.21.167.423.266.627.01.021.195-.016.194-.023a1.227,1.227,0,0,0-.054-.483c-.048-.1-.215-.139-.329-.205m-2.482.053c.042.22.077.452.137.677.01.039.129.083.184.069a.264.264,0,0,0,.177-.141c.041-.175-.312-.569-.5-.605M11.942,14.927l-.241-.292a1.72,1.72,0,0,0-.207.422c-.016.081.1.187.149.282l.3-.412m14.74,34.948a4.65,4.65,0,0,0,.175.49.226.226,0,0,0,.183.078.2.2,0,0,0,.143-.107c.073-.22-.194-.5-.5-.462M14.326,39.188a.621.621,0,0,0,.255-.73c-.08-.176-.2-.228-.5-.16.467.2.276.54.246.891M8.475,25.461c.213-.021.459.118.554-.185.058-.185.051-.37-.171-.45l-.384.635m16.577.5c.107-.2.218-.318.215-.434,0-.082-.158-.16-.245-.24-.071.083-.2.172-.2.248.011.12.116.231.227.426M19.145,50.936c-.412-.181-.588-.1-.624.28.437.1.516.064.624-.28M10.9,19.092h.1a.774.774,0,0,0,.122-.7c-.021-.056-.1-.089-.159-.132-.036.051-.1.1-.1.153,0,.226.021.452.035.678m8.57,3.735c.051.1.092.175.123.25a1.972,1.972,0,0,0,.1.262.194.194,0,0,0,.15.088c.045-.006.1-.076.116-.129.077-.283-.12-.491-.489-.473m5.058,2.336c.11-.134.227-.238.211-.264a3.531,3.531,0,0,0-.308-.407c-.058.086-.179.189-.162.254a1.789,1.789,0,0,0,.259.418m.539,24.667c.224.219.474.409.367.753.217.041.258-.06.239-.223a.551.551,0,0,0-.606-.53m-.054-9.066c-.1.155-.219.255-.2.319.029.106.143.188.221.28.076-.09.2-.174.213-.273.011-.076-.115-.171-.232-.326M16.6,50.908c-.466-.126-.631-.058-.695.286.244-.064.57.134.695-.286M9.372,52.188c.023-.233.051-.409.05-.585,0-.05-.089-.143-.131-.139-.067.006-.176.069-.183.12a.55.55,0,0,0,.264.6m1.611-32.077c.087-.185.037-.528-.1-.543a.318.318,0,0,0-.242.135c-.094.145.048.322.31.411.008,0,.019,0,.028,0M32.756,44.225v.909a.54.54,0,0,0,0-.909m-3.809,4.109c-.4.035-.5.455-.279.828l.279-.828m-1.782,3.11-.1.025-.274.692a.459.459,0,0,0,.432-.36.939.939,0,0,0-.057-.358M11.86,24.71l-.165-.764c-.309.3-.252.56.165.764M6.272,49.373a1.2,1.2,0,0,0-.322.2.282.282,0,0,0-.023.272c.068.072.2.083.3.117l.049-.585m24.262-9.121-.092.078a1.325,1.325,0,0,0,.064.3.969.969,0,0,0,.176.206c.04-.094.135-.209.108-.277a1.2,1.2,0,0,0-.256-.3M5.6,49.369l-.053-.088a4.1,4.1,0,0,0-.4.216c-.028.019-.028.132,0,.171.091.121.176.278.392.2l-.156-.227.214-.272m2.026.084-.557.071-.023.109L7.4,49.9l.225-.447m-5.182-3.92a.476.476,0,0,0,0-.838Zm17.108,5.727.294-.2c-.073-.048-.147-.137-.217-.134a1.423,1.423,0,0,0-.356.11l.279.224m4.239-14.5a.694.694,0,0,0,.724-.252c-.226.1-.564-.166-.724.252M8.393,51.6l-.274-.042c-.09.337-.04.478.2.551l.07-.509M2.764,11.974l.686-.482a.568.568,0,0,0-.686.482M15.749,50.918c-.637.049-.637.049-.683.254.581-.04.581-.04.683-.254m-.844.029a1.727,1.727,0,0,1-.435-.007c-.215-.062-.229.071-.283.241.283.007.538.052.718-.234m-8-1.509a1.422,1.422,0,0,0-.352.114c-.036.023-.035.166,0,.225a.687.687,0,0,0,.192.162l.161-.5m13.773,1.708c-.065-.085-.111-.2-.16-.2a2.167,2.167,0,0,0-.417.063c.048.059.089.158.145.167a2.043,2.043,0,0,0,.431-.03m7.354-1.392-.109.076.174.5.1.008c.032-.08.111-.18.086-.236a1.9,1.9,0,0,0-.247-.347M19.07,26.379a.362.362,0,0,0,.31-.395c0-.063-.079-.129-.123-.193a.61.61,0,0,0-.118.169,4.056,4.056,0,0,0-.069.419M2.316,11.462c-.312.01-.43.233-.371.658l.371-.658M18.294,27.031l.151.1.257-.375-.177-.109-.231.389m9.217,23.395c.226-.261.185-.451-.155-.676l.155.676M11.027,17.2l-.19.463c.337-.024.4-.144.19-.463m10.387,33.77a2.732,2.732,0,0,0-.4-.03c-.049,0-.094.082-.141.127.054.041.105.11.163.116a2.165,2.165,0,0,0,.363-.019l.02-.194M24.512,37l.04.9a.685.685,0,0,0-.04-.9M10.054,19.484a1.471,1.471,0,0,0-.262.141,2.73,2.73,0,0,0,.168.381l.094-.035ZM4.579,40.536h.237l.06-.45c-.349,0-.282.249-.3.45m18.269-3.548-.381-.534c-.094.373.034.547.381.534m7.2,3.8.13-.024a1.281,1.281,0,0,0-.1-.372c-.051-.08-.178-.111-.271-.164a.89.89,0,0,0,.142.281,1.925,1.925,0,0,1,.1.279m-5.574-1.54.155-.038-.131-.574-.146.032.122.579M21.7,24.137l-.119.027a1.058,1.058,0,0,0,.01.332c.017.048.145.058.222.085l.058-.062-.171-.382m6.874,25.57-.072.1.276.426c.044-.145.11-.254.082-.291a1.466,1.466,0,0,0-.285-.232m-8.2-10,.728.4c-.214-.4-.332-.454-.728-.4M3.177,11.09a.687.687,0,0,0-.615.534l.615-.534m.834.984.068-.057L3.774,11.6c-.111.3-.053.389.237.472m18.6,39.019,0-.081c-.068-.026-.138-.077-.2-.07s-.122.072-.182.112c.065.047.126.123.2.133s.127-.06.192-.095m9.131-39.442-.07.1.47.381.072-.09-.472-.387M12.148,51.035l-.043-.11c-.15.015-.354-.095-.415.254l.458-.144M29.3,50.005l.1-.1-.367-.352-.076.076.34.377M10.945,36.516l-.118,0v.542l.081,0,.036-.541M3.073,8.078H2.495c.229.078.377.274.578,0M24.214,37.037l-.133.025.132.605.068-.014-.067-.617m-10.77,13.83-.472.146.03.094c.136-.044.344.146.441-.24m10.344.217L23.756,51h-.334l-.026.073c.059.037.119.106.177.1a.622.622,0,0,0,.216-.1m-12.751-.067.036.134.389-.086-.028-.128-.4.08m2.547.149.47-.107-.027-.106c-.131.083-.357-.192-.443.213" transform="translate(0 -0.004)"/>
    <path id="Path_45314" data-name="Path 45314" d="M69.925,956.291a.967.967,0,0,1,1.055.314,13.407,13.407,0,0,1,.813,1.1.441.441,0,0,0,.422.212c1.2-.008,2.4,0,3.594,0,.457,0,.533.064.68.6-.151,0-.291.011-.428,0-.228-.023-.3.082-.3.295,0,.742-.012,1.484-.02,2.226,0,.12,0,.241,0,.4-.36-.213-.78-.289-.668-.827a.8.8,0,0,0-.156.038,1.1,1.1,0,0,1-1.57-.273c-.422-.456-.464-.8-.146-1.2a1.056,1.056,0,0,1,1.343-.21c.168.1.323.223.483.335.018-.023.038-.036.038-.05,0-.892.1-.7-.683-.721-.618-.014-1.236,0-1.854-.007-.209,0-.287.061-.285.274.005.761,0,1.522-.006,2.283,0,.1,0,.2,0,.332-.5-.181-.851-.422-.663-1.037h-.983c0,.037-.013.1-.02.163-.024.209-.171.288-.315.17a4.823,4.823,0,0,1-.682-.708c-.037-.046.044-.262.125-.31a.329.329,0,0,0,.181-.369.218.218,0,0,1,0-.029c0-.785,0-.779-.794-.768-.194,0-.27.059-.269.258,0,.761-.007,1.522-.012,2.283,0,.11,0,.221,0,.359-.425-.15-.776-.3-.681-.84a3.106,3.106,0,0,1-.618.227.91.91,0,0,1-.791-.345,6.848,6.848,0,0,1-.458-.615c-.022-.03-.032-.07-.053-.1a1.31,1.31,0,0,0-1.024-.11.491.491,0,0,0-.283.595,7.429,7.429,0,0,0,.362.822.4.4,0,0,1,0,.291,2.629,2.629,0,0,1-.993-1.493.771.771,0,0,1,.43-.789c.506-.286.94.071,1.409.1a1.079,1.079,0,0,0,.539-.057.517.517,0,0,0,.193-.389c.007-.18-.165-.194-.318-.194-.913,0-1.826.008-2.738-.006-.232,0-.3.087-.3.3,0,.751-.01,1.5-.016,2.254,0,.1,0,.207,0,.314-.8-.125-.712-.733-.7-1.354a.813.813,0,0,1-1.036.012l-.529.468.826.872-.272.226c-.434-.521-.859-1.026-1.277-1.537a.614.614,0,0,1-.092-.237c-.093-.371.085-.512.544-.4,0-.26.017-.514,0-.765-.02-.229-.221-.13-.342-.135-.438-.018-.534-.1-.628-.619H71.533a1.346,1.346,0,0,0-1.218-1.038.23.23,0,0,1-.176-.09c-.081-.147-.137-.307-.214-.487m-2.639,2.232c.023.317.137.63.037.843s-.412.351-.634.523c.131.324.444.221.693.251a.83.83,0,0,0,.755-.62,5.814,5.814,0,0,0-.015-.8.27.27,0,0,0-.175-.191,6.544,6.544,0,0,0-.661-.009m-5.653.577a2.215,2.215,0,0,0,.006.368.3.3,0,0,0,.125.192.738.738,0,0,0,1.009-.613c-.017-.526-.017-.533-.534-.527-.649.008-.578-.127-.605.579m13.4.694a1.173,1.173,0,0,0-1.2-.382.5.5,0,0,0-.385.552c.037.269.25.344.47.367a1.27,1.27,0,0,0,1.112-.537m-3.484-1.273c-.3,0-.558-.009-.819.007a.217.217,0,0,0-.144.154c-.014.319-.007.638-.007.988.2,0,.389.015.573,0,.4-.038.4-.047.4-.449,0-.216,0-.433,0-.7" transform="translate(-56.53 -901.6)"/>
    <path id="Path_45315" data-name="Path 45315" d="M375.207,958.789c.068-.259.03-.395-.268-.389-.711.014-1.422,0-2.183,0v2.867c-.513-.1-.628-.234-.737-.8-.158.062-.31.129-.467.181a.762.762,0,0,1-.746-.175,2.115,2.115,0,0,1-.8-1.322c.118-.028.23-.058.343-.08.2-.038.377-.1.421-.323.038-.193-.015-.345-.253-.347-.314,0-.628.008-.941-.007-.2-.009-.267.066-.266.261,0,.761-.005,1.522-.009,2.283,0,.111,0,.221,0,.377a2.763,2.763,0,0,1-.519-.254.494.494,0,0,1-.156-.331c-.019-.387-.007-.776-.007-1.184h-.729c.069.154.134.285.189.422a.648.648,0,0,1-.347.9.444.444,0,0,1-.325,0,3.1,3.1,0,0,1-1.425-1.605c-.023-.045.046-.137.087-.249a8.377,8.377,0,0,0,.538.738,1.334,1.334,0,0,0,.482.336c.261.1.451-.048.4-.323a2.7,2.7,0,0,0-.256-.587c-.04-.087-.081-.173-.121-.26a1.027,1.027,0,0,1,.311-.123c.378-.015.757-.006,1.125-.006.1-.356.081-.385-.236-.386-.694,0-1.388,0-2.082,0-.484,0-.53-.037-.687-.585h9.676l.042-.083a9.972,9.972,0,0,0-.708-.865.578.578,0,0,0-.474-.118c-.224.057-.291-.036-.351-.2-.042-.115-.088-.229-.143-.372a.834.834,0,0,1,.861.156,9.323,9.323,0,0,1,.73.867,2.084,2.084,0,0,1,.227.328.492.492,0,0,0,.529.275c.511-.026.514-.006.733.559a4.761,4.761,0,0,1-.475.028c-.182-.007-.255.062-.256.246,0,.761-.015,1.521-.024,2.282,0,.119-.011.238-.017.357a.374.374,0,0,1-.063,0,.779.779,0,0,1-.593-.946,4.873,4.873,0,0,0,.007-.78,4.343,4.343,0,0,0-.749-.053.449.449,0,0,0-.388.432,1.109,1.109,0,0,0,.285.868c.065.081.138.156.223.251l-.153.178c-.037-.007-.06,0-.071-.014a2.85,2.85,0,0,1-.874-1.471.751.751,0,0,1,.476-.792,3.613,3.613,0,0,1,.708-.151,3.761,3.761,0,0,1,.507,0m-4.606.957c.15.3.41.275.656.287a.87.87,0,0,0,.806-.633,7.606,7.606,0,0,0-.012-.8c0-.067-.073-.182-.119-.185-.266-.018-.534-.009-.82-.009.364.773.328.887-.512,1.335" transform="translate(-344.65 -901.483)"/>
    <path id="Path_45316" data-name="Path 45316" d="M428.759,736.307a.728.728,0,0,1,.947-.518c-.1.183-.355.393.165.519l-.54.522-.572-.523" transform="translate(-404.256 -693.715)"/>
    <path id="Path_45317" data-name="Path 45317" d="M250.078,67.358a14.754,14.754,0,0,1,1.283-.848c.266-.141.679.109.822.407.058.119.123.235.173.356a.651.651,0,0,1,.021.176c-.062,0-.142.033-.182,0a1.6,1.6,0,0,1-.266-.251.6.6,0,0,0-.942-.083c-.1.083-.195.181-.3.266-.162.137-.333.169-.614-.028" transform="translate(-235.786 -62.672)"/>
    <path id="Path_45318" data-name="Path 45318" d="M340.733,70.9a1.926,1.926,0,0,1-.394-.193c-.427-.345-.654-.325-.991.106-.106.135-.2.342-.418.2-.032-.02.051-.284.13-.4a.828.828,0,0,1,1.452-.128,2.153,2.153,0,0,0,.349.234l-.127.178" transform="translate(-319.553 -66.107)"/>
    <path id="Path_45319" data-name="Path 45319" d="M121.77,758.079c.08.37-.3.487-.284.8-.255-.267-.2-.409.284-.8" transform="translate(-114.402 -714.755)"/>
    <path id="Path_45320" data-name="Path 45320" d="M125.939,768.483c-.278-.323-.221-.564.12-.717l-.12.717" transform="translate(-118.575 -723.889)"/>
    <path id="Path_45321" data-name="Path 45321" d="M131.784,774.131c-.246-.231-.158-.469-.1-.705l.1,0Z" transform="translate(-124.097 -729.223)"/>
    <path id="Path_45322" data-name="Path 45322" d="M119.762,751.59c-.069-.3.12-.419.319-.56.067.3-.129.415-.319.56" transform="translate(-112.904 -708.109)"/>
    <path id="Path_45323" data-name="Path 45323" d="M111.685,736.815a.477.477,0,0,1,.059-.668l.1.022-.16.646" transform="translate(-105.196 -694.077)"/>
    <path id="Path_45324" data-name="Path 45324" d="M107.145,726.959c-.022-.067-.081-.153-.059-.2a1.727,1.727,0,0,1,.224-.284l.066.053-.161.4-.07.026" transform="translate(-100.962 -684.96)"/>
    <path id="Path_45325" data-name="Path 45325" d="M116.106,744.64c-.188-.275.051-.361.162-.5l.08.04-.241.464" transform="translate(-109.405 -701.609)"/>
    <path id="Path_45326" data-name="Path 45326" d="M192.92,715.356c-.213,0-.371.006-.527,0a.156.156,0,0,1-.118-.087c-.009-.043.032-.139.054-.14a3.462,3.462,0,0,1,.521.014c.024,0,.036.109.069.217" transform="translate(-181.286 -674.253)"/>
    <path id="Path_45327" data-name="Path 45327" d="M192.778,725.921a.892.892,0,0,1-.242.03.169.169,0,0,1-.114-.117c0-.037.066-.106.112-.114a.636.636,0,0,1,.251.011,1.832,1.832,0,0,1,.248.091l-.21.168-.043-.068" transform="translate(-181.425 -684.238)"/>
    <path id="Path_45328" data-name="Path 45328" d="M237.9,701.145a4.625,4.625,0,1,1-4.391,4.992,4.593,4.593,0,0,1,4.391-4.992m3.724,7.155a.634.634,0,0,1,.521-.876l-3.163-1.23-.03.072,2.672,2.035m-6.965.082,2.657-2.106-.033-.052-3.113,1.32c.467.118.63.368.489.837m2.613-3.059.031-.061-2.707-2.033c.177.484-.041.709-.432.862l3.108,1.232m4.213,3.077-2.652-1.994-.045.045,2.053,2.653c.095-.532.192-.637.644-.7m-6.089-5.962c.007.465-.232.654-.672.681l2.7,2,.044-.051-2.067-2.631m3.367,2.616.056.043,2.62-2.08c-.5.051-.629-.254-.679-.658Zm-1.083,1.562-.053-.027-1.967,2.6a1.469,1.469,0,0,1,.465.105,1.906,1.906,0,0,1,.341.375l1.215-3.05m2.07,3.176-1.331-3.106-.055.016.448,3.344c.242-.385.5-.563.938-.254m-3.248-8.02,1.328,3.074.063-.022-.475-3.279a.612.612,0,0,1-.916.227m3.383,7.925c.169-.371.333-.68.811-.509l-2.047-2.611-.056.029,1.292,3.091m-1.558-4.881.064.017,1.238-3.1c-.385.257-.676.159-.913-.234l-.39,3.32m-.846,1.648-.045-.038-2.666,2.074a.615.615,0,0,1,.716.643l1.995-2.678m.681.276-.05,0-.433,3.359c.335-.363.643-.386.971-.048l-.488-3.313m-.557-1.786.058-.036-1.317-3.068a.594.594,0,0,1-.824.479l2.083,2.625m.954-.047.07.027,1.988-2.682c-.473.183-.674-.079-.834-.433l-1.224,3.088m2.959-1.728-2.588,2.056.035.063,2.972-1.292a.694.694,0,0,1-.419-.828m-4.345,2.37.012-.06-3.051-1.231c.277.408.046.663-.255.906l3.294.386m5.2-.513c-.464-.209-.438-.534-.252-.9-1.042.438-2.036.856-3.029,1.277-.019.008-.028.046-.038.071,0,.007,0,.019.005.027s.009.016.006.01l3.308-.485m-5.17,1.018-.016-.043-3.257.433a1.576,1.576,0,0,1,.3.431,1.362,1.362,0,0,1-.049.489l3.022-1.31m1.341-4.6c-.319.379-.62.342-.954.039l.5,3.3.056-.011.4-3.33m-1.014,8.564.383-3.3-.049-.014-1.276,3.1c.542-.242.568-.236.942.21m-.373-4.234-.007-.037-3.251-.4a1.382,1.382,0,0,1,.173.458,1.566,1.566,0,0,1-.169.485l3.255-.511m5.149.574-3.235-.4-.013.07,3.056,1.2c-.139-.4-.124-.487.192-.876m.135-1.147-3.337.508.006.054,3.261.366c-.308-.3-.27-.6.07-.929m-4.955.535c-.007.449.223.656.755.678a.668.668,0,0,0-.095-1.327.62.62,0,0,0-.66.649" transform="translate(-220.149 -661.066)"/>
    <path id="Path_45329" data-name="Path 45329" d="M130.272,833.083c.07.141.138.215.124.268s-.1.1-.16.151c-.037-.055-.1-.11-.1-.166s.062-.119.139-.253" transform="translate(-122.696 -785.473)"/>
    <path id="Path_45330" data-name="Path 45330" d="M113.395,835.119l-.211.171c-.047-.058-.119-.112-.132-.177-.007-.039.08-.135.124-.134s.116.07.219.14" transform="translate(-106.591 -787.261)"/>
    <path id="Path_45331" data-name="Path 45331" d="M121.013,835.257c-.072-.141-.132-.207-.13-.271s.081-.1.125-.144c.046.047.127.091.13.14s-.055.131-.125.274" transform="translate(-113.975 -787.131)"/>
    <path id="Path_45332" data-name="Path 45332" d="M129.1,826.229c-.07-.122-.143-.192-.132-.245a.22.22,0,0,1,.165-.122c.038,0,.125.09.122.135,0,.061-.074.117-.155.231" transform="translate(-121.596 -778.665)"/>
    <path id="Path_45333" data-name="Path 45333" d="M339.591,180.971l.474-1.052a.738.738,0,0,1,.006.738c-.1.172-.2.374-.48.313" transform="translate(-320.184 -169.637)"/>
    <path id="Path_45334" data-name="Path 45334" d="M282.3,186.242l.369.686c-.425-.15-.548-.439-.369-.686" transform="translate(-266.092 -175.599)"/>
    <path id="Path_45335" data-name="Path 45335" d="M468.51,727.022c.044.184.052.33-.233.267-.086-.019-.185.028-.272.011-.052-.01-.131-.091-.127-.132.007-.063.072-.167.118-.17a4.007,4.007,0,0,1,.513.024" transform="translate(-441.14 -685.447)"/>
    <path id="Path_45336" data-name="Path 45336" d="M475.966,738.37c-.074-.118-.142-.178-.133-.225.011-.064.08-.118.124-.176.045.056.115.107.129.169.01.047-.053.11-.12.232" transform="translate(-448.639 -695.795)"/>
    <path id="Path_45337" data-name="Path 45337" d="M198.931,795.569c-.064-.116-.13-.183-.117-.225.02-.064.1-.11.148-.164.046.052.13.1.129.156s-.077.118-.16.233" transform="translate(-187.451 -749.736)"/>
    <path id="Path_45338" data-name="Path 45338" d="M207.884,793.592c.073.124.145.191.138.249s-.1.1-.15.15c-.047-.054-.128-.105-.132-.162s.068-.119.144-.237" transform="translate(-195.868 -748.239)"/>
    <path id="Path_45339" data-name="Path 45339" d="M398.178,715.1c-.09.075-.151.162-.2.154a.209.209,0,0,1-.14-.15c0-.059.083-.117.129-.175l.206.171" transform="translate(-375.105 -674.069)"/>
    <path id="Path_45340" data-name="Path 45340" d="M406.227,715.355c-.061.036-.122.1-.181.1s-.136-.1-.126-.133a.291.291,0,0,1,.153-.178c.064-.016.149.049.225.078l-.071.132" transform="translate(-382.721 -674.271)"/>
    <path id="Path_45341" data-name="Path 45341" d="M301.817,167.693l.246.36.245-.427a.52.52,0,0,1-.034.61.283.283,0,0,1-.27.006.412.412,0,0,1-.186-.549" transform="translate(-284.532 -158.046)"/>
    <path id="Path_45342" data-name="Path 45342" d="M472.675,840.882c-.062-.121-.119-.181-.11-.23s.076-.107.118-.161c.045.058.113.111.128.175.009.042-.06.1-.136.215" transform="translate(-445.557 -792.458)"/>
    <path id="Path_45343" data-name="Path 45343" d="M471.83,850.215c-.074-.1-.141-.152-.14-.2s.069-.1.107-.151c.056.046.135.082.158.141.014.035-.059.1-.126.212" transform="translate(-444.733 -801.293)"/>
    <path id="Path_45344" data-name="Path 45344" d="M307.061,775.07a.436.436,0,0,1-.449-.45.459.459,0,0,1,.918-.029.481.481,0,0,1-.469.479" transform="translate(-289.089 -729.916)"/>
  </g>
</svg>
