<svg width="34" height="34" viewBox="0 0 34 34" fill="none" xmlns="http://www.w3.org/2000/svg">
<circle cx="17" cy="17" r="17" fill="#140F4B"/>
<mask id="mask0_572_563" style="mask-type:alpha" maskUnits="userSpaceOnUse" x="0" y="0" width="34" height="34">
<circle cx="17" cy="17" r="17" fill="#140F4B"/>
</mask>
<g mask="url(#mask0_572_563)">
<path d="M24 16.6655C24 20.7156 20.8662 23.9987 17.0002 23.9987C13.1341 23.9987 10 20.7156 10 16.6655C10 12.6155 13.1341 9.33203 17.0002 9.33203C20.8662 9.33203 24 12.6154 24 16.6655Z" fill="white"/>
<path d="M30.6374 33.118C29.4972 29.0606 26.4868 25.7089 22.5644 24.0769C22.2908 23.9447 21.9259 23.9886 21.6977 24.1652C20.3752 25.0915 18.7332 25.6206 16.9999 25.6206C15.2666 25.6206 13.6247 25.0915 12.3021 24.1652C12.0285 23.989 11.709 23.9447 11.4354 24.0769C7.51295 25.7087 4.50262 29.0606 3.36237 33.118C3.22556 33.5592 3.59048 34 4.04639 34H29.9528C30.4094 33.956 30.7743 33.5592 30.6375 33.118H30.6374Z" fill="white"/>
</g>
</svg>
