<svg width="17" height="16" viewBox="0 0 17 16" fill="none" xmlns="http://www.w3.org/2000/svg">
    <path fill-rule="evenodd" clip-rule="evenodd" d="M11.915 10.347c.324 0 .586.24.586.537v2.96c0 .427-.185.838-.514 1.14-.33.303-.778.473-1.244.473H1.952c-.466 0-.914-.17-1.243-.473a1.55 1.55 0 0 1-.515-1.14v-8.07c0-.428.185-.838.515-1.141a1.84 1.84 0 0 1 1.243-.473h3.223c.156 0 .305.057.415.158.11.1.171.238.171.38 0 .143-.061.28-.171.38a.614.614 0 0 1-.415.158H1.952a.614.614 0 0 0-.414.158.517.517 0 0 0-.172.38v8.07c0 .142.062.279.172.38.11.1.259.157.414.157h8.791a.614.614 0 0 0 .414-.158c.11-.1.172-.237.172-.38v-2.959c0-.297.262-.537.586-.537z" fill="#3584CF"/>
    <path fill-rule="evenodd" clip-rule="evenodd" d="m10.367 2.162 3.589 3.467-6.318 6.104a.57.57 0 0 1-.396.159H4.445a.55.55 0 0 1-.56-.541V8.648c0-.143.06-.28.165-.382l6.317-6.104zm.792-.764.954-.923A1.71 1.71 0 0 1 13.3 0c.445 0 .872.17 1.187.475l1.215 1.174c.315.304.492.716.492 1.146 0 .43-.177.843-.492 1.147l-.955.922-3.588-3.466z" fill="#3584CF"/>
</svg>
