<svg xmlns="http://www.w3.org/2000/svg" xmlns:xlink="http://www.w3.org/1999/xlink" width="120" height="120" viewBox="0 0 120 120">
  <defs>
    <linearGradient id="linear-gradient" y1="0.043" x2="0.95" y2="0.949" gradientUnits="objectBoundingBox">
      <stop offset="0" stop-color="#8ed4ff"/>
      <stop offset="1" stop-color="#3485ff"/>
    </linearGradient>
    <filter id="Rectangle_7777" x="0" y="0" width="120" height="120" filterUnits="userSpaceOnUse">
      <feOffset dx="10" dy="10" input="SourceAlpha"/>
      <feGaussianBlur stdDeviation="10" result="blur"/>
      <feFlood flood-opacity="0.22"/>
      <feComposite operator="in" in2="blur"/>
      <feComposite in="SourceGraphic"/>
    </filter>
  </defs>
  <g id="Group_65421" data-name="Group 65421" transform="translate(-963 -653)">
    <g id="Group_63778" data-name="Group 63778" transform="translate(943 453)">
      <g transform="matrix(1, 0, 0, 1, 20, 200)" filter="url(#Rectangle_7777)">
        <rect id="Rectangle_7777-2" data-name="Rectangle 7777" width="60" height="60" rx="10" transform="translate(20 20)" fill="url(#linear-gradient)"/>
      </g>
    </g>
    <g id="Group_63797" data-name="Group 63797" transform="translate(-141 90)">
      <path id="bank_1_" data-name="bank (1)" d="M30,28.749A1.25,1.25,0,0,1,28.748,30H1.25a1.25,1.25,0,0,1,0-2.5h27.5A1.25,1.25,0,0,1,30,28.749ZM.364,10.69A3.054,3.054,0,0,1,.555,7.482,5.9,5.9,0,0,1,2.64,5.608L12.016.728a6.467,6.467,0,0,1,5.967,0l9.374,4.883a5.9,5.9,0,0,1,2.085,1.875,3.054,3.054,0,0,1,.191,3.207,3.391,3.391,0,0,1-3.02,1.806h-.365v10H27.5a1.25,1.25,0,0,1,0,2.5H2.5a1.25,1.25,0,0,1,0-2.5H3.75v-10H3.385A3.391,3.391,0,0,1,.364,10.69ZM6.25,22.5H10v-10H6.25Zm6.249-10v10h5v-10Zm11.249,0H20v10h3.75ZM2.579,9.531A.9.9,0,0,0,3.385,10H26.613a.9.9,0,0,0,.806-.469.565.565,0,0,0-.03-.625A3.375,3.375,0,0,0,26.2,7.826L16.829,2.943a3.97,3.97,0,0,0-3.657,0L3.8,7.826A3.39,3.39,0,0,0,2.611,8.907a.565.565,0,0,0-.032.624Z" transform="translate(1139.002 598.002)" fill="#fff"/>
    </g>
  </g>
</svg>
