<svg width="31" height="31" viewBox="0 0 31 31" fill="none" xmlns="http://www.w3.org/2000/svg">
<g clip-path="url(#clip0_214_320)">
<path d="M5.16667 11.6248H11.625C11.625 10.204 10.4625 9.0415 9.04167 9.0415H5.16667C4.45625 9.0415 3.875 9.62275 3.875 10.3332C3.875 11.0436 4.45625 11.6248 5.16667 11.6248Z" fill="#3584CF"/>
<path d="M28.4167 18.1609V10.3334C28.4167 8.91258 27.2542 7.75008 25.8333 7.75008H17.7087L16.3396 6.38091L18.1608 4.55966L17.2437 3.64258L12.6842 8.20216L13.6012 9.11924L15.4225 7.29799L16.7917 8.66716V11.6251C16.7917 13.0459 15.6292 14.2084 14.2083 14.2084H11.5733C11.2892 14.0017 10.9921 13.8209 10.6821 13.653L10.1654 14.8026L9.57125 14.5313L10.0879 13.3688C9.3775 13.0847 8.57666 12.9167 7.75 12.9167C7.06541 12.9167 6.40666 13.0588 5.78666 13.2526L6.22583 14.428L5.61875 14.6605L5.16666 13.4592C3.7975 14.0534 2.69958 15.1126 2.02791 16.443L3.1775 16.9597L2.90625 17.5538L1.74375 17.0372C1.45958 17.7476 1.29166 18.5484 1.29166 19.3751C1.29166 20.0597 1.43375 20.7184 1.6275 21.3384L2.80291 20.8992L3.03541 21.5063L1.83416 21.9584C2.42833 23.3276 3.4875 24.4255 4.81791 25.0972L5.33458 23.9476L5.92875 24.2188L5.41208 25.3813C6.1225 25.6655 6.92333 25.8334 7.75 25.8334C8.43458 25.8334 9.09333 25.6913 9.71333 25.4976L9.27416 24.3222L9.88125 24.0897L10.3333 25.2909C11.7025 24.6967 12.8004 23.6376 13.4721 22.3072L12.3225 21.7905L12.5937 21.1963L13.7562 21.713C13.8854 21.3772 13.9887 21.0155 14.0662 20.6538H20.7312C20.7054 20.8734 20.6667 21.093 20.6667 21.3126C20.6667 23.8055 22.6946 25.8334 25.1875 25.8334C27.6804 25.8334 29.7083 23.8055 29.7083 21.3126C29.7083 20.0855 29.2175 18.9747 28.4167 18.1609ZM7.75 23.2501C5.60583 23.2501 3.875 21.5192 3.875 19.3751C3.875 17.2309 5.60583 15.5001 7.75 15.5001C9.89416 15.5001 11.625 17.2309 11.625 19.3751C11.625 21.5192 9.89416 23.2501 7.75 23.2501ZM14.0404 18.0834C13.9887 17.8509 13.9371 17.6313 13.8725 17.4117L12.6971 17.8509L12.4646 17.2438L13.6658 16.7917H14.2083C17.0629 16.7917 19.375 14.4797 19.375 11.6251V10.3334H25.8333V16.8563C25.6267 16.8305 25.4071 16.7917 25.1875 16.7917C23.9604 16.7917 22.8496 17.2826 22.0358 18.0834H14.0404ZM25.1875 23.2501C24.1154 23.2501 23.25 22.3847 23.25 21.3126C23.25 20.2405 24.1154 19.3751 25.1875 19.3751C26.2596 19.3751 27.125 20.2405 27.125 21.3126C27.125 22.3847 26.2596 23.2501 25.1875 23.2501Z" fill="#3584CF"/>
</g>
<defs>
<clipPath id="clip0_214_320">
<rect width="31" height="31" fill="white"/>
</clipPath>
</defs>
</svg>
