<svg xmlns="http://www.w3.org/2000/svg" width="43" height="39" viewBox="0 0 43 39">
  <g id="Group_63730" data-name="Group 63730" transform="translate(-90 -430)">
    <rect id="Rectangle_6693" data-name="Rectangle 6693" width="43" height="39" rx="10" transform="translate(90 430)" fill="#f0f0ff"/>
    <path id="users-alt_1_" data-name="users-alt (1)" d="M12,16a4,4,0,1,1,4-4A4,4,0,0,1,12,16Zm0-6a2,2,0,1,0,2,2A2,2,0,0,0,12,10Zm6,13A6,6,0,1,0,6,23a1,1,0,0,0,2,0,4,4,0,0,1,8,0,1,1,0,1,0,2,0ZM18,8a4,4,0,1,1,4-4A4,4,0,0,1,18,8Zm0-6a2,2,0,1,0,2,2A2,2,0,0,0,18,2Zm6,13a6.006,6.006,0,0,0-6-6,1,1,0,1,0,0,2,4,4,0,0,1,4,4,1,1,0,0,0,2,0ZM6,8a4,4,0,1,1,4-4A4,4,0,0,1,6,8ZM6,2A2,2,0,1,0,8,4,2,2,0,0,0,6,2ZM2,15a4,4,0,0,1,4-4A1,1,0,1,0,6,9a6.006,6.006,0,0,0-6,6,1,1,0,0,0,2,0Z" transform="translate(99.44 437.608)" fill="#999ded"/>
  </g>
</svg>
