<svg xmlns="http://www.w3.org/2000/svg" xmlns:xlink="http://www.w3.org/1999/xlink" width="120" height="120" viewBox="0 0 120 120">
  <defs>
    <linearGradient id="linear-gradient" x2="0.951" y2="0.965" gradientUnits="objectBoundingBox">
      <stop offset="0" stop-color="#c3a8ff"/>
      <stop offset="0.304" stop-color="#9b79e6"/>
      <stop offset="1" stop-color="#6d41cc"/>
    </linearGradient>
    <filter id="Rectangle_7777" x="0" y="0" width="120" height="120" filterUnits="userSpaceOnUse">
      <feOffset dx="10" dy="10" input="SourceAlpha"/>
      <feGaussianBlur stdDeviation="10" result="blur"/>
      <feFlood flood-opacity="0.22"/>
      <feComposite operator="in" in2="blur"/>
      <feComposite in="SourceGraphic"/>
    </filter>
  </defs>
  <g id="Group_65419" data-name="Group 65419" transform="translate(-20 -356)">
    <g transform="matrix(1, 0, 0, 1, 20, 356)" filter="url(#Rectangle_7777)">
      <rect id="Rectangle_7777-2" data-name="Rectangle 7777" width="60" height="60" rx="10" transform="translate(20 20)" fill="url(#linear-gradient)"/>
    </g>
    <g id="Group_63720" data-name="Group 63720" transform="translate(0 156)">
      <g id="Group_63197" data-name="Group 63197" transform="translate(-259 -201)">
        <path id="balance-scale-left" d="M29.923,13.317,26.084,2.9a2.936,2.936,0,0,0-3.53-1.831l-6.3,1.681V1.25a1.25,1.25,0,0,0-2.5,0V3.415L7.182,5.166a5.011,5.011,0,0,0-3.4,3.1L.078,18.317A5.73,5.73,0,0,0,0,19.126,5.813,5.813,0,0,0,5.629,25,5.574,5.574,0,0,0,9.5,23.454a5.651,5.651,0,0,0,1.752-4.08,9.464,9.464,0,0,0-.075-1.053L7.337,7.77a2.465,2.465,0,0,1,.49-.188L13.75,6V27.5H6.25a1.25,1.25,0,0,0,0,2.5h17.5a1.25,1.25,0,1,0,0-2.5h-7.5V5.335L22.37,3.7l-3.542,9.614a5.738,5.738,0,0,0,5.247,6.674,5.576,5.576,0,0,0,4.172-1.536A5.651,5.651,0,0,0,30,14.374a9.062,9.062,0,0,0-.077-1.057ZM5.455,22.5A3.211,3.211,0,0,1,2.622,20H8.687a3.127,3.127,0,0,1-3.231,2.495Zm2.76-5H3.043l2.6-7.066L8.216,17.5ZM24.375,5.491,26.958,12.5H21.793Zm-.17,12A3.211,3.211,0,0,1,21.373,15h6.064A3.127,3.127,0,0,1,24.2,17.5Z" transform="translate(314 436)" fill="#fff"/>
      </g>
    </g>
  </g>
</svg>
