<svg xmlns="http://www.w3.org/2000/svg" width="35.528" height="28" viewBox="0 0 35.528 28">
  <g id="Group_64662" data-name="Group 64662" transform="translate(-1788.281 -70.75)">
    <path id="Path_43969" data-name="Path 43969" d="M19.458,13.494,17.292,5.688A7.765,7.765,0,0,0,2.228,6.08L.553,13.619A2.5,2.5,0,0,0,2.992,16.66H6a4.165,4.165,0,0,0,8.164,0h2.891a2.5,2.5,0,0,0,2.407-3.165Zm-9.379,4.831A2.5,2.5,0,0,1,7.733,16.66h4.692A2.5,2.5,0,0,1,10.079,18.326Zm7.635-3.661a.827.827,0,0,1-.666.329H2.992a.833.833,0,0,1-.813-1.014L3.854,6.441a6.1,6.1,0,0,1,11.829-.31l2.166,7.806a.827.827,0,0,1-.136.727Z" transform="translate(1787.787 78.754)" fill="#003ea2"/>
    <g id="Group_64661" data-name="Group 64661">
      <rect id="Rectangle_8539" data-name="Rectangle 8539" width="26" height="16" rx="8" transform="translate(1797.809 70.75)" fill="#c42f23"/>
      <text id="_10" data-name="10" transform="translate(1805.809 82.25)" fill="#fff" font-size="10" font-family="Poppins-Medium, Poppins" font-weight="500"><tspan x="0" y="0">10</tspan></text>
    </g>
  </g>
</svg>
