<svg xmlns="http://www.w3.org/2000/svg" width="21.043" height="10.268" viewBox="0 0 21.043 10.268">
  <g id="Group_61778" data-name="Group 61778" transform="translate(-1424 -696.366)">
    <path id="angle-small-down" d="M5.212,12.958a.733.733,0,0,0,1.041,0L9.613,9.6a.733.733,0,0,1,1.041,0l3.359,3.359a.734.734,0,0,0,1.041-1.034L11.688,8.558a2.2,2.2,0,0,0-3.109,0L5.212,11.924A.733.733,0,0,0,5.212,12.958Z" transform="translate(1437.175 691.367) rotate(90)" fill="#0050d0"/>
    <path id="angle-small-down-2" data-name="angle-small-down" d="M5.212,12.958a.733.733,0,0,0,1.041,0L9.613,9.6a.733.733,0,0,1,1.041,0l3.359,3.359a.734.734,0,0,0,1.041-1.034L11.688,8.558a2.2,2.2,0,0,0-3.109,0L5.212,11.924A.733.733,0,0,0,5.212,12.958Z" transform="translate(1442.436 691.367) rotate(90)" fill="#0050d0" opacity="0.6"/>
    <path id="angle-small-down-3" data-name="angle-small-down" d="M5.212,12.958a.733.733,0,0,0,1.041,0L9.613,9.6a.733.733,0,0,1,1.041,0l3.359,3.359a.734.734,0,0,0,1.041-1.034L11.688,8.558a2.2,2.2,0,0,0-3.109,0L5.212,11.924A.733.733,0,0,0,5.212,12.958Z" transform="translate(1447.696 691.367) rotate(90)" fill="#0050d0" opacity="0.4"/>
    <path id="angle-small-down-4" data-name="angle-small-down" d="M5.212,12.958a.733.733,0,0,0,1.041,0L9.613,9.6a.733.733,0,0,1,1.041,0l3.359,3.359a.734.734,0,0,0,1.041-1.034L11.688,8.558a2.2,2.2,0,0,0-3.109,0L5.212,11.924A.733.733,0,0,0,5.212,12.958Z" transform="translate(1452.957 691.367) rotate(90)" fill="#0050d0" opacity="0.2"/>
  </g>
</svg>
