<svg xmlns="http://www.w3.org/2000/svg" xmlns:xlink="http://www.w3.org/1999/xlink" width="140" height="140" viewBox="0 0 140 140">
  <defs>
    <linearGradient id="linear-gradient" x1="0.5" x2="0.5" y2="1" gradientUnits="objectBoundingBox">
      <stop offset="0" stop-color="#7169ff"/>
      <stop offset="1" stop-color="#393580"/>
    </linearGradient>
    <filter id="Path_45607" x="0" y="0" width="140" height="140" filterUnits="userSpaceOnUse">
      <feOffset dy="5" input="SourceAlpha"/>
      <feGaussianBlur stdDeviation="10" result="blur"/>
      <feFlood flood-color="#617088" flood-opacity="0.102"/>
      <feComposite operator="in" in2="blur"/>
      <feComposite in="SourceGraphic"/>
    </filter>
    <clipPath id="clip-path">
      <rect id="Rectangle_6144" data-name="Rectangle 6144" width="41" height="41" fill="#fff"/>
    </clipPath>
  </defs>
  <g id="Group_65144" data-name="Group 65144" transform="translate(-1190.658 -461)">
    <g id="Group_65142" data-name="Group 65142" transform="translate(462 -76)">
      <g transform="matrix(1, 0, 0, 1, 728.66, 537)" filter="url(#Path_45607)">
        <path id="Path_45607-2" data-name="Path 45607" d="M6.667,0H73.333A6.667,6.667,0,0,1,80,6.667V73.333A6.667,6.667,0,0,1,73.333,80H6.667A6.667,6.667,0,0,1,0,73.333V6.667A6.667,6.667,0,0,1,6.667,0Z" transform="translate(30 25)" fill="url(#linear-gradient)"/>
      </g>
      <g id="Path_45606" data-name="Path 45606" transform="translate(744 576.267)" fill="#0e00ff">
        <path d="M6.667,0H73.333A6.667,6.667,0,0,1,80,6.667V73.333A6.667,6.667,0,0,1,73.333,80H6.667A6.667,6.667,0,0,1,0,73.333V6.667A6.667,6.667,0,0,1,6.667,0Z" stroke="none"/>
        <path d="M 6.666664123535156 0.5 C 3.266357421875 0.5 0.5 3.266357421875 0.5 6.666664123535156 L 0.5 73.33333587646484 C 0.5 76.733642578125 3.266357421875 79.5 6.666664123535156 79.5 L 73.33333587646484 79.5 C 76.733642578125 79.5 79.5 76.733642578125 79.5 73.33333587646484 L 79.5 6.666664123535156 C 79.5 3.266357421875 76.733642578125 0.5 73.33333587646484 0.5 L 6.666664123535156 0.5 M 6.666664123535156 0 L 73.33333587646484 0 C 77.01523590087891 0 80 2.984764099121094 80 6.666664123535156 L 80 73.33333587646484 C 80 77.01523590087891 77.01523590087891 80 73.33333587646484 80 L 6.666664123535156 80 C 2.984764099121094 80 0 77.01523590087891 0 73.33333587646484 L 0 6.666664123535156 C 0 2.984764099121094 2.984764099121094 0 6.666664123535156 0 Z" stroke="none" fill="rgba(255,255,255,0.5)"/>
      </g>
    </g>
    <g id="Group_65138" data-name="Group 65138" transform="translate(98 -3.277)">
      <g id="Group_62041" data-name="Group 62041" transform="translate(1135 516.277)">
        <g id="Group_62040" data-name="Group 62040" clip-path="url(#clip-path)">
          <path id="Path_43723" data-name="Path 43723" d="M41,20.491a7.3,7.3,0,0,1-4.051-.828c-.2-.108-.391-.223-.534-.306-.943.68-1.834,1.377-2.782,1.985a3.442,3.442,0,0,1-1.883.47c-2.093,0-4.186-.032-6.278.016a1.579,1.579,0,0,1-1.706-1.138c-.172.284-.329.53-.473.783a12.037,12.037,0,0,1-2.362,2.84c-.364.337-.775.624-1.169.929a3,3,0,0,0-1.236,2.647,2.134,2.134,0,0,1,1.4.928,10.294,10.294,0,0,1,.688,1.512l-.092.076h.4q3.883,0,7.765,0c.306,0,.422-.035.523-.413a4.333,4.333,0,0,1,3.569-3.445,4.48,4.48,0,0,1,4.749,1.936,4.226,4.226,0,0,1,.758,2.16A4.545,4.545,0,0,1,37.7,33.36a4.5,4.5,0,0,1-3.13,2.247,4.433,4.433,0,0,1-4.276-1.415,4.091,4.091,0,0,1-1.088-2.1c-.059-.327-.175-.365-.443-.365q-3.469.009-6.939,0c-.482,0-.965-.015-1.445.01a.8.8,0,0,0-.378.2,12.259,12.259,0,0,1-1.219.92.4.4,0,0,0-.258.375c-.042.565-.079,1.133-.165,1.693a5.148,5.148,0,0,1-1.11,2.409c-.271.344-.588.653-.9,1h.377q5.7,0,11.4.006a.547.547,0,0,0,.589-.351,1.94,1.94,0,0,1,1.85-.97,1.972,1.972,0,0,1,1.768,1.559,1.945,1.945,0,0,1-.968,2.144,1.9,1.9,0,0,1-2.273-.229,1.565,1.565,0,0,1-.394-.556.479.479,0,0,0-.516-.285c-5.369.006-10.739.02-16.109-.007A5.225,5.225,0,0,1,8.883,38.4a5.67,5.67,0,0,1-2.119-3.362,9.987,9.987,0,0,1-.128-1.7.411.411,0,0,0-.309-.461,2.48,2.48,0,0,1-1.667-2.083,2.591,2.591,0,0,1,1.281-2.684c.215-.137.65-.23.651-.347a3.717,3.717,0,0,0-.234-1.2,3.755,3.755,0,0,0-1.539-1.717,11.787,11.787,0,0,1-3.076-3.471,11.871,11.871,0,0,1-1.537-4,12.628,12.628,0,0,1-.038-4.336,12.332,12.332,0,0,1,6.07-8.752,12.831,12.831,0,0,1,4.02-1.459,11.034,11.034,0,0,1,2.021-.172c4.888-.014,9.775-.008,14.663-.008h.2A3.4,3.4,0,0,1,29.6.086.855.855,0,0,0,29.764,0h1.157a.465.465,0,0,0,.122.077A3.192,3.192,0,0,1,33.7,3.3a3.068,3.068,0,0,1-1.246,2.578A3.287,3.287,0,0,1,27.16,3.985H18.274a12.614,12.614,0,0,1,4.784,4.238,1.822,1.822,0,0,0,.177-.163,2.208,2.208,0,0,1,1.861-.791c2.147.005,4.295-.021,6.442.012a4.472,4.472,0,0,1,2.787.869c.686.538,1.374,1.073,2.055,1.6.2-.118.38-.233.569-.332A8.028,8.028,0,0,1,41,8.593ZM10.581,9.584c.005-.357.007-.714.016-1.07a1.878,1.878,0,0,1,1.684-1.885,1.9,1.9,0,0,1,2.112,1.34,14.288,14.288,0,0,1,.18,1.558c0,.837-.022,1.674,0,2.511a.651.651,0,0,0,.261.478A4.708,4.708,0,0,1,17,15.189H21.3c.416-1.659.834-3.311,1.24-4.966a.589.589,0,0,0-.048-.375,10.181,10.181,0,0,0-2.6-3.209,12.237,12.237,0,0,0-2.41-1.562,10.8,10.8,0,0,0-4.168-1.056,11.912,11.912,0,0,0-3.265.209A10.749,10.749,0,0,0,3.8,8.068a10.909,10.909,0,0,0-2.442,5.9A10.241,10.241,0,0,0,1.6,17.621a11.408,11.408,0,0,0,4.463,6.521,4,4,0,0,1,1.8,3.22c.009.312.133.407.444.406,2.85-.011,5.7-.006,8.552-.006H17.2a4.169,4.169,0,0,1,1.682-3.5,12.5,12.5,0,0,0,2.846-2.8c.48-.711.88-1.477,1.346-2.27H19.344c-.935,0-1.869-.013-2.8-.007a.431.431,0,0,0-.308.13A4.895,4.895,0,0,1,14.079,20.9a3.972,3.972,0,0,1-2.159.236A4.572,4.572,0,0,1,8.775,19.2,4.608,4.608,0,0,1,10.4,12.443a.413.413,0,0,0,.187-.3c.011-.852,0-1.7-.005-2.557m13.372.347H29.74v1.307h-.432c-1.776,0-3.552,0-5.328.01a.5.5,0,0,0-.393.223,9.587,9.587,0,0,0-.258,1.1h6.413v1.309c-1.865,0-3.707,0-5.55,0-.4,0-.885-.111-1.158.079-.234.162-.221.681-.318,1.042-.015.057-.034.114-.063.209h7.091v1.312h-15.5c-.138,0-.276-.005-.413.005a.588.588,0,0,0-.583.567c-.06.475.225.749.776.749q7.642,0,15.283,0h.435v1.323c-1.122,0-2.222-.006-3.321,0a1.228,1.228,0,0,0-1.255,1.3.682.682,0,0,0,.117.02c2.2,0,4.406.009,6.609-.015a2.01,2.01,0,0,0,1.033-.26c.8-.52,1.521-1.147,2.317-1.667a1.064,1.064,0,0,0,.48-1.058q-.026-3.056,0-6.113a.755.755,0,0,0-.4-.76,5.457,5.457,0,0,1-.943-.764,4.42,4.42,0,0,0-3.285-1.268c-1.844.036-3.69.009-5.535.009-1.2,0-1.2,0-1.524,1.132-.014.05-.037.1-.078.206M17.185,33.072H7.974a4.636,4.636,0,0,0,4.87,5.266,4.755,4.755,0,0,0,4.341-5.266m-4.663-1.346c1.789,0,3.579.007,5.368,0a1.267,1.267,0,0,0,1.137-.756,1.193,1.193,0,0,0-.068-1.247,1.4,1.4,0,0,0-1.3-.634c-1.583-.007-3.166,0-4.749,0-1.858,0-3.717.017-5.574-.008a1.373,1.373,0,0,0-1.377,1.353,1.319,1.319,0,0,0,1.361,1.3q2.6,0,5.2,0M39.66,19.086v-9.1a5.5,5.5,0,0,0-2.488.841.478.478,0,0,0-.131.355q-.011,3.364,0,6.728a.47.47,0,0,0,.132.354,4.561,4.561,0,0,0,2.487.826m-9.234,11.96a3.316,3.316,0,0,0,3.412,3.333A3.282,3.282,0,0,0,37,31.072a3.288,3.288,0,0,0-6.576-.027M14.486,19.2c-1.631-.144-2.062-.355-2.429-1.259a1.9,1.9,0,0,1,.329-2.045,2.077,2.077,0,0,1-1.831-1.951A3.282,3.282,0,0,0,14.486,19.2M28.443,3.274a1.96,1.96,0,0,0,1.988,2.02A1.992,1.992,0,0,0,32.384,3.3a1.9,1.9,0,0,0-2.012-1.962,1.874,1.874,0,0,0-1.929,1.936m-16.526,7.96c0,.852,0,1.7,0,2.556,0,.472.237.751.614.749a.743.743,0,0,0,.7-.743q.009-2.556,0-5.112a.738.738,0,0,0-.7-.749c-.377,0-.617.276-.619.744,0,.852,0,1.7,0,2.556M29.766,38.982a.621.621,0,0,0,.6.674.78.78,0,0,0,.718-.641.767.767,0,0,0-.684-.675.618.618,0,0,0-.633.642M14.134,15.171h1.523L14.635,13.9l-.5,1.273" transform="translate(0)" fill="#fff"/>
          <g id="Group_62042" data-name="Group 62042" transform="translate(5.303 9.527)">
            <path id="Path_43724" data-name="Path 43724" d="M78.092,125.356a7.179,7.179,0,0,1-2.842,3.458,7.311,7.311,0,0,1-3.7,1.155,7.075,7.075,0,0,1-5.614-2.4,6.821,6.821,0,0,1-1.8-3.74,7.117,7.117,0,0,1,2.342-6.544,6.487,6.487,0,0,1,2.528-1.48,2.063,2.063,0,0,1,.321-.047c0,.852.016,1.7.005,2.557a.413.413,0,0,1-.187.3,4.608,4.608,0,0,0-1.625,6.758,4.572,4.572,0,0,0,3.145,1.93,3.972,3.972,0,0,0,2.159-.236,4.9,4.9,0,0,0,2.153-1.591.43.43,0,0,1,.308-.13c.935-.006,1.869,0,2.8.007" transform="translate(-64.051 -115.702)" fill="#fff" opacity="0.3"/>
            <path id="Path_43725" data-name="Path 43725" d="M175.908,115.078a8.147,8.147,0,0,1,2.852,1.613,7.207,7.207,0,0,1,2.184,3.653c.033.13.05.264.074.4h-2.681a4.709,4.709,0,0,0-2.169-2.673.651.651,0,0,1-.261-.478c-.022-.836,0-1.674,0-2.511" transform="translate(-166.637 -115.078)" fill="#fff" opacity="0.3"/>
          </g>
          <path id="Path_43726" data-name="Path 43726" d="M383.427,353.448a1.874,1.874,0,0,1,1.9-1.966,1.908,1.908,0,0,1,2.043,1.972,2,2,0,0,1-1.964,1.984,1.961,1.961,0,0,1-1.977-1.99m1.933.659a.66.66,0,1,0,.013-1.317.66.66,0,0,0-.013,1.317" transform="translate(-351.679 -322.382)" fill="#fff"/>
        </g>
      </g>
    </g>
  </g>
</svg>
