<svg xmlns="http://www.w3.org/2000/svg" xmlns:xlink="http://www.w3.org/1999/xlink" width="140" height="140" viewBox="0 0 140 140">
  <defs>
    <linearGradient id="linear-gradient" x1="0.5" x2="0.5" y2="1" gradientUnits="objectBoundingBox">
      <stop offset="0" stop-color="#7169ff"/>
      <stop offset="1" stop-color="#393580"/>
    </linearGradient>
    <filter id="Path_45607" x="0" y="0" width="140" height="140" filterUnits="userSpaceOnUse">
      <feOffset dy="5" input="SourceAlpha"/>
      <feGaussianBlur stdDeviation="10" result="blur"/>
      <feFlood flood-color="#617088" flood-opacity="0.102"/>
      <feComposite operator="in" in2="blur"/>
      <feComposite in="SourceGraphic"/>
    </filter>
    <clipPath id="clip-path">
      <rect id="Rectangle_6142" data-name="Rectangle 6142" width="44.245" height="44.298" fill="#fff"/>
    </clipPath>
  </defs>
  <g id="Group_65143" data-name="Group 65143" transform="translate(-755.658 -532)">
    <g id="Group_65142" data-name="Group 65142" transform="translate(27 -5)">
      <g transform="matrix(1, 0, 0, 1, 728.66, 537)" filter="url(#Path_45607)">
        <path id="Path_45607-2" data-name="Path 45607" d="M6.667,0H73.333A6.667,6.667,0,0,1,80,6.667V73.333A6.667,6.667,0,0,1,73.333,80H6.667A6.667,6.667,0,0,1,0,73.333V6.667A6.667,6.667,0,0,1,6.667,0Z" transform="translate(30 25)" fill="url(#linear-gradient)"/>
      </g>
      <g id="Path_45606" data-name="Path 45606" transform="translate(744 576.267)" fill="#0e00ff">
        <path d="M6.667,0H73.333A6.667,6.667,0,0,1,80,6.667V73.333A6.667,6.667,0,0,1,73.333,80H6.667A6.667,6.667,0,0,1,0,73.333V6.667A6.667,6.667,0,0,1,6.667,0Z" stroke="none"/>
        <path d="M 6.666664123535156 0.5 C 3.266357421875 0.5 0.5 3.266357421875 0.5 6.666664123535156 L 0.5 73.33333587646484 C 0.5 76.733642578125 3.266357421875 79.5 6.666664123535156 79.5 L 73.33333587646484 79.5 C 76.733642578125 79.5 79.5 76.733642578125 79.5 73.33333587646484 L 79.5 6.666664123535156 C 79.5 3.266357421875 76.733642578125 0.5 73.33333587646484 0.5 L 6.666664123535156 0.5 M 6.666664123535156 0 L 73.33333587646484 0 C 77.01523590087891 0 80 2.984764099121094 80 6.666664123535156 L 80 73.33333587646484 C 80 77.01523590087891 77.01523590087891 80 73.33333587646484 80 L 6.666664123535156 80 C 2.984764099121094 80 0 77.01523590087891 0 73.33333587646484 L 0 6.666664123535156 C 0 2.984764099121094 2.984764099121094 0 6.666664123535156 0 Z" stroke="none" fill="rgba(255,255,255,0.5)"/>
      </g>
    </g>
    <g id="Group_65137" data-name="Group 65137" transform="translate(10916 5473)">
      <g id="Group_62037" data-name="Group 62037" transform="translate(-10119 -4891)">
        <g id="Group_62036" data-name="Group 62036" clip-path="url(#clip-path)">
          <path id="Path_43707" data-name="Path 43707" d="M21.389,33.574H0V5H34.263a4.858,4.858,0,0,1,1.808-3.881,4.525,4.525,0,0,1,3.2-1.114,4.9,4.9,0,0,1,4.971,5.023,4.916,4.916,0,0,1-4.252,4.892v.386q0,6.652.011,13.3a.856.856,0,0,0,.252.6,10.679,10.679,0,0,1,2.594,3.171A10.453,10.453,0,0,1,44.088,30.9a12.523,12.523,0,0,1,.026,3.524,11.395,11.395,0,0,1-5.444,8.245,11.4,11.4,0,0,1-10.37.7,11.7,11.7,0,0,1-6.7-8.26c-.115-.478-.14-.977-.215-1.533m10.746-7.781V22.955a9.907,9.907,0,0,0-8.287,14.258c.191-.116.377-.242.574-.345.632-.333,1.268-.658,1.9-.986l.714,1.164-2.505,1.4a9.946,9.946,0,0,0,16.527.011l-2.4-1.417.714-1.162,2.4,1.306a9.8,9.8,0,0,0-.4-9.5,9.959,9.959,0,0,0-7.811-4.768v2.877H32.134M1.435,6.423v25.7H21.4l.193-1.417H20.008V22.163h4.278v3.029c4.225-4.129,8.98-4.777,14.264-2.272,0-.084.013-.17.013-.257q0-6.162,0-12.324a.53.53,0,0,0-.007-.22.43.43,0,0,0-.191-.206c-.729-.273-1.463-.532-2.239-.811-1.283,1.28-2.647,2.63-3.992,4a.849.849,0,0,0-.139.538,6.3,6.3,0,0,1,.035,1.145,2.108,2.108,0,0,1-3.807.733,2.248,2.248,0,0,1-.2-2.18c-.4-.4-.8-.782-1.178-1.179a.47.47,0,0,0-.523-.135,3.452,3.452,0,0,1-1.32,0,.473.473,0,0,0-.524.132q-1.508,1.522-3.032,3.029a.59.59,0,0,0-.174.623,2.766,2.766,0,0,1,.045,1.1,2.144,2.144,0,0,1-2.546,1.63A2.178,2.178,0,0,1,17.2,15.812a2.114,2.114,0,0,1,2.678-1.419.539.539,0,0,0,.452-.073c1.151-1.119,2.285-2.255,3.412-3.375a2.16,2.16,0,0,1,.376-2.426,2.017,2.017,0,0,1,2.066-.586,1.992,1.992,0,0,1,1.556,2.272,1.191,1.191,0,0,0,.468,1.367c.226.163.391.41.61.586.108.087.315.175.414.128a1.913,1.913,0,0,1,1.4-.012.511.511,0,0,0,.418-.094c1.412-1.386,2.812-2.785,4.183-4.151a6.964,6.964,0,0,1-.584-1.147c-.126-.421-.358-.466-.734-.466q-15.985.013-31.97.007Zm34.272-1.43a3.578,3.578,0,0,0,3.218,3.573,3.529,3.529,0,0,0,3.89-3.588,3.554,3.554,0,0,0-7.108.015M21.432,29.256c.513.047.512.046.689-.362a5.985,5.985,0,0,0,.69-1.659c.107-1.2.033-2.424.033-3.643H21.432ZM25.638,9.284a.713.713,0,0,0,.038,1.423.83.83,0,0,0,.739-.731.843.843,0,0,0-.777-.692m4.28,5.708a.841.841,0,0,0,.784-.684.835.835,0,0,0-.732-.738.713.713,0,0,0-.052,1.422M19.206,17.136a.843.843,0,0,0,.778-.69.829.829,0,0,0-.737-.732.713.713,0,0,0-.041,1.423" transform="translate(0 0)" fill="#fff"/>
          <path id="Path_43708" data-name="Path 43708" d="M228.825,226.259l-.714,1.162a7.259,7.259,0,0,1-4.914,2.9,6.806,6.806,0,0,1-3.668-.487,7.767,7.767,0,0,1-3.039-2.408l-.714-1.164c-.043-.141-.076-.286-.13-.423a6.643,6.643,0,0,1,.045-5.29,6.85,6.85,0,0,1,5.9-4.377h1.427a13.064,13.064,0,0,1,2.249.585,6.834,6.834,0,0,1,3.983,4.878,6.18,6.18,0,0,1,.025,2.967c-.142.555-.3,1.106-.446,1.659m-6.553,1.263a4.22,4.22,0,0,0,4.285-4.325,4.153,4.153,0,0,0-4.33-4.23,4.236,4.236,0,0,0-4.22,4.629,4.329,4.329,0,0,0,4.264,3.926" transform="translate(-189.453 -190.377)" fill="#fff" opacity="0.3"/>
          <path id="Path_43710" data-name="Path 43710" d="M119.692,161.838h4.251v11.379h-4.251Zm2.826,1.425h-1.385V171.8h1.385Z" transform="translate(-105.411 -142.528)" fill="#fff"/>
          <path id="Path_43711" data-name="Path 43711" d="M28.208,204.827H23.961v-7.109h4.247Zm-1.434-5.675H25.4V203.4h1.378Z" transform="translate(-21.102 -174.127)" fill="#fff"/>
          <path id="Path_43712" data-name="Path 43712" d="M71.914,209.608H76.15v5.68H71.914Zm1.437,4.259h1.378v-2.822H73.351Z" transform="translate(-63.334 -184.599)" fill="#fff"/>
          <path id="Path_43713" data-name="Path 43713" d="M57.757,67.327H47.77V65.914h9.987Z" transform="translate(-42.07 -58.05)" fill="#fff"/>
          <path id="Path_43714" data-name="Path 43714" d="M57.946,91.205H47.984V89.782h9.962v1.423" transform="translate(-42.259 -79.07)" fill="#fff"/>
          <path id="Path_43715" data-name="Path 43715" d="M57.946,115.158H47.984v-1.423h9.962v1.423" transform="translate(-42.259 -100.165)" fill="#fff"/>
          <path id="Path_43716" data-name="Path 43716" d="M47.77,139.1v-1.413h9.987c0,.459,0,.918,0,1.413Z" transform="translate(-42.07 -121.261)" fill="#fff"/>
          <path id="Path_43717" data-name="Path 43717" d="M25.315,65.914v1.413H23.9V65.914Z" transform="translate(-21.05 -58.05)" fill="#fff"/>
          <path id="Path_43718" data-name="Path 43718" d="M23.9,89.782h1.39v1.423H23.9V89.782" transform="translate(-21.05 -79.07)" fill="#fff"/>
          <path id="Path_43719" data-name="Path 43719" d="M23.9,113.735h1.39v1.423H23.9v-1.423" transform="translate(-21.05 -100.165)" fill="#fff"/>
          <path id="Path_43720" data-name="Path 43720" d="M23.9,137.688h1.413V139.1H23.9Z" transform="translate(-21.05 -121.26)" fill="#fff"/>
          <path id="Path_43721" data-name="Path 43721" d="M243.509,248.171a4.329,4.329,0,0,1-4.264-3.926,4.236,4.236,0,0,1,4.22-4.629,4.153,4.153,0,0,1,4.33,4.23,4.22,4.22,0,0,1-4.285,4.325m-2.828-4.287a2.848,2.848,0,0,0,2.646,2.865,2.887,2.887,0,0,0,3.044-2.863,2.788,2.788,0,0,0-2.956-2.842,2.739,2.739,0,0,0-2.734,2.84" transform="translate(-210.69 -211.026)" fill="#fff"/>
        </g>
      </g>
    </g>
  </g>
</svg>
