<svg xmlns="http://www.w3.org/2000/svg" width="40" height="40" viewBox="0 0 40 40">
  <g id="Group_62143" data-name="Group 62143" transform="translate(-542 -541)">
    <rect id="Rectangle_6219" data-name="Rectangle 6219" width="4" height="4" rx="2" transform="translate(546 541) rotate(90)" fill="#bfc2ff" opacity="0.5"/>
    <rect id="Rectangle_6220" data-name="Rectangle 6220" width="4" height="4" rx="2" transform="translate(558 541) rotate(90)" fill="#bfc2ff" opacity="0.5"/>
    <rect id="Rectangle_6221" data-name="Rectangle 6221" width="4" height="4" rx="2" transform="translate(570 541) rotate(90)" fill="#bfc2ff" opacity="0.5"/>
    <rect id="Rectangle_6222" data-name="Rectangle 6222" width="4" height="4" rx="2" transform="translate(582 541) rotate(90)" fill="#bfc2ff" opacity="0.5"/>
    <rect id="Rectangle_6219-2" data-name="Rectangle 6219" width="4" height="4" rx="2" transform="translate(546 553) rotate(90)" fill="#bfc2ff" opacity="0.5"/>
    <rect id="Rectangle_6220-2" data-name="Rectangle 6220" width="4" height="4" rx="2" transform="translate(558 553) rotate(90)" fill="#bfc2ff" opacity="0.5"/>
    <rect id="Rectangle_6221-2" data-name="Rectangle 6221" width="4" height="4" rx="2" transform="translate(570 553) rotate(90)" fill="#bfc2ff" opacity="0.5"/>
    <rect id="Rectangle_6222-2" data-name="Rectangle 6222" width="4" height="4" rx="2" transform="translate(582 553) rotate(90)" fill="#bfc2ff" opacity="0.5"/>
    <rect id="Rectangle_6219-3" data-name="Rectangle 6219" width="4" height="4" rx="2" transform="translate(546 565) rotate(90)" fill="#bfc2ff" opacity="0.5"/>
    <rect id="Rectangle_6220-3" data-name="Rectangle 6220" width="4" height="4" rx="2" transform="translate(558 565) rotate(90)" fill="#bfc2ff" opacity="0.5"/>
    <rect id="Rectangle_6221-3" data-name="Rectangle 6221" width="4" height="4" rx="2" transform="translate(570 565) rotate(90)" fill="#bfc2ff" opacity="0.5"/>
    <rect id="Rectangle_6222-3" data-name="Rectangle 6222" width="4" height="4" rx="2" transform="translate(582 565) rotate(90)" fill="#bfc2ff" opacity="0.5"/>
    <rect id="Rectangle_6219-4" data-name="Rectangle 6219" width="4" height="4" rx="2" transform="translate(546 577) rotate(90)" fill="#bfc2ff" opacity="0.5"/>
    <rect id="Rectangle_6220-4" data-name="Rectangle 6220" width="4" height="4" rx="2" transform="translate(558 577) rotate(90)" fill="#bfc2ff" opacity="0.5"/>
    <rect id="Rectangle_6221-4" data-name="Rectangle 6221" width="4" height="4" rx="2" transform="translate(570 577) rotate(90)" fill="#bfc2ff" opacity="0.5"/>
    <rect id="Rectangle_6222-4" data-name="Rectangle 6222" width="4" height="4" rx="2" transform="translate(582 577) rotate(90)" fill="#bfc2ff" opacity="0.5"/>
  </g>
</svg>
